<mxfile host="65bd71144e">
    <diagram id="kAg8As3q_xFgUaGDOFnt" name="Page-1">
        <mxGraphModel dx="250" dy="754" grid="1" gridSize="10" guides="1" tooltips="1" connect="1" arrows="1" fold="1" page="1" pageScale="1" pageWidth="827" pageHeight="1169" math="0" shadow="0">
            <root>
                <mxCell id="0"/>
                <mxCell id="1" parent="0"/>
                <mxCell id="2" value="" style="shape=image;verticalLabelPosition=bottom;labelBackgroundColor=#ffffff;verticalAlign=top;aspect=fixed;imageAspect=0;image=data:image/png,iVBORw0KGgoAAAANSUhEUgAABWsAAAPNCAYAAAD/RTggAAAgAElEQVR4Aey9zc99WV3mXX8AMQx6AAMDsWHkBBInDqBrpjCwcQCJA5uXyMR0gNYZPE8gJg+knRQJSadBgVLxldIq3wDLl0IptRC11FJLS6EssOyQpkORLtLVjT7nyef2uW6+v1V777PP2z5rn/PZyan9ttZ3fddnXXv/al9n3fvc9fTTT2/8yEANqAE1oAbUgBpQA2pADagBNaAG1IAaUANqQA2oATVwXg3c5QCcdwDkL381oAbUgBpQA2pADagBNaAG1IAaUANqQA2oATWgBtCAZq0zi51ZrQbUgBpQA2pADagBNaAG1IAaUANqQA2oATWgBtRABxrQrO1gEPzmxG9O1IAaUANqQA2oATWgBtSAGlADakANqAE1oAbUgBrQrNWs9VsTNaAG1IAaUANqQA2oATWgBtSAGlADakANqAE1oAY60IBmbQeD4LcmfmuiBtSAGlADakANqAE1oAbUgBpQA2pADagBNaAG1IBmrWat35qoATWgBtSAGlADakANqAE1oAbUgBpQA2pADagBNdCBBjRrOxgEvzXxWxM1oAbUgBpQA2pADagBNaAG1IAaUANqQA2oATWgBjRrNWv91kQNqAE1oAbUgBpQA2pADagBNaAG1IAaUANqQA2ogQ40oFnbwSD4rYnfmqgBNaAG1IAaUANqQA2oATWgBtSAGlADakANqAE1oFmrWeu3JmpADagBNaAG1IAaUANqQA2oATWgBtSAGlADakANdKABzdoOBsFvTfzWRA2oATWgBtSAGlADakANqAE1oAbUgBpQA2pADagBzVrNWr81UQNqQA2oATWgBtSAGlADakANqAE1oAbUgBpQA2qgAw1o1nYwCH5r4rcmakANqAE1oAbUgBpQA2pADagBNaAG1IAaUANqQA1o1mrW+q2JGlADakANqAE1oAbUgBpQA2pADagBNaAG1IAaUAMdaECztoNB8FsTvzVRA2pADagBNaAG1IAaUANqQA2oATWgBtSAGlADakCzVrPWb03UgBpQA2pADagBNaAG1IAaUANqQA2oATWgBtSAGuhAA5q1HQyC35r4rYkaUANqQA2oATWgBtSAGlADakANqAE1oAbUgBpQA5q1mrV+a6IG1IAaUANqQA2oATWgBtSAGlADakANqAE1oAbUQAca0KztYBD81sRvTdSAGlADakANqAE1oAbUgBpQA2pADagBNaAG1IAa0KzVrPVbEzWgBtSAGlADakANqAE1oAbUgBpQA2pADagBNaAGOtCAZm0Hg+C3Jn5rogbUgBpQA2pADagBNaAG1IAaUANqQA2oATWgBtSAZq1mrd+aqAE1oAbUgBpQA2pADagBNaAG1IAaUANqQA2oATXQgQY0azsYBL818VsTNaAG1IAaUANqQA2oATWgBtSAGlADakANqAE1oAY0azVr/dZEDagBNaAG1IAaUANqQA2oATWgBtSAGlADakANqIEONKBZ28Eg+K2J35qoATWgBtSAGlADakANqAE1oAbUgBpQA2pADagBNaBZq1nrtyZqQA2oATWgBtSAGlADakANqAE1oAbUgBpQA2pADXSgAc3aDgbBb0381kQNqAE1oAbUgBpQA2pADagBNaAG1IAaUANqQA2oAc1azVq/NVEDakANqAE1oAbUgBpQA2pADagBNaAG1IAaUANqoAMNaNZ2MAh+a+K3JmpADagBNaAG1IAaUANqQA2oATWgBtSAGlADakANaNZq1vqtiRpQA2pADagBNaAG1IAaUANqQA2oATWgBtSAGlADHWhAs7aDQfBbE781UQNqQA2oATWgBtSAGlADakANqAE1oAbUgBpQA2pAs1az1m9N1IAaUANqQA2oATWgBtSAGlADakANqAE1oAbUgBroQAOatR0Mgt+a+K2JGlADakANqAE1oAbUgBpQA2pADagBNaAG1IAaUAOatZq1fmuiBtSAGlADakANqAE1oAbUgBpQA2pADagBNaAG1EAHGtCs7WAQ/NbEb03UgBpQA2pADagBNaAG1IAaUANqQA2oATWgBtSAGtCs1az1WxM1oAbUgBpQA2pADagBNaAG1IAaUANqQA2oATWgBjrQgGZtB4PgtyZ+a6IG1IAaUANqQA2oATWgBtSAGlADakANqAE1oAbUgGatZq3fmqgBNaAG1IAaUANqQA2oATWgBtSAGlADakANqAE10IEGNGs7GAS/NfFbEzWgBtSAGlADakANqAE1oAbUgBpQA2pADagBNaAGNGs1a/3WRA2oATWgBtSAGlADakANqAE1oAbUgBpQA2pADaiBDjSgWdvBIPitid+aqAE1oAbUgBpQA2pADagBNaAG1IAaUANqQA2oATWgWatZ67cmakANqAE1oAbUgBpQA2pADagBNaAG1IAaUANqQA10oAHN2g4GwW9N/NZEDagBNaAG1IAaUANqQA2oATWgBtSAGlADakANqAHNWs1avzVRA2pADagBNaAG1IAaUANqQA2oATWgBtSAGlADaqADDWjWdjAIfmvityZqQA2oATWgBtSAGlADakANqAE1oAbUgBpQA2pADWjWatb6rYkaUANqQA2oATWgBtSAGlADakANqAE1oAbUgBpQAx1oQLO2g0HwWxO/NVEDakANqAE1oAbUgBpQA2pADagBNaAG1IAaUANqQLNWs9ZvTdSAGlADakANqAE1oAbUgBpQA2pADagBNaAG1IAa6EADmrUdDILfmvitiRpQA2pADagBNaAG1IAaUANqQA2oATWgBtSAGlADmrWatX5rogbUgBpQA2pADagBNaAG1IAaUANqQA2oATWgBtRABxrQrO1gEPzWxG9NTqmBD3/4w5tv/dZvvfl8+7d/++bxxx/f6eZLndR/z3vec1v3DW94w23Mufn/0A/90G2sz372szexHnnkkdtjaaddf+d3fufmrW9964ayc9uynNeVGlADakANqAE1oAbUgBpQA2pADagBNbA2DWjWatZqfl24Bu65557NXXfddfuphuu2G9Z99913W48YmK2pQ5zEpVyOT60xYanDOuUwYBNnzvqHf/iHb+smhmv/8VUDakANqAE1oAbUgBpQA2pADagBNaAGLkEDmrUXbtRdgkjtw2E329asZZbqXKbMnq0GajVrmaH7Ld/yLTfnKbct5oMPPngbi5xSvpq1GMDs1w9GMOVj9JLPLoZz2nF9mI7kJz81oAbUgBpQA2pADagBNaAG1IAaUAOn14BmrWbtrWnmBXf6C+4cjFuzFrNzzkzYaqLGsK1mLX357u/+7hsDFtN22+sVqvFL7LCo7VQTN+ezJj6vZCCXOe2lnuvL1LXj6riqATWgBtSAGlADakANqAE1oAbUwCVqQLNWs/bWNLtEgdunp29mpcbgZFYt25is29jE5GVGa+q1Zm19TcI2AzgzY9uZvXPNWvKt7U0Zu9v65nn/QVcDakANqAE1oAbUgBpQA2pADagBNaAGetSAZq1m7VbTrkfhmtP8G2pMV0zavGd2zszUmKvMiB0zaxmHvAqhNWHrGE2ZrLuYtcSkH3xa47i25/Z8fchKVmpADagBNaAG1IAaUANqQA2oATWgBvrRgGatZq1m7YVroJq19T2zU2ZnNVcxU2PcDtXhGObplAGcVyBQpv0HQLO2n38Q2rFx37FRA2pADagBNaAG1IAaUANqQA2oATWwrAY0ay/cqPOCWvaC6pF3NWvJL+Yq738dyzfmambLTpm11dgdezVB6hO3bXMXs7a29eEPf/h5sdrY7qt/NaAG1IAaUANqQA2oATWgBtSAGlADamBNGtCs1azV8LpwDVSzlpm1Dz744O2rBDA/2xvWkHkas3VoZi3185qEmLs1ZjVY57ZX62e7zvBlhi77Oefaf3jVgBpQA2pADagBNaAG1IAaUANqQA2ogUvQgGbthRt1lyBS+3DYzbaatZ/97GdvDM6Yq0M/NJbyGLRhv82snXoXbmbp1niJy7qaw5Sl/foh9lvf+tbbd+P6vtrD9FDZuy1LNaAG1IAaUANqQA2oATWgBtSAGlADfWlAs1az9taQ8+Ls6+I81njEfMXkjFnLKwTG3jMbYxaDNDlQdsokZcZuymCuph7r/ADZ2KzcatYmxtiaWG382pbbl6lhx9VxVQNqQA2oATWgBtSAGlADakANqIFr0YBmrWbtHcbatQj/mvo5ZNaO/dBYfWVBfc1AzNMxwxWema1bX4VQ267xKv9q1lKX2bXt5wd+4AduZtuSd63rtv9YqwE1oAbUgBpQA2pADagBNaAG1IAaUAOXpAHNWs1aza8L10A1TDOzlpvY0A+N5ZUF3/Vd33WHLuaYtdXojanKaxaoWw3c9gZazVpybc+77z+6akANqAE1oAbUgBpQA2pADagBNaAG1MC1aECz9sKNumsRsv0cv2mPmbX11QUYrdU05TUJlekcs7bO1uVVBTX+lAlb250qV/Nxe3y8ZSMbNaAG1IAaUANqQA2oATWgBtSAGlAD69WAZq1m7R2mnBfzei/msbEbM2spn1cXMAM25YZ+CGyOWUs8XleQmbSJx35m2g7lqFl7eZobGmePOc5qQA2oATWgBtSAGlADakANqAE1oAa2a0CzVrNWs/bCNVBN0/oaBG6QeXUBP9yVHxajfHvznGvWJh7lv/3bv/3GuOXVCm28uq9Zu/1GXXm5LS81oAbUgBpQA2pADagBNaAG1IAaUAOXqwHN2gs36rx4L/finTu2U2YtMTBqY8ayxjxtY+f81A+MpU5M39TBwM25obVmrRod0oXH1IUaUANqQA2oATWgBtSAGlADakANXKMGNGs1ayeNtGu8KC6tz9vM2vzQGObq2CzYGK9zzNoab+iVCi1fzVr/8W014b6aUANqQA2oATWgBtSAGlADakANqIFr1YBmrWatZu2Fa2CbWVt/CGxsFuwuZm2NN2b+1huuZq3/AFc9uK0e1IAaUANqQA2oATWgBtSAGlADauCaNaBZe+FG3TWL277/680d8xRDlM8Yk7nnp34orMZOvFOVr2257T/iakANqAE1oAbUgBpQA2pADagBNaAG1MClaECzVrN21MC7FJHbD2/YakANqAE1oAbUgBpQA2pADagBNaAG1IAaUANr0IBmrWatZq0aUANqQA2oATWgBtSAGlADakANqAE1oAbUgBpQAx1oQLO2g0FYg6tvjn77pAbUgBpQA2pADagBNaAG1IAaUANqQA2oATWgBk6rAc1azVq/NVEDakANqAE1oAbUgBpQA2pADagBNaAG1IAaUANqoAMNaNZ2MAh+I3HabyTkK181oAbUgBpQA2pADagBNaAG1IAaUANqQA2ogTVoQLNWs9ZvTdSAGlADakANqAE1oAbUgBpQA2pADagBNaAG1IAa6EADmrUdDMIaXH1z9NsnNaAG1IAaUANqQA2oATWgBtSAGlADakANqAE1cFoNaNZq1vqtiRpQA2pADagBNaAG1IAaUANqQA2oATWgBtSAGlADHWhAs7aDQfAbidN+IyFf+aoBNaAG1IAaUANqQA2oATWgBtSAGlADakANrEEDmrWatX5rogbUgBpQA2pADagBNaAG1IAaUANqQA2oATWgBtRABxrQrO1gENbg6puj3z6pATWgBtSAGlADakANqAE1oAbUgBpQA2pADaiB02pAs1az1m9N1IAaUANqQA2oATWgBtSAGlADakANqAE1oAbUgBroQAOatR0Mgt9InPYbCfnKVw2oATWgBtSAGlADakANqAE1oAbUgBpQA2pgDRrQrNWs9VsTNaAG1IAaUANqQA2oATWgBtSAGlADakANqAE1oAY60IBmbQeDsAZX3xz99kkNqAE1oAbUgBpQA2pADagBNaAG1IAaUANqQA2cVgOatZq1fmuiBtSAGlADakANqAE1oAbUgBpQA2pADagBNaAG1EAHGtCs7WAQ/EbitN9IyFe+akANqAE1oAbUgBpQA2pADagBNaAG1IAaUANr0IBmrWat35qoATWgBtSAGlADakANqAE1oAbUgBpQA2pADagBNdCBBjRrOxiENbj65ui3T2pADagBNaAG1IAaUANqQA2oATWgBtSAGlADauC0GtCs1az1WxM1oAbUgBpQA2pADagBNaAG1IAaUANqQA2oATWgBjrQgGZtB4PgNxKn/UZCvvJVA2pADagBNaAG1IAaUANqQA2oATWgBtSAGliDBjRrNWv91kQNqAE1oAbUgBpQA2pADagBNaAG1IAaUANqQA2ogQ40oFnbwSCswdU3R799UgNqQA2oATWgBtSAGlADakANqAE1oAbUgBpQA6fVgGatZu3FfGvy1FNPbb74xS9eTH+8+Z325idf+aoBNaAG1IAaUANqQA2oATWgBtSAGlADvWlAs7Yjs/bv//7vNx/+8Ic3f/zHf/w8w/FTn/rU5qd/+qc3//AP//C8c9tE9fnPf37zsY99bPOhD31o82M/9mObD37wg5vf/M3f3CsWbT3xxBObBx98cPNHf/RHmy996UuD+ZAnbdAe7dLmL/7iL24ee+yxwfLb+pDzf/M3f7P5hV/4hZvP3/7t397E+ru/+7vNr/zKr2x+/Md//Kat3/iN39jA8q//+q83bP/Jn/zJzZpjiTNnTd/+9E//dHPvvfdufv3Xf32nunPiW8Z/ENSAGlADakANqAE1oAbUgBpQA2pADagBNaAGqgY0azszazE377vvvjtMUMzWj3zkIweZtcT8q7/6q80//uM/bp588snN/fffv/nzP//zO9qpwpjanmvWfvrTn9787u/+7iYzXn/v935v89u//dsbzNWp+GPnyJe8MYoxZzFrMVQfeuihzR/8wR/c9AtD9pOf/OSN4f2Xf/mXe5u1zND9wz/8wxtTmJw1a71xjunS42pDDagBNaAG1IAaUANqQA2oATWgBtSAGjiWBjRrOzNrP/7xj29+7ud+7sZYzSBjRDK78+d//udvZsNiUj7wwAM3s1UxcTESMUQxYh9++OHb2azMxMUYxeytZi0GJ3X+7M/+7MbsZObpz/7sz97MSv2Jn/iJG6MTs5LZsb/zO79zE49Zq8yMJVY1a9nHPKUc28mZutWs5TizVDFsH3300c1v/dZv3ZjP9PWRRx656S8GLGY1feI8pnLisSYncqf+r/3ar92YtfQPM/Uv/uIvNl/4whdu6lAGFszCJS/62eZX4w5tUx+m9AP+mrXedId04jF1oQbUgBpQA2pADagBNaAG1IAaUANqQA0cUwOatZ2Ztb/0S790MxuVP99noDEoMXAxGzFrMST58/68ggDjlFckMOuUmbOUicmJyRiTkuNsY+YyO5X4xKI+RiQGaIxQ9jE/MVcxhYmHafmZz3xm84lPfOLGJMWgZZ84mLLVqCXv1qylH5SPsUo9ZsRSjjyYgUscDFJMVsza3//9378xXVvBY77GrKXPmLwY07weAbOZ3HZ95UHbRvbJW7PWm2704FotqAE1oAbUgBpQA2pADagBNaAG1IAaUAOn1IBmbYdmLWYlBi0GKCYs2xiUmVmLqUoZjFfMVGbFch5zk/fEtoIhTsxa/rQf0/ZnfuZnbt4fy6xaDNS8/xVjFrP2s5/97M0sWExU4jHTlNcKYCazxixlBizG6NBrDTBh887avLcWMxVTGIOYNsmFvjz++OM3Ri250BaGLX0jT+K0/almLe/AhQ99px595TUImNkYrW3d7BMXE5Y+kB986FfOZ61Z6w04WnCtFtSAGlADakANqAE1oAbUgBpQA2pADaiBU2tAs7ZDsxYjkZmnGJC/+qu/emMqYkpiKGKMYmRitmJ2YuZifG4za+trEBBVzFBM2X3MWgxdZujyIQamaxUrfWhfg5DzeXXBMcxaTGtm+zILmBwwVzGJYZcZxml3n7VmrTfhfXRjHXWjBtSAGlADakANqAE1oAbUgBpQA2pADeyjAc3aTs1a/rz/J3/yJzcf+9jHbmaLxqzFnMQExWxlwJmV+su//Ms3Zi11mGWa2ajMHGXmK7NNq1nLLFleM0AcXqmA2Ynpy3FmvuY1CGzzioG8u7V9DQKzVz/3uc/dvkaB+hHhLmYtr0HgXbZ8MEfp49zXIJAb5ix9pU3qYnCTV2sgJ7dd1pq13lh30Ytl1YsaUANqQA2oATWgBtSAGlADakANqAE1cIgGNGs7NWsxCXm9Ae+jZYBj1mJsMosUI/enfuqnbj68CoGZtZilvAf2Qx/60M2n/sAYpi/H+ZP/D37wgzemLq8+oA6mK2U5zztf8woBZqZi9nKcHxjDCOZdsPUHxsgT45hXD9TXCOxi1tI/jGZm6dIWrybAgB2bGVtfg0Bd+sHrGfK6BepiUB9yYaSuZq032GjBtVpQA2pADagBNaAG1IAaUANqQA2oATWgBk6tAc3ajszaXQabWaMYokOzR3Nul3iYtsxSrbNjU594nMv+qda0jTnKZ582qDfEY59Y1vHmqwbUgBpQA2pADagBNaAG1IAaUANqQA2oATWwtAY0a1dq1i4tFNvz5qQG1IAaUANqQA2oATWgBtSAGlADakANqAE1oAZOqwHNWs3avWaxemGe9sKUr3zVgBpQA2pADagBNaAG1IAaUANqQA2oATVwfRrQrNWs1axVA2pADagBNaAG1IAaUANqQA2oATWgBtSAGlADaqADDWjWdjAI+Zbk2Wef3fzzP/+zHxmoATWgBtSAGlADakANqAE1oAbUgBpQA2pADaiBC9MA3l98wLG1Zm1HZu3Xv/71jYsEJCABCUhAAhKQgAQkIAEJSEACEpCABCRweQTw/sZM2hzXrNWsvTzl2yMJSEACEpCABCQgAQlIQAISkIAEJCABCXRGQLO2IyM27vjU2pm1nV1BpiMBCUhAAhKQgAQkIAEJSEACEpCABCQggSMR0KzVrD2SlAwjAQlIQAISkIAEJCABCUhAAhKQgAQkIAEJHEJAs1az9hD9WFcCEpCABCQgAQlIQAISkIAEJCABCUhAAhI4EgHNWs3aI0nJMBKQgAQkIAEJSEACEpCABCQgAQlIQAISkMAhBDRrNWsP0Y91JSABCUhAAhKQgAQkIAEJSEACEpCABCQggSMR0KzVrD2SlAwjAQlIQAISkIAEJCABCUhAAhKQgAQkIAEJHEJAs1az9hD9WFcCEpCABCQgAQlIQAISkIAEJCABCUhAAhI4EgHNWs3aI0nJMBKQgAQkIAEJSEACEpCABCQgAQlIQAISkMAhBDRrNWsP0Y91JSABCUhAAhKQgAQkIAEJSEACEpCABCQggSMR0KzVrD2SlAwjAQlIQAISkIAEJCABCUhAAhKQgAQkIAEJHEJAs1az9hD9WFcCEpCABCQgAQlIQAISkIAEJCABCUhAAhI4EgHNWs3aI0nJMBKQgAQkIAEJSEACEpCABCQgAQlIQAISkMAhBDRrNWsP0Y91JSABCUhAAhKQgAQkIAEJSEACEpCABCQggSMR0KzVrD2SlAwjAQlIQAISkIAEJCABCUhAAhKQgAQkIAEJHEJAs1az9hD9WFcCEpCABCQgAQlIQAISkIAEJCABCUhAAhI4EgHNWs3aI0nJMBKQgAQkIAEJSEACEpCABCQgAQlIQAISkMAhBDRrNWsP0Y91JSABCUhAAhKQgAQkIAEJSEACEpCABCQggSMR0KzVrD2SlAwjAQlIQAISkIAEJCABCUhAAhKQgAQkIAEJHEJAs1az9hD9WFcCEpCABCQgAQlIQAISkIAEJCABCUhAAhI4EgHNWs3aI0nJMBKQgAQkIAEJSEACEpCABCQgAQlIQAISkMAhBDRrNWsP0Y91j0jgX/7qrzb/5557/MhADagBNaAG1IAaUANqQA2oATWgBtSAGrgKDRzRVrmYUJq1mrUXI+a1d0SzVqNas14NqAE1oAbUgBpQA2pADagBNaAG1MA1aWDtXs4p8tes1aw9ha6MuQeBW7P2v/yXzf/7pS/5kYEaUANqQA2oATWgBtSAGlADakANqAE1cHEa+Jc//dPbWcN72CcXX0WzVrP24kW+lg7GrP3Ghz+8lpTNUwISkIAEJCABCUhAAhKQgAQkIAEJ7ESACWqZPbxTxSsprFmrWXslUu+/m5q1/Y+RGUpAAhKQgAQkIAEJSEACEpCABCRwGAHN2ml+mrWatdMK8exiBDRrF0NtQxKQgAQkIAEJSEACEpCABCQgAQmciYBm7TR4zVrN2mmFeHYxApq1i6G2IQlIQAISkIAEJCABCUhAAhKQgATORECzdhq8Zq1m7bRCPLsYAc3axVDbkAQkIAEJSEACEpCABCQgAQlIQAJnIqBZOw1es1azdlohnl2MgGbtYqhtSAISkIAEJCABCUhAAhKQgAQkIIEzEdCsnQavWatZO60Qzy5GQLN2MdQ2JAEJSEACEpCABCQgAQlIQAISkMCZCGjWToPXrNWsnVaIZxcjoFm7GGobkoAEJCABCUhAAhKQgAQkIAEJSOBMBDRrp8Fr1mrWTivEs4sR0KxdDLUNSUACEpCABCQgAQlIQAISkIAEJHAmApq10+A1azVrpxXi2cUIaNYuhtqGJCABCUhAAhKQgAQkIAEJSEACEjgTAc3aafCatZq10wrx7GIENGsXQ21DEpCABCQgAQlIQAISkIAEJCABCZyJgGbtNHjNWs3aaYV4djECmrWLobYhCUhAAhKQgAQkIAEJSEACEpCABM5EQLN2GrxmrWbttEI8uxgBzdrFUNuQBCQgAQlIQAISkIAEJCABCUhAAmcioFk7DV6zVrN2WiGeXYyAZu1iqG1IAhKQgAQkIAEJSEACEpCABCQggTMR0KydBq9Zq1k7rRDPLkZAs3Yx1DYkAQlIQAISkIAEJCABCUhAAhKQwJkIaNZOg9es1aydVohnFyOgWbsYahuSgAQkIAEJSEACEpCABCQgAQlI4EwENGunwWvWatZOK8SzixHQrF0MtQ1JQAISkIAEJCABCUhAAhKQgAQkcCYCmrXT4JwDZccAACAASURBVDVrNWunFeLZxQho1i6G2oYkIAEJSEACEpCABCQgAQlIQAISOBMBzdpp8Jq1mrXTCvHsYgQ0axdDbUMSkIAEJCABCUhAAhKQgAQkIAEJnImAZu00eM1azdpphXh2MQKatYuhtiEJSEACEpCABCQgAQlIQAISkIAEzkRAs3YavGatZu20Qjy7GAHN2sVQ25AEJCABCUhAAhKQgAQkIAEJSEACZyKgWTsNXrNWs3ZaIZ5djIBm7WKobUgCEpCABCQgAQlIQAISkIAEJCCBMxHQrJ0Gr1mrWTutEM8uRkCzdjHUNiQBCUhAAhKQgAQkIAEJSEACEpDAmQho1k6D16zVrJ1WiGcXI6BZuxhqG5KABCQgAQlIQAISkIAEJCABCUjgTAQ0a6fBa9Zq1k4rxLOLEdCsXQy1DUlAAhKQgAQkIAEJSEACEpCABCRwJgKatdPgNWs1a6cV4tnFCGjWLobahiQgAQlIQAISkIAEJCABCUhAAhI4EwHN2mnwmrWatdMK8exiBDRrF0NtQxKQgAQkIIGtBP7Xww9v/tu///d7ff73X/7laPyv/uiP3sT87//xP46WGTpBPv/jXe/afOmVr9w8+W/+ze2HHP/nz/7sUJWbY9ShDOup5Rtf/OJtX8ntX555Zqr4zTnaDaOthZsCqTeVe8bgqW/7ttv+sj3W56/91/96m0/iz1036bkrAQlIQAISkMAJCWjWTsPVrNWsnVaIZxcjoFm7GGobkoAEJCABCWwl8D9/5mduDcJqjs7Z/l+///uD8TFEa/05hiiBvvqf//Md9WqMbGPiEr9d/tv3fM9NXUzLsYV6MYHH4gzVrXkNnZ86lryJ0S7/8rWv3ZiuKTO2bg1oTOaxstuOtzm4LwEJSEACEpDA6Qho1k6z1azVrJ1WiGcXI6BZuxhqG5KABCQgAQlsJYCByczO9lMNSmaFtufZx2wcWihfTUNm2W5bah0M1xqfHDlfjdbWAN5m1lajllmr7M9dKou5dVIuHIbM2mq6YsjWnP73Y49t6nm2s3BuaDxS/ql/+28Hz1PHRQISkIAEJCCB5Qho1k6z1qzVrJ1WiGcXI6BZuxhqG5KABCQgAQnsTaDOuK0m4pyAMVWfvvvuG9MW83DbkjqsxxZMylvzszGAp8xaTOXkQn3i7LKcwqyF6Vhfam7/453vvC03NpM55ZPnFMOUdS0BCUhAAhKQwOkJaNZOM9as1aydVohnFyOgWbsYahuSgAQkIAEJ7E1gX7OW2ZsxIau5OmU0VuOS97FOLTFlW0Myx4deg/Dl7//+25y2xR9qOyYo/dp1CYt2Zm3lO/XuX2YQY3YTp30dQptL8mzZtOXcl4AEJCABCUhgGQKatdOcNWs1a6cV4tnFCGjWLobahiQgAQlIQAJ7E6hm4i4za/On+DFNY6LWP+Nvk6pmLa87mFq+/olP3LweoI2XdtJuYmBw3hqmzWzclNm2jgl6KrN2G1/6QH+3sUmemrXbRtTzEpCABCQggWUIaNZOc9as1aydVohnFyOgWbsYahuSgAQkIAEJ7E1gX7M2s0BjLGamLcfb98zW5FKP1xVMlat16vaQWRvzEpN1zntza7y6XePU43O2b43i5gfGwoXz22bMzmmHMslTs3YuMctJQAISkIAETktAs3aar2atZu20Qjy7GAHN2sVQ25AEJCABCUhgbwL7mLUYtJiPGK9Z6p/xT72CgHMxNjEbY/YmzrZ1a9bGuCRmOwt3W6z2fI3Vntu2nz4Ro12Sc3LcNsO2rd/uJ0/N2paM+xKQgAQkIIHzENCsneauWatZO60Qzy5GQLN2MdQ2JAEJSEACEtibwD5mbczH1hzNj2S1ryhok4vZGIMT05FYU++7TYy0TRsxjYlTjeOU3XVd89q1bvoyZNZiztYfPqMs+5Td9UfQyCt5atbuOkqWl4AEJCABCZyGgGbtNFfNWs3aaYV4djECmrWLobYhCUhAAhKQwN4EdjVr63tnW3O1/sl/e65N8Ou//uvPMzAxMTEgeZXB2OzTmLWUi0Ga9dc++MG2mZ32Y4ISb9clOQyZtYmFuTyUN8d2mWGcPKnnIgEJSEACEpDA+Qlo1k6PgWatZu20Qjy7GAHN2sVQ25AEJCABCUhgbwK7mrWZPTtmFMaMnPvuWGaW8i7X1Ivpyf7QrNOYtbVcnbU6VAc4aYO49VNnB8cEPZVZm0HCqKbdts/0Y8ykTl3WyZP6LhKQgAQkIAEJnJ+AZu30GGjWatZOK8SzixHQrF0MtQ1JQAISkIAE9iawq1kbg7GanLXxGIn7vJYAo5W4MWKJ0Zqv1awlF8xNPpSlHseGfrisxk181vWVDcmd47suiUmMXRaM27ZPQ/nXmMlTs7ZScVsCEpCABCRwPgKatdPsNWs1a6cV4tnFCGjWLobahiQgAQlIQAJ7E9jFrK2vOXjq277tjhmqGIf5xLjc9iqEsaQxaGO+VjOV8jE2aavOQsX0TLtf/g//4Xmh/+VrX7s1dmPwZp3CMUGXNGuH2p76gTbKJ0/N2tBzLQEJSEACEjgvAc3aaf6atZq10wrx7GIENGsXQ21DEpCABCQggb0J7GLWjs1OjUnarlujFUOVd7POMXHTVjtDN2ZtGxsAeUUDeezz/tqYoMc0a+kvn3aG8NCAxaCm71NL8tSsnaLkOQlIQAISkMByBDRrp1lr1mrWTivEs4sR0KxdDLUNSUACEpCABPYmMNesZRZqzFjMQmbZjn2qaVr/pJ8Zr8SYYzLGkGyN0ymzFgg5T705pnAFN9ZmLTO2XdnUMjFgeWfutiW5DxnRtW7ynMOx1nNbAhKQgAQkIIHTENCsneaqWatZO60Qzy5GQLN2MdQ2JAEJSEACEtibwFyzltmhMSTr6weGGsagjUlZf2iMP+9PjG1GaozL1pDM8TFDk9zSNnWrWTyUaz0WE5Qcd13SL2LUJfmS01Qu1QzfZuwmz5ZNbddtCUhAAhKQgASWI6BZO81as1azdlohnl2MgGbtYqhtSAISkIAEJLA3gblm7dP/7t/dGK1jJmmbQEzKp++++/YUZiUGI8YmawzgduHdspiVt+bnj/7oHUUSdyqP+m7dqXJ3BC7vgj2mWVtzgcWQ0U2fOZc+b3tlgmZtO3LuS0ACEpCABM5LQLN2mr9mrWbttEI8uxgBzdrFUNuQBCQgAQlIYG8Cc8xazMMYiUMG61Dj1aSss2gxK2PYEpNtXo/Ae1pZ88NlaasavWljjllL2RiaxKqzexNnaF3rkNe2T42RnInRLnVWMuXoV/qMmVz7PCfX5El+LhKQgAQkIAEJnJ+AZu30GGjWatZOK8SzixHQrF0MtQ1JQAISkIAE9iYwx6wd+7GvqUbrqxDaP+vHsOW9tpiNMTnrGvNyyPSkvblmbS1L7GoYj+UdE7TmMrVd46TcWN70ORxTtq4xbb/+iU/UkKPbyVOzdhSRJyQgAQlIQAKLEtCsncatWatZO60Qzy5GQLN2MdQ2JAEJSEACEtibAH+Cj5HIZ2yZU2ao7px6zMBl5mk+214BMCdmcqll2d621PJhMrWu8VJuWzucb/s8xb62ke2aZ465loAEJCABCUjgfAQ0a6fZa9Zq1k4rxLOLEdCsXQy1DUlAAhKQgAQkIAEJSEACEpCABCRwJgKatdPgNWs1a6cV4tnFCGjWLobahiQgAQlIQAISkIAEJCABCUhAAhI4EwHN2mnwmrWatdMK8exiBDRrF0NtQxKQgAQkIAEJSEACEpCABCQgAQmciYBm7TR4zVrN2mmFeHYxApq1i6G2IQlIQAISkIAEJCABCUhAAhKQgATORECzdhq8Zq1m7bRCPLsYAc3axVDbkAQkIAEJSEACEpCABCQgAQlIQAJnIqBZOw1es1azdlohnl2MgGbtYqhtSAISkIAEJCABCUhAAhKQgAQkIIEzEdCsnQavWatZO60Qzy5GQLN2MdQ2JAEJSEACEpCABCQgAQlIQAISkMCZCGjWToPXrNWsnVaIZxcjoFm7GGobkoAEJCABCUhAAhKQgAQkIAEJSOBMBDRrp8Fr1mrWTivEs4sR0KxdDLUNSUACEpCABCQgAQlIQAISkIAEJHAmApq10+A1azVrpxXi2cUIaNYuhtqGJCABCUhAAhKQgAQkIAEJSEACEjgTAc3aafCatZq10wrx7GIENGsXQ21DEpCABCQgAQlIQAISkIAEJCABCZyJgGbtNHjNWs3aaYV4djECmrWLobYhCUhAAhKQgAQkIAEJSEACEpCABM5EQLN2GrxmrWbttEI8uxgBzdrFUNuQBCQgAQlIQAISkIAEJCABCUhAAmcioFk7DV6zVrN2WiGeXYyAZu1iqG1IAhKQgAQkIAEJSEACEpCABCQggTMR0KydBq9Zq1k7rRDPLkZAs3Yx1DYkAQlIQAISkIAEJCABCUhAAhKQwJkIaNZOg9es1aydVohnFyOgWbsYahuSgAQkIAEJSEACEpCABCQgAQlI4EwENGunwWvWatZOK8SzixHQrF0MtQ1JQAISkIAEJCABCUhAAhKQgAQkcCYCmrXT4DVrNWunFeLZxQho1i6G2oYkIAEJSEACEpCABCQgAQlIQAISOBMBzdpp8Jq1mrXTCvHsYgQ0axdDbUMSkIAEJCABCUhAAhKQgAQkIAEJnImAZu00eM1azdpphXh2MQKatYuhtiEJSEACEpCABCQgAQlIQAISkIAEzkRAs3YavGatZu20Qjy7GAHN2sVQ25AEJCABCUhAAhKQgAQkIAEJSEACZyKgWTsNXrNWs3ZaIZ5djIBm7WKobUgCEpCABCQgAQlIQAISkIAEJCCBMxHQrJ0Gr1mrWTutEM8uRkCzdjHUNiQBCUhAAhKQgAQkIAEJSEACEpDAmQho1k6D16zVrJ1WiGcXI6BZuxhqG5KABCQgAQlIQAISkIAEJCABCUjgTAQ0a6fBa9Zq1k4rxLOLEdCsXQy1DUlAAhKQgAQkIAEJSEACEpCABCRwJgKatdPgNWs1a6cV4tnFCGjWLobahiQgAQlIQAISkIAEJCABCUhAAhI4EwHN2mnwmrWatdMK8exiBDRrF0O9taFP/f3vbH7p8V/zIwM1oAbUgBpQA2pADagBNaAG1IAa6EIDv/fUH259ll1LAc3a6ZHSrNWsnVaIZxcjoFm7GOqtDf2nB//vzfc/8IN+ZKAG1IAaUANqQA2oATWgBtSAGlADXWjgvQ/fs/VZdi0FNGunR0qzVrN2WiGeXYyAZu1iqLc2FLP2Xb/z3s3/85l7/MhADagBNaAG1IAaUANqQA2oATWgBs6igf/04P91YxZr1m59lL+YApq1mrUXI+a1d0Sztp8RjFn7+H9/op+kzEQCEpCABCQgAQlIQAISkIAEro4Ar+jjLz81a69n6DVrNWuvR+2d91Sztp8B0qztZyzMRAISkIAEJCABCUhAAhKQwDUT0Ky9vtHXrNWsvT7Vd9pjzdp+Bkaztp+xMBMJ9Ejgrrvu2vB5z3ves3N6L3nJS/auu3NjVuiawEc/+tEbLaClS18eeuih274++eSTZ+/um970ppt87r777uflQn6PPvro84574F8JTN3D4NbD+K5xrMIVbbpIQAISaAlo1rZELn9fs1az9vJVvpIeatb2M1Catf2MhZlI4FACMWVe+MIXHhrqtr5m7S2KrjaqIZgxmru+9957F++LZu3iyG8bzH2hNWsxGqOZ+++//7b8uTaikV0MvF2vg11iwyGmYvtl1Tve8Y4bdi996Us3X/3qV8+FbLXthuuu47HaDpu4BCSwEwHN2p1wXURhzVrN2osQ8iV0QrO2n1HUrO1nLMxEAocQwDCI8cIaE+MYS2K2ZsWc2Hkg36funPjXXGZXkyrjyPpSzFpmNqKtpfXFtZZ2h2ZW1rEZOr+0bsfM2ponRukxFvobNruamGsya1/3utfd3m/bfp5Ll1PjlzE51r8LU23NOZd/GzRr59CyjASuj4Bm7fWNuWatZu31qb7THmvW9jMwmrX9jIWZSOAQAjE6Ysq1s+j2jZ14+xhieSDfp+6++V5TPYyx9lMNuPe///3PO0/51lxaglnV57HaO0XMObnBMNfFkPlVx4Cy517GzFryguE999xztBQP6XvGcxcDr7bH7OD2emj3d9X+2D2MuNzXhsY//UAjvSzRay/34nDdZax7YWkeEpDA6Qlo1p6ecW8taNZq1vamyavNR7O2n6HXrO1nLMxEAocQwJzlgfwVr3jFrZG0qzEx1P4hD/l5IO/FIBjq36Udw0TKmJ1jBu0Yz1MYWKeIOZZ/PV4ZD5l11UCk7LmXKbP22Lkd0veM5y4GXm1vaCwO7d8+97D0g+uwlyX3hF7uxeG6y1j3wtI8JCCB0xPQrD09495a0KzVrO1Nk1ebj2ZtP0OvWdvPWJiJBPYlUM0jtvMgvMuDOcYuJgOfanrMecgfq7tPHpUBfak57Ws+E4dPFuLQx/R1btyxfiYua8q07dXzbM89PzevGp/YGbO5Zi3thAezE3f5wSnKwpF6VTc1J7Ypk7zac+xXbtv6HX7MHE7MHJuqOzfXofw4ljboZ9qFcY6nXj3PORbyglE0l7Lb1ofmTPwps7bNfSgfypB3ch9inDj0MWzgwPGh8kPtRCO7GHiVNdv7LuRY+5g4Y/cwyqfPKZv9XXWZ+u2aNqIZ1sTfZak5Zkx4127yHIvF+cqCOHOWXfIN17GxTo679nlOnpaRgAT6J6BZ2/8YHTtDzVrN2mNrynh7EtCs3RPcCapp1p4AqiElsDCB1ozBpOXhnFm22xYesOv7F/NQzw/nYBRlf8j4pW5+aCflWFMXcyEP5EN1p/LCdMlM4RqXbfo61zxIG4lBXIwUfoAtx7KeyhHDYCgf+tnWq+bRkNFQmW47v4/5RMz0aZtZC0fyH+KRMQzDdj3GkXpD7caII7d2IY/MCKf+EJdaJ/0bWg+ZP7vmWtuq20MaSA7knaVqgPGeukZSp11Tb6i9bePSxmG/vT+kTNXKkNbGcqDPre5zrYdHXdOPOUs0MjSGY/Ur66E+jNXL8X3vYfSfPtZxr31ut3fpE+MyNPbE5F697fpI35Jjm0v22zhT403+Y/fdqXyp17ZDftHLEBfuH8nx3e9+d7rjWgISuCICmrVXNNj/f1c1azVrr0/1nfZYs7afgdGs7WcszEQC+xLAMODhFrODhYfqPOxuMzBiklGeODw8xyioJl5rztBOrUvZWjftsx6qO9bXOjMvMdu4c82ftJFcar/amJSh7XbBaAhf8sEsoW6Otf2DfbgNmZZ11h3b7RLDivj7LOSb/g61X2PW8YMN/aJ/tW9D+qkmUMaordf2Lf0it7rAK3kQC8No20KufFKPmDnWvn91Tq5z9YnpmnbCmBw4Brss1UAMS8q1mqO/Q0bW0DXQ8h0al7Tfrmk3jOq5qpU2Huei44wxcdIf4pFTFrbbMQmbt7/97Sk2uY5GKsvJCpvNzWzujEXbh211OV81lH7Sj8TMutVIdFWv02ijxsyxVpdjucE9jJMPPOCbXDg/ZpzWuPBM+7VujtUYQ5qjXcqmLtvtUvOlHGXaekP5jpm11ah94xvf2DbnvgQkcCUENGuvZKBLNzVrNWuLHNw8JwHN2nPSv7Ntzdo7ebgngbUReOCBB24fpnlwzpKHbAymsSWGAw/Z7QwmYlXToTUrYqzsU3csH47HqMCcqGYC58gxxsEuxkzqjOUaU2rIjEg+rCvfqXzCfsh0qkyH2ospM1R3ilvOkWP6O2XW1vFrWRIj/W5zZEwSv82Rc+k7TOv41faSK+v0l5hzjNpadyxmytTzQ4YhZlD60jJIjKF1ZTxUj2OJC4f2S4B6vr2uKnvyqwzZjn4Yn7kL40Q+7VhO9SPjSDs1B9qcug5r34i/y5LxanU1FaO2x/YuS9qDza73v9w7h8ahxt0lH8pW7i2/2tdWN9vaiR7H6uV63/W+iwmd2LvkO2TWcv3nXkweLhKQwPUS0Ky9vrHXrNWsvT7Vd9pjzdp+Bkaztp+xMBMJ7EMgZlf7cJsZnK1pVtvIA/qYOVLNnPYhP3VbAyjxqZsH77ZuyrTr/BkuMdsH/5TdNSb1YiaM9TN/pk7suowZ4bVMzJVqilf2tWx4wi79aI2wcMXw2WdJG/R5yqzNLNHWpEqb6QNxao7VMBoyVzkW3tWkHDKwYiJSfp/+DsVM/qxjbLIeW1JmTMdD9SrjIYOwMhqbURndtNdtmKCDyj15bGs75eo6Mds+TsXKGLYzpBM3+q2651ztO/F3WTKeY9fpUKzaHjnBbexT9UisXGstl7QD//SzvYexDyNitEv6wfldF3Lh0+aaOJwjbqubnB9bZzzbflC+3neHrmnKhEM73smH9dAS7bWcWrOWdtMG1+SQ9ofie0wCErhMApq1lzmuU73SrNWsndKH5xYkoFm7IOwtTWnWbgHkaQl0TKCaLa3ZVY2GIcOlmmpDhlO6PfSQX+uOmQrUzwP5kEGQ+LuuE3MXQyd9GDMvx8yVGA1TZh/mBfGrGQH7tFnNj7RD3JgcdWwq133NiqqJsf7OYZ5c6Uc13Wr8Xca1xqP9cCM+5/ZZ2pg1Rs1zKv6YKV1jtds19tC1Uw3Eyq7GGdNWDMTWFKt1YzBPlanl01ZrqE31I8YZdXdZ5vR9LF7Gc5c2a3u55sbW9Xqo19qUPnK/abXOPu3U6z79Sj84f+xlbCy3tRMmbT+21cv53K/asUk+6GVM64lR1+FKfepF96z3vffV+G5LQALrJqBZu+7x2yd7zVrN2n10Y50TENCsPQHUPUNq1u4JzmoS6IBATIEhw4D08oDdmjScq7NGpx6Ohx7ya91qRrZI8kC+j0FATvSPuphSPNTz2cdESh+qWVNzDcfWXIkpBj/KDH1iVozVrWZsxgODKW3WsRk6VvOcs10NuLH+tnHIhzxhHc7JlX61Jkw9xww/2mnLtG2kb8SjHdZ8xmb2tvWH9mvM9nzV6JS+K6+pLx5q/FoHdu1SDcQxLtFNvXZrXM7Tv6FP+M+dXZm2qtbIubbX9qP+eTs5oo+paz0M5vQ9Zdt1xpN85y61PXJmf+xTdVD1MdWvsXtYNFzHLzmnH+h734Vc6Qfc6/2P9ojbjuW2dnK9kffUMnbfTbvt2FT+lCFXjm1bwpV+JPauhu+2NjwvAQmsl4Bm7XrHbt/MNWs1a/fVjvWOTECz9shADwinWXsAPKtK4MwE8pDbPkAnrfog3ZpGcw2FoYf8uXXzQL7NIEi+rDELeOBPu2PrsT7XWNlOjDHzcqw/yT/1t63THuuYOTFVYowxZiz0E3OCD9ssmG+0UQ3emxM7/CftEGesvwmHPmJIT/Wt1Q75wr+tQ9843panvcq41guf5LTLusZs602da8smn228Uq8yHjKmpq67xAi/6IHjtV5ymlrPZZe22vLb+lHfTZs80CvxxgzO2ochHaT/Q+uMGfHnLrU9tucuaYt+TS25B7T3sFzfdfwSZ27slG/XXP9wDvOhdTuWbYx2PzHafqRc7rvb2h0aG77kgEPayJocx66pcE3ZrHcZw+TuWgISuDwCmrWXN6bbeqRZq1m7TSOeX4iAZu1CoGc0o1k7A5JFJNAhAcySPODOWbcP6XMNhcSu9efWzQN5rbsNJQ/4tIlpgFmEEYDpk09iDpkGY7HThzHjYKw/aQtDk/a2fWr7MZHoB0vaqHmnrzEoYpSMGWE1/th2NeDG+kvd5Acb8iA/2g1nDKNw49jQwnFmM1I/uadO23b6n/PpO/v7mtM1Zpvf1Lm2bHJqc27LZb8yztjlHOvKdowdOqDdavbVehj32/Q2d1Zy2oJ5Xbb1g7KUgSX5tIbc0HVd+zDW95pD3c6Y1Wuknh/aru2xPXdJW4xBviwZqpt7QNtX9tvxS/0aO8fmrhOX2HBo73/5Qqcdy23xicen7UfqJe7YfTdf6kyNDblyPmXTJvst43ClDLpKHbZ31U364FoCErgcApq1lzOWc3uiWatZO1crljsxAc3aEwPeIbxm7Q6wLCqBjgjwUJyH4TnrmIbpQjUUph6OE7s+5Nc/IZ6qmwfyWjftD61r3DHDMjGnTIM2dvowZsZVFrVu2mKm7z5LDExMpJghGBpZYojSl5jv1bxLuV3WjMe2/hIvZil5DS2VydQY17r0sxp6tV6NF5OxzqDexWhLmzVmjmVdtVTzyPmswx1mc3OojIfqcCxjMNZ2rt863jVu1Uly3XedtlqDr7Y31I+h9uCVePSxvabm9H0oLscynsSfu9T25vaB2HP1kXtAew9jn/7X8UvO6Qfnd1nqeIz9MF3Yt2O5rZ3ose0H9SrDMd3lfjF3bOhLnZnd5huu8KMsn9wv27Lb+uZ5CUjg8gho1l7emG7rkWatZu02jXh+IQKatQuBntGMZu0MSBaRQIcEYoptMxLrg3g1M6oxMPaATreHHvJr3dasqajyQD5kENRy2Z4yQFImMeeaBtRLH8ZyHTNXYrAy62ufJcYK/YoRUeMw24zcOFeN21pm1+25Y7MLE2JmQSvwqlrKOdbpE/HrjNkhxpSNjlm3s+9q3KHtoZgpV/MYG3fK1hi1n4kztK6MhzjUa24sZrRBv+sSnWy7rmudbdtpqzXBxvqBIQsXPmNLZkK2Zv+cvo/FzFjscm3X9obGYqytufrI/aa9h03dq9IProFdljkG8thYbmsn13vbD+qlL2hvbBkya9FPdDJ27eYLmTZ2uNaxru9JrveOsZw8LgEJXC4BzdrLHduxnmnWataOacPjCxPQrF0Y+ERzmrUTcDwlgU4JVDNgzAyqqcdYac2aseOpW82c9iE/D+9tzDl1U6ZdV9Ng6OG/5lMf8ts47X6MijHTrvKsdasRNGVoj51L3BhwrbFFW+EY03IsVs1rarsyGusv9cOkHdfEjilEuaqxHG9NxtRjnf5WwyUsiFcXYqf8mJZq+bo9FjNlwnbMbEdj4b5L4G8XlgAAIABJREFU25Xx0HhV3VR2yYv1GMdqbo3V5fjU2NZ2alttH2s/qtFZuY7lELZtzDl9b/PLftrd5dqu7dU+JObUeqwPqVP5tNdJ7lVD10H60Wo9ccfWtd5QX8hnH73S3tT1nr5QZpf7buVTr/XaP46n7Xp8yKzlfPRPnSEGNYbbEpDA5RLQrL3csR3rmWatZu2YNjy+MAHN2oWBTzSnWTsBx1MS6JTANpOhTTsP45hi9WG8mgOUqed4UI4xwIMz5+vC+TyEY65UU2db3Rqnbk/FxBSLqUe7uxg6yXPM4Kocaj5shzVtt/Xpc84P5QPPtM2adtqlmhmUqWPQlp2zXw2UNt9aP3nTr2o40n5mFCf3dmxzvNUM8aM1ytR6U4z3nVFXZyKinXapeqJPNZ+2n/VcG6fdr+M6NAO2tjsWF73AqDX7KB+dc66tT+xcl0N9bnNlP20x5nUhdsayxqJ/yQGjeyiH1Gs1XV8rMfan/DWHuh2NDF1LtVzdrqzRO7lOfehbllqXNms/ORfO9LW9/0Xn7fgRO/2gXuWadsfWVVct9zafsS8gxmKPmaOU34VDOza5j8Ch7Ss8w7DV3lg+MEgd1nW8xvrmcQlI4PIIaNZe3phu65FmrWbtNo14fiECmrULgZ7RjGbtDEgWkUBHBHgAHjNKxtKsJkA7A+qNb3zjbTzi8oBcH5Zj2rRmBW3VWVBtXepN1R3LNQ//6SO5JA7r5DY0S3UsZmKNmZfVXGljVMMhfSRHzJLEJadq9NQYtT9DZerYtIZGjTN3u+pjrL/EqgYN/ahs2a/9w4CrS30XJfXIm0/Gifp5L23qTTGmTNVS215itGvY1TYZh1YX1QgmL/Kkb7Ueue26EId4fGiXT5bKdmjMKRcDtdZLffKp+ZEv7VE2bXLdzl3SFjHqUrXSGm11vGhzKAeODS01T7bHyrV102ZrCLbl6n5lHTZT65ZB1TL1yDf5MwbZbu9/U2btHF3WPtTtoXyqFpIPx3ZZ6vWVflVtDv07kHZTHj4tP2Ikp/CjDGOeceB8bYu8x8xazlE2bbft7dJny0pAAusloFm73rHbN3PNWs3afbVjvSMT0Kw9MtADwmnWHgDPqhI4A4GYBDwItw/AU+nw0Dv0sE0dDIL6wJ1yxM9Dd2tWpK2xuhhuaXOsbmK0a4yFPKzngZ9Y5BPTgfOYInOWxBgzL2MSUW5ooV0MpJYROZDPVB4ZrynTIZxaI30ol23HyHVbfxODMcr4pg59wuCkTzk2NH4wa+tSnmNDMyq3Maa98GU9xTT5syZu6tH+EOeqxfQpZVuTssae2oZzbZd4WaqBSLmhJQYqMYaWaK7myzbjwzW3y5K2WjZVK0McOB9t1jySw9gYwbuyGetj24doZEmzlhz2uYfluh7r2xxdtv3PPtdP5Qd7xoExqjPx4Tx3YSzbmByrCxwY2zrWtEs7U/dd4jBmbV32qd+2Q5tTZi3n65csx7gv1n66LQEJ9E9As7b/MTp2hpq1mrXH1pTx9iSgWbsnuBNU06w9AVRDSmClBDADeDAfM2GmukU96u9TdyzuKWKOtTX3eHLCgDhmX+e2f4py9CNjv2v81KX+kCmza7x9yyf/qTFJrvtqfCg3Yh0zXttGcj4n331zmDMmtb/7mLW1/qHbubanNLRLG+G2rz6SzzGvqzkxU2YfDqnLep/6u/C1rAQkcLkENGsvd2zHeqZZq1k7pg2PL0xAs3Zh4BPNadZOwPGUBCQgAQlIQAKLEDi3WbtIJ21EAhKQgAS2EtCs3Yro4gpo1mrWXpyo19ohzdp+Rk6ztp+xMBMJSEACEpDAtRLQrL3WkbffEpCABO4koFl7J49r2NOs1ay9Bp2voo+atf0Mk2ZtP2NhJhKQgAQkIIFrJcCfzvMu2Pvvv/9aEdhvCUhAAhLYbDaatdcnA81azdrrU32nPdas7WdgNGv7GQszkYAEJCABCUhAAhKQgAQkcM0ENGuvb/Q1azVrr0/1nfZYs7afgdGs7WcszEQCEpCABCQgAQlIQAISkMA1E9Csvb7R16zVrL0+1XfaY83afgZGs7afsTATCUhAAhKQgAQk0AOBb3zjG5tnn31285WvfGXz5S9/2c+FMWBcn3nmmQ3j7CKB3gho1vY2IqfPR7NWs/b0KrOFWQQ0a2dhWqSQZu0imG1EAhKQgAQkIAEJdEsA0w7z7oknnth87nOf2zz88MN+roQB4/3444/fGPLPPfdctxo1seshoFl7PWOdnmrWatZGC67PTECz9swDUJrXrC0w3JSABCQgAQlIQAJXRABz7gtf+MLmkUce0Zy9EnN2mxGPYY9x7yKBcxHQrD0X+fO1q1mrWXs+9dnyHQQ0a+/AcdYdzdqz4rdxCUhAAhKQgAQksDgBZtJi0m4z7jx/vTOMMW2dabv4pWmDm81Gs/b6ZKBZq1l7farvtMeatf0MjGZtP2NhJhKQgAQkIAEJSODUBHgHrTNpr9eE3dWA/+IXv3hqSRpfAncQ0Ky9A8dV7GjWatZehdDX0EnN2n5GSbO2n7EwEwlIQAISkIAEJHBKAs6m1aTd1ayl/KOPPuos21NemMa+g4Bm7R04rmJHs1az9iqEvoZOatb2M0qatf2MhZlIQAISkIAEJCCBUxDgtQcYbvsYddbR4EUD/BCZr0U4xdVpzJaAZm1L5PL3NWs1ay9f5SvpoWZtPwOlWdvPWJiJBE5NgD99feyxx/zIQA2ogavUwKnvsb3G16jVbD2W4a5h2+tVfll5adZe1njO6Y1mrWbtHJ1YZgECmrULQJ7ZhGbtTFAWk8AFEHjqqaecVeWvfasBNXC1GriA2/heXXj88cevdsyPZVIa55uGN4YtXwC4SOBUBDRrT0W237iatZq1/arzyjLTrO1nwDVr+xkLM5HAqQlo1n7zYdMHb1mogevTwKnvsT3G58eh1Pr1af3UY85f6bhI4FQENGtPRbbfuJq1mrX9qvPKMtOs7WfANWv7GQszkcCpCWjW+sB+6gd446uxnjVw6ntsb/GfffZZjVpn0p9MA//0T//Um+TN50IIaNZeyEDu0A3NWs3aHeRi0VMS0Kw9Jd3dYmvW7sbL0hJYMwHNWo20no00c1Ofp9bAmu/f++TOn6ufmqnxr/e6feSRR/zBsX0uTOtsJaBZuxXRxRXQrNWsvThRr7VDmrX9jJxmbT9jYSYSODUBzdrrfajWUHHs1cDDp77FdhWfH5R0zL3uT62BJ554oivdm8xlENCsvYxx3KUXmrWatbvoxbInJKBZe0K4O4bWrN0RmMUlsGICmrU+uJ/6wd34aqxnDaz49r1z6s6q9Vpc6lp87rnndtanFSQwRUCzdorOZZ7TrNWsvUxlr7BXmrX9DJpmbT9jYSYSODUBzVof3pd6eLcdtdajBk59j+0lvrNqvf6WvP74fwsXCRyTgGbtMWmuI5ZmrWbtOpR6BVlq1vYzyJq1/YyFmUjg1AQ0a32AX/IB3rbUW28aOPU9tpf4jz32mK9A8IfFFtMA7651kcAxCWjWHpPmOmJp1mrWrkOpV5ClZm0/g6xZ289YmIkETk1As1bzrDfzzHzU5JIaOPU9tof43/jGNxYz6ZYcu2ts673vfe/mAx/4wOh4fvzjH9988pOfHD2/JLNnnnmmB/mbw4UQ0Ky9kIHcoRuatZq1O8jFoqckoFl7Srq7xdas3Y2XpSWwZgKatRpjSz6825Z6600Da75/z839K1/5Shfm3S5j/853vnPzvve9b2ve73rXuzYvetGLRsu9+MUv3hBrl7a3lf3Upz61ectb3rJhPVT2Na95zei5ofJzj2HU0lcMWT7kkLrsc47+vu1tb7s9nvPnWH/+85+fK1HLSWArAc3arYguroBmrWbtxYl6rR3SrO1n5DRr+xkLM5HAqQn0bNYyO+gNb3hDFw+dSz3oMmNqjkGxVD62o7l66Ro49T22h/iYZmsbxxe84AUbPtvyPsSsfeUrX3ljem5roz1/3333be66667Buhi4r3rVqwbPtXEwVd/85jdv7WPqxahl/6Mf/ehNOznHv5W0m/0e1rx6w0UCxyKgWXsskuuJo1mrWbsetV54ppq1/QywZm0/Y2EmEjg1gV7NWoxaHkyrWdv+eSdlMsNoaD31p6AYomOzos75kMsDOCbA3Jlg6fc5c9617eQ8tM6Ysd7HtMaswIDZlhO6YgbatnKe392s5gsH2DILcA38Tn2P7SH+2t5Xy/2P6xizduhP/rk/cK/kHjJk1nI+9YZm1nKeutxrKcd+tFpj51i7njJrKUvsWmcoJmW4X801dmFSzdj0Ie3tEqvmdspt31vbw9V/OTlo1l7OWM7tiWatZu1crVjuxAQ0a08MeIfwmrU7wLKoBFZOoFez9rWvfe0df9qah2P+vDQPlzyk87A99ql/Ipo6rDEBqdPDn4piOPCp+ZEXJkX7wF/LZBtDg75k/5xrTI9tOWccx8Ys44uZSpmWzbb+wQOTf1s59NULt5orDHftc60/ZxuTh3ZO9WUFsWE79wuHOTmfsszKb+Gz0n/00Ue3XhOnZLxrbK5j9MM9vBqUxOEekz/3Z/2yl73sjmueOtw/X/7yl98cZ7vVItcYJi46ZZ1/CyiXuqzrl4W1D7mPjd3viJtzYzFjRtMOOdT4Q9thknPVpOZ+Rpy5sRJjiTXvS3aRwDEIaNYeg+K6YmjWatauS7EXnK1mbT+Dq1nbz1iYiQROTaBHszZmTx52eaDMw3HMPI7FrH37299+Yz5Rr35q/fpQiknFA/3Y+Vr21Ns8pPMQ3rbDsaHjQ+V6MR3JY8wgT94ZR8yFOlbZzpiwxkDBWEzdOWuYrdmshWHV+Jw+71oG1rTDete6c8onfmuQzal7jjKnvsf2EJ8Zjudgu0+bXPvokzWmKgZk/WKBa5z7R2JjqOaaj/bqfYT6Y1pMO8RKu/myhH3iDt3Tch9LO8kl6xqXGGmf8uSTa49+zL3eaz3aqWYt+7vESp5LrJ977rkeLgFzuAACmrUXMIg7dkGzVrN2R8lY/FQENGtPRXb3uJq1uzOzhgTWSqBHs3bIqMzDcX2wjVmbB99jPXjWPy+dikm5Xc3ENt6YWYtRyQN/NSnauuzDinJD5zg2N0dMhEP7Qh5DxkbNLeO4rVytM7Q9ZpJMmbW1jxgbU9yG2tx2bC7rqXLkVDXetjlVt5Yd40OZGFpT181U/bQzlkvix6BK+V7Xa71375J3r+yH8sJ8rbNpuaYz85XyXCMxVNmvpiX3FcrXuNxjx7RIrGidNtq6Q8eInftY6tb22K5xiUl/as4pP9dg5d+BGpP6td/sz42Vtpdaa9bucqVadoqAZu0Uncs8p1mrWXuZyl5hrzRr+xk0zdp+xsJMJHBqAr2ZtTz88lBaH855qMzDcTWy9jVrMZN4gM87NYnNPg/6GAXMYCIHZkTV96amHg/+PIBThg/b9aGdOsRrH87pE8cpSztsJwbbtc95ON9maiaPPHiP5Uhfaj7Jkb7w58LJgwf+2peac9pgjflA29lOX2DHdm2r1ss4buvXULuYg9TL+LBu45ATfa1tkkvbR/Knz7XcvtswzzgQk7Yqw7CeKlf1EIbRJ3nRh9pGO5513DlHHhxr+8TYtGOVMvBl/MOXGK0eKEtelSfttdcJdatBRv60Sz/TXi/rU99je4jfC+s5eaAnrk+ubT7ong91c/+o11c1LYcMS3RXtVhzQKeJRVv13xfK1di13lAe9XyNS3zy4pqhb/WeNZRvjZPtofba3ObGSsyl1pq1PdwBLiMHzdrLGMddeqFZq1m7i14se0ICmrUnhLtjaM3aHYFZXAIrJtCbWYvpw4NuazTlYbU+TB9i1lYzKbE5xgMvOfBwz4M1xlVmt5ITZWISso+pyDHKptxYXjykU5aHd8wr6mMk8BDPdkyDPERzLiZFjrXrGHg5nhxpB2MsfSFn3u2YcsmR4/SBepSnXm2z5py6rClDn9lOX6gLP2Jh/NXy2Q7raljkXF0PtUvsyj5laqyaF/FgSh1ypc/kRhxy5VPb3Geb+GEGa+K3uglrypErZaKbsK4MOVYZpg+MX9pAM/QrmqF8+kT/aCfnar9q23l9SM4Tv+qBa4D95Ei59LfNhbaJTZnkEoOMvhGHOmO6SA7nWK/49j079XNw3adNtMP1g37rp+oLLUVrtMH1lXsR11XVK+fnmrXURaM176F4nM99bOga4zz55lzNlWPkny9iuFbrv2m17XabmFxLOV77zbFdYiXGEmvN2tmXqQW3ENCs3QLoAk9r1mrWXqCs19klzdp+xk2ztp+xMBMJnJpAb2YtD+g8lMb4zMNkHo7rg21MsJhT9eEeUyt123VrJiU2cWrZGGp5QE492qnlknPMqeRVH9Ipn3J5iOfYlCFLPjzY17babYwJeOV4cmxnMMaITdvJseWUcsl9KGfaot0YJGmbPFo2OZd1WFOfsvUTfpRt202/ahnKhVH00ubFefJKv5NHyy3Hd1237VGftiqLsEZPNT6zB9vxpV7VOOXTRjU66W9tI3y28SdeymaMOUY82o2JlDyjh/DNuOSaSF10nLYTn7GCBX1EKzX/xO9hfep7bA/xe+A8JweuVz5tWa6B3NPY5tqhDJp69atffXsvQpdcF9Fx1WIbk33K5jpA42g11ynaRbftPYd6uY9Rl3L5ROPE5VhiJgbniZn86FP6MpRfPdaaztxX6j0Ybu29o9Y/17ZmbQ93gMvIQbP2MsZxl15o1mrW7qIXy56QgGbtCeHuGFqzdkdgFpfAign0ZtbGXGsfLPNwXB9GY4LxENt+Xv/61z/vgT8x2wf4xI7ZlHIYmfVhvq2XcjyQUy5mQvKKCZByMbp4iM8x8sZ8yH5dj7GoZahL2zk2lmPb9liOqR/Doq2Xdmi3GgUcJ4+WYcpnHdaYIu2YVdOibTemIWZMjBHWzA6l3ZiHbV7MQB3iu40tOqufOmbpS8adWDUntulb+jPGeigH+lI1Hq7Eatuofcu4tZpLrnW9rSztwJNyyZFjxEhd8gnzGruWYQzRCJ/Ub8v2sL/i2/fs1HvgvC0HNIL+hzTMMe4ZXHOUQ1OU5RharPcidMdxzud+ELO0zSH3ldy3aIdY1OeT+2BbL/cx2qifXLsci+b5dyQxOZ5/J4iZ64njbRvtPjnWutxXar+5VtN+W/ec+5q1sy9TC24hoFm7BdAFntas1ay9QFmvs0uatf2Mm2ZtP2NhJhI4NYFLMGuHHu6nHk7zgJwH+Dx454E9dVMu8bOfeinHmoftPCiPmXPErw/x1OvNrG1ZDOVM3jFBWgYtw3qe7TZ+ez77bbsxDeE39MkYtXlV0zSxWSdePVa3iVM/Q8Ykx4ZyyTHqE3NMD0M5UDc6om54JWa7jlkTbYZD7Uu7PVaW/pAzbWBUwS6mV4wnYjE2tEs51vSjnk/85IqpjMnW5tHL/qnvsT3E74X1MfPILNaxmNvOp95QuaFjKb/veirm1Lm0xzXE9dbztZRc61qztoc7wGXkoFl7GeO4Sy80azVrd9GLZU9IQLP2hHB3DK1ZuyMwi0tgxQQ0a79piLVGY0ynGGDZ16w9n1nLGAx9YnZgNsbAxDAYM8OHjNJqMMzZjpFKrKGcYvAew6zd1ka0yXpb7kNlM1uRd3ZW47U1zWts4lTjNm0nPuPAzERM2zojsMboYXvFt+/ZqffA2Rwe3nptbmPE9dTztTSUv2bt7MvUglsIaNZuAXSBpzVrNWsvUNbr7JJmbT/jplnbz1iYiQROTaA3szbmTjWMeACMMVZnHY6ZYEMPjPVYzKSYrom9r1mbGZapn9cn5L2EaXvI+BozE6mD8dj+4E1iZZ2ZkNlv+5bjbdtj7GCCuZbcx8ajNUVph3phkHbb9Rjrtlybb/ZjgLbls9/mxT6zQ3M+62OYtcxwI3Zed5DY7XqM9VAOMKwaJxZt0I82bt3PuLOux4e2h8pGs239cM/1SDk+NS4cat6Jn+sLc4nz2a91e9g+9T22h/g9cDaHw81aGHJNbrsP9sRas7aHO8Bl5KBZexnjuEsvNGs1a3fRi2VPSECz9oRwdwx9CrP20Ucf3bznPe/ZMROLXzOBN73pTZsnn3zymhEs0vfezNoYPTEL89AZk68aWWMmWOqMrdNGzKPE5iG41kk51hzPfs2B4/zADWZUDK3EqzOgOMdMw1qOupi1Y4Ysfz6+zQjExCNm8k6O6VuOt6Zb2NUcmZ1KjnzSl8SrbNIXyiU+a/Ko8eq5bIdNjZdzdd3mS5vEb/+knvxglD8Nbs1aOFCvtpf8K7fa9i7bMVwrbzhyPKZmWJNrjZ269diQ+RsWGOcpSxuwThsZp7aNlK/rlK0551gdPwyhVrOch1v0QdyMTeomVo3PuNG3Wq/mdM7tRW60Z27knHxt+zgm7Vo5atae+eK/oOY1ay9oMGd2RbNWs3amVCx2agKatacmPD/+sc1aDLcXvvCFm3e/+9035hsPgNs+xzTpiMXD5SFm8UMPPbR5//vffxPj/vvv10ScL6e9S6KXl770pbLem+C8ir2ZtZmtWM01HlJj8lWjdMwE2/ZQ25pJid22mXKsiZn9GJqYhBhQrRlI2ZiorGNUtcZXW66acTHAquE11K+0k3PJsa0Xwy9mWdiRP3nVvtQ8GI/knb7Q39RLu21fWrM95cZY53zWbb4czyzf5AvXlj05cj5xWMcUpXw7FrXcPtstn3Akh5Z1dJR2klf2WWc8WYchbaSvHOcagD+ftJFxb9uosbOda4wciZsYaTucYEsZ1inDOscoP9Tf5FI1SD3yJTbtJ5ce1vPulOsu1QPnnnPIa1R6znGtuWnWrvve0VP2mrU9jcYyuWjWatYuozRb2UpAs3YrosUKHNusxXDjF7tZMGl58Nv2uffee4/W30PMWurefffdN/liONMXcmeNaeuyHwHYzeEHez4upyPQm1nLAykz9DB26sMpBg8GXmYSco77CcdiJNXyU9uUpx71KZfYrdGVcolfTSiMKEwzPm29tJ0y9IcyfGi3mlVsc76NQ91qkiVmu6YcMXM8OadvOd62HbOW422eqZM1MTFKyTF9YRyqqUtZyqUvbfuJNcY657Nu883x9K/mknOs6UubV47XOolf6x6yTbvpO+1X82dMpzCsY0f7Uwyn2ggX1nP6QU7ky6fqsdVCcq/jSfmUg2nb3+RS65BTmLfH5+R7yjKnu7v2E/mU/C4hNl+c9KbLS+BKHzRr+7kPrD0Tzdq1j+Du+WvWatburhprnISAZu1JsO4V9Jhm7T333DM5O5L/OcaQYObqqZZDzFpMWUzamh/xXvGKV9wcZ9tldwIYsLDdtvD6DPRxTPN+W5vXdr5Hsxazh3HH3OnpgZV8yAuj6tR5MXuxNfKO2WY1a48Z11jX/SfPaxz/a7jnr2Vcco89db58mVL/feHfHF5HU7+4OHUO1xJfs/Ya7jDL9FGzdhnOPbWiWatZ25MerzoXzdp+hv+YZi2GHO8eHVvmmLUYopilGHdjy1e/+tWb85Rjuy5jZi3Hp8zW5Ma6XWgH02bo1Qq0P5UvbSZH+tTmXPvStsu55LytndSlPG2kXo6zrvHYTz61TLudMtRtlzl9o0zM2lq+jZV9Z9eGxGnWPZq1PMQyWw/Dcu5MwSUefGMknNqsxaSl73V25rH7p1mrqXpsTa013mnurH1FXcvY5B576nyH2uG+e8ovyE7dp17ja9b2dS9YczaatWsevf1y16zVrN1POdY6OgHN2qMj3TvgsczaGJqsx5YYokNlYuphiuaD+duatrxLltmvKdOaqMRpjzFTk2NvfOMbx1K7MRSJO7a87nWvu329A2UwLzlW8xjKl/MY2JiQtSzGL3nVvrT1KUMd1m05+lkXOLVttD/aFf60S1vJp22XuMSrZZJH2gznd7zjHc9rlzFiSXtph/WUmU8d6lKu7V/adX0YgV7NWh48+dNU3ovZy0NoHvBPadYSewmTWrNWs7aX6+rceRx2B11H7XMzntt+7rEpz5d2/H8DJiqv3Kj3XsryKhGO5RUn9cs96tSZspSjDp+8L5oyqcNxXr9T6yQP1/vfLzVr13GPWEOWmrVrGKXj5qhZq1l7XEUZbW8CmrV7ozt6xWOZtTEWh2ZgJumYd0NmLa8awBzkHDFiFnIsSwxCTFK2KcMPU2Hu5U/nU4Z8WCjDeepMLS95yUtuTMepMvUc8TBQefVDciFXjrGfhbb55AfX0i+OUZb+Up41+7W/YRoulKM96mLMZuE4ZWo5WBOvlgt/jueH01i35RKPMSFf9sc4kwvvKKZM+kY8xpAPxzO2bE/pg/5kvDKe6aPr4xDo2azlAZkH6J4elHmwP+WMV67JmAen7Dd9OHVfTpm/sfc3T2R3J7vj3En7jrKWMed+z/9DJN8Xv/jFN19eYapi3GKmsuY8x9jnvct8+cSP1/FFV+oSp95L+eKPOtxjqcN56tUyxOvt35z0Z61rzdq+7w1ryk6zdk2jdZxcNWs1a4+jJKMcTECz9mCERwtwLLM25uVUYjELh8xajMn2eMxKTD6WsfrM1uQcC2X5n3LqYvxhHGIWbjMJdzFryZM2ME7rkraZbZqFcq1R/MADD9zUzwzUlKUe5dPf9J9+1CXHw4v+13op25YLv7BKudRv95NHjmP8xvxNX9uZsmkjuVGXOtWETryhNeNEXyrDoXIe249A72btWh9QzftOQ0we8uhVA/vdOddVq1f2bV5DZm3MWcpisjKLlm2M1/qXF8yIrWYr/99QjdiYtdRt20keGL519m6Ou97//qVZu657Rc/Zatb2PDqnyU2zVrP2NMoy6s4ENGt3RnayCscya+cYckNGXtsxTD7K8cHkrCZkZl1i/DEjdMiArSZiZpsOlWvb3cWsjQnamqjEbDmQf2toxuxtZ48mbkzSdj85p37MXsxoPu3SGp9j/FuzNvFop37oG/1hCWdyrMtQGy1EwLkGAAAgAElEQVSTWn5oe4jZUDmP7U5As3b/h1Af4GWnBtavgd3vmuursRadtiYqM2ureYpBO2bW0kfM1pi7/H/DrmZtNXTXwqz3PDVr13e/6DVjzdpeR+Z0eWnWataeTl1G3omAZu1OuE5auBezNn+On5mwMfj4H/CYl4DAPIxpyDmMxWp6xkTkHB/i1fpjMDFrhwzPofKtuVnLtOfI4dhmbfoYo3TKaK7tDxmp5N7mTLzwG1pTp80hDIbayFimzLZ1zXlbWc/vRkCzdv1m09yH9bz6YG55y12PNq55rHe7Y66z9FrG91CzFrP1ULM29dfCrPc8NWvXec/oMWvN2h5H5bQ5adZq1p5WYUafTUCzdjaqkxc8llnLLNhtf+o+ZOTRQWaAYqoSo86CHZtZmjoYvJl9m1mmMRHJBWOXuJiF2xbiULa2X+twPn+an9cVDJWlLeJkGTIeyYvj1WSmfNvfdj8xM8M4fZ4ymmkneY/xHzJr6Qcshz7kEc4xjJPbUBv7mLXJOXFdH4eAZu31GHL5UZ3eHu65R/Dnzcf6YR9m0xGvzqrrrc/m0891d5w7ad9R1qK3Xc3al73sZbfvqOV65/9viEF/6zb7ddZs2074MDP3ve99723MHHe9//WqWdv3vWFN2WnWrmm0jpOrZq1m7XGUZJSDCWjWHozwaAGOZdbGwJxKbMjIo/xc8xJzcsjEi9FLrNZEzA9yDdWruRJ7yEClTMzRxEi+mMV1qaZzjhPz2DNrW47EHzKa825cyrO09ZJja9bGcB4yo1On5ZzjQ23sYtaOxU1814cR0Kzd/yF0bQ/wvZq1+bGfmCy7cOVPpNuZcOxzn9V0uR5t76KZtuxhd9B11G773Ot+a6Juew0C76jlvsYPhWHc1h8Yw5zFfOUcZSjLaxTo+3333Xdzj8gPjnGML4u4b/glz3HvG5q167hHrCFLzdo1jNJxc9Ss1aw9rqKMtjcBzdq90R294rHM2ph0Q+9xTdIpg9lZlxh0mHpZKMPsWP5nmvMsmWmaGaUcS90YotmvMz5jJLftpq2seQ0Cpmc1YYlHHhxPHpTnGJ8cw9iM6VkZHMOsjUmc/qbt5B3zmPZjsCZvymYZ45+8U67Gq/0jj3DlOH3LfuoOtUH8ITM5deo6bW8bq1rH7fkENGuP+2DaqwlCXr2ateTGfWIfdhgy1aBJjH3jpb7r67ku5t8t11tyLXrGKI2hSs588VKvZczc973vfTf3Cspx/fOFDe+xZZ9XvaSvxMoPklGGevULodRLfPaJl/quj3MP0Kxd732jt8w1a3sbkdPno1mrWXt6ldnCLAKatbMwLVLoWGYtJiHmXTVS2w7wP8mUGTLi3v3ud9+c4zzGHmvMW9YxT6shShmMSM5X03TIRKQeZVrDtc0vBmdySHzqVQOWerVsYlOPmbx14RhmZV1iSM59DUJmuk7lE7ZjXGg/ZVr+rVlL2YxH4rGuHIY4j7WRdqnP6ySmFgxh+ulyGgKatcd5IO3xwR7jglllMTfGzFrKUYbP2KyylCFeNTzafnNtp802FvupW02XHM9rEGiL8+zXPtR4qcPMOcxaytM2+dT6bX6Um+oD59NOyiZuG8v9y7h2TnNn7SvqJWo1Zu2x+sZ9xGv9+Ne0Zm1f94I1Z6NZu+bR2y93zVrN2v2UY62jE9CsPTrSvQMey6wlAUzFOju2TQqDD6Mwsz/b85xjpiaGJ2X4cIx6deEYZSjLdl3G6qTtNlatm+3kQXyM4rF8Kc/5mnNiZD2Uf3Js4ybH1CUuZm+OT7VDHcrx8EE51mPx2+MY0S3HbfHSh5Zncm3bCKcY7+lju8aobc3ttoz7+xPQrD3+w+mxzIND4mBkcK/IByMCY5P9GpdXBfDnwSnHmtlotQwzztoyxIupSVkMUmal1ThsUzexYha/6lWvuilHDM4l18TDJKVuyiUmOSRe6uQc6/xKPGYs+8RJ28Ru86P9GNkpRz3y5FyNTXsp4/qyrpn9757rqXmJmuWaPNZMWGJ5jZ/mutasXc99ovdMNWt7H6Hj56dZq1l7fFUZcS8CmrV7YTtJpWOatZh+PPAOGX8nSf7Cg1az9sK7etM9DGZm37YG8DX0fak+atae5gH1nOYIhmZMR0xUcsl7XDme3DAw2X/1q199++fDKceacsxuxbjEFEmsxI85SrkYsTFIiZ1jma2Wfd4tSbmYs5gk5JH9mLW0m3jEYB/DNjNwaZe8OJ4+sR4yaylT49FWzOvkR13y4EP/6S/lYvImv9qW2+u/fpa6156znUvUKddjvXYP6aPvtz7ddaxZe84r/7La1qy9rPGc0xvNWs3aOTqxzAIENGsXgDyziWOatTTJn88zO1LDbeYATBS7JrMWvaCb9jUSE3g8tQcBzdrTPaQeYh4cUpcZqZiarbkYszSxs9+Ww5zMr6zXH+JJPdYYrK9//etvTFLqY3ASr5bBVOV4ZqyNtTdm1mYWbWLGxI2RzPE5Zi2zZ8mjjUd+cKqm81A/xuonL9frvob2uG2urooaXbdG1zx+mrWru110m7BmbbdDc7LENGs1a08mLgPvRkCzdjdepyx9bLOWXHnv6NTrEE7Zn0uKjXF5LcY3P+6G0e9yWgKatZf3EM8vqGNitg/4MUtzPO97ZSZq/WQmacplRiv1M9M151jHRN02O61tPzHmmrUxf6u5OsesTfw6Izdth0H2q7mcY+lfa/bmvOt1X0OnvcP2EV2Nrlujax4/zdo+7gGXkIVm7SWM4m590KzVrN1NMZY+GQHN2pOh3TnwKcxaknBm7c5DcdUV1Msyw//lL39589hjj/m5IAYYjt/zPd/zvDH93u/93psZphlvyk19Uu7BBx/cfN/3fd/NF0WUZzYqxutnPvOZmzYwaTn+kY985HltJgbrtv2c+8Ef/MGb+p/4xCdu6hOHeD/yIz/yvHgcr337ju/4jpvXGyQW6zafsXaHciI++dR4U/nUcm6v8z6yzJ32vK2s2ewz93UbzZq15732L6l1zdpLGs15fdGs1aydpxRLnZyAZu3JEc9u4FRm7ewELCgBCUhAAnsTeMlLXrJ53ete97z6/FAfZmQWyu36Fw+8h5wZ78RJ3QceeOBmf9uPBbbtJ4/29S6845z49957b4rcrPmRQo7zlxpZyIG/NqgL77GkXN6VTnn22x85pA71mcWfhXLkU5exfGoZtyXQMwENz3UbnmseP83anu8M68pNs3Zd43WMbDVrNWuPoSNjHIGAZu0RIB4phGbtkUAaRgISkMAZCGDU8sN8rTnJcczILGPlaj0MUwzNdqZ7NV6HTNS0Qd33v//9N7u1Ts6znmvWxoRlnWWOWRuzNXmkLn2CB3ll0awNCdeXRGDNZp+5r9to1qy9pDvJefuiWXte/udoXbNWs/YcurPNAQKatQNQznRIs/ZM4G1WAhKQwBEIxJzEhMSQxEzFqMSIrGZtyjGzNGYsawzQzMxNmcQiPWbXMpu1zkhl9ioGcWbD0mZmtCb2rmZtfT932qzHyCWGc9rgWExdcs9CruSXY+THMXjUupq1Ieb6kghoeK7b8Fzz+GnWXtKd5Lx90aw9L/9ztK5Zq1l7Dt3Z5gABzdoBKGc6pFl7JvA2KwEJSOBIBPKqghi0mJztzFqa4tUFnEs51q0h2sYaKoP5GTM2sTBH6yzYnG+7ODazNmZqjde+aiHGLGWIz5JjMWY5hiHb9rPNj3LE8TUINxj9zwURWLPZZ+7rNpo1ay/oRnLmrmjWnnkAztC8Zq1m7RlkZ5NDBDRrh6ic55hm7Xm426oEJCCBYxLAoMTc5IOZyn41MNMW5ziOyTl0nnKJNVWGcsyArW2mjZwbit/mRRlMU2bp1nbJc2ihDHnRNkviDZVPP8Okjcd56tclfIbi1XJuS6BXAhqe6zY81zx+mrW93hXWl5dm7frG7NCMNWs1aw/VkPWPRECz9kggjxBGs/YIEA0hAQlIQAJ7Eahm7V4BrCQBCdxBYM1mn7mv22jWrL3jUnTnAAKatQfAW2lVzVrN2pVK9/LS1qztZ0w1a/sZCzORgAQkcG0ENGuvbcTt76kJaHiu2/Bc8/hp1p766r6e+Jq11zPW6almrWZttOD6zAQ0a888AKV5zdoCw00JSEACEliUAK8z4EfOMG1dJCCBwwms2ewz93UbzZq1h1+/RvhXApq116cEzVrN2utTfac91qztZ2A0a/sZCzORgAQkIAEJSEAChxDQ8Fy34bnm8dOsPeTKtW4loFlbaVzHtmatZu11KH0FvdSs7WeQNGv7GQszkYAEJCABCUhAAocQWLPZZ+7rNpo1aw+5cq1bCWjWVhrXsa1Zq1l7HUpfQS81a/sZJM3afsbCTCQgAQlIQAISkMAhBDQ81214rnn8NGsPuXKtWwlo1lYa17GtWatZex1KX0EvNWv7GSTN2n7GwkwkIAEJSEACEpDAIQTWbPaZ+7qNZs3aQ65c61YCmrWVxnVsa9Zq1l6H0lfQS83afgZJs7afsTATCUhAAhKQgAQkcAgBDc91G55rHj/N2kOuXOtWApq1lcZ1bGvWatZeh9JX0EvN2n4GSbO2n7EwEwlIQAISkIAEJHAIgTWbfeY+bjR/8pOf3PTOR7P2kCvXupWAZm2lcR3bmrWatdeh9BX0UrO2n0HSrO1nLMxEAhKQgAQkIAEJHEKgd0NvLflhjr7yla/cfPSjHx00ST/wgQ9s3vKWt4yen9tP4hNrW/m0t63cOc9r1h5y5Vq3EtCsrTSuY1uzVrP2OpS+gl5q1vYzSJq1/YyFmUhAAhKQgAQkIIFDCJzTrNulbczH17zmNYMm5cc//vEbo/QFL3jB5q677tq8/OUv37zvfe8bLLtLm7uUfcMb3nBjxlIHU/ZlL3vZbfvvfOc7N+RGmdbMpV8vfvGLn/cZ6yuxMYVphz6+6EUvum0HDnVGLeXe9ra33Z7fpT9LlNWsPeTKtW4loFlbaVzHtmatZu11KH0FvdSs7WeQNGv7GQszkYAEJCABCUhAAocQWMKUO0YbmJoxKdt4HH/1q199a1RiUGLatsZoW+9Y++TWmqYcS3zyw2TNfl1TjlwxWttPLZftatZSvprSbTucxyT+1Kc+Ndh2Yp5rrVl7yJVr3UpAs7bSuI5tzVrN2utQ+gp6qVnbzyBp1vYzFmYiAQlIQAISkIAEDiFwLqNu13anzFrMzmqOEvtVr3rVHbNKMTUz+xUTkzLUqWYnx5gFm/PMUsX4pR7Hx3J+7Wtfe0dbxE156mPktkZqYlGW/LM/tCYWM21ZV7MWMzozZzmedtI2sWg3ZYZin/OYZu0hV651KwHN2krjOrY1azVrr0PpK+ilZm0/g6RZ289YmIkEJCABCUhAAhI4hMDnPve5SaPwnGZebRtTE+OxHss2xzFnY7LmeNaYrbyW4F3vetcGYxVTk9mmxKwzT6lfZ7lSLkYs22OmJzGIlfaqoXqoWRsTljW50FY40B/yot2U41w1a2kfNsmtp7Vm7SFXrnUrAc3aSuM6tjVrNWuvQ+kr6KVmbT+DpFnbz1iYiQQkIAEJSEACEjiEwKOPPtqlkdeailNmLSYrJiVGa2tWxsisRi7viI2hWY1WjsUIxRjlkzxi7GY/6/vuu++m3fqqgWrWUo6YHEuduiZu8qZcPuRLTM5VIxjjOTlWs3asnbZMbfvc24fo1roSqAQ0ayuN69jWrNWsvQ6lr6CXmrX9DJJmbT9jYSYSkIAEJCABCUjgEAJPPPHEoIl4biOvbX/KrE1ZXguAmclsUz4xUHmdAWYprxLgg0EbszbHiYEJmuNsMxs3dZidmlm3aY91zNp6bB+zlv7VD/HYp82x2K0RS86tKUwM+ltj9LDNlwQuEjgWAc3aY5FcTxzNWs3a9aj1wjPVrO1ngDVr+xkLM5GABCQgAQlIQAKHEHj66ae7M/KGzERMx8worecxYuusWc5h0mJQ5rUFGLeYuJi5lK0zazFbKcs5jNEYvJRhZi2GaP3kfHI4llmbeHV9LLM2r0qosc+9/fjjjx8iW+tK4A4CmrV34LiKHc1azdqrEPoaOqlZ288oadb2MxZmIgEJSEACEpCABA4h8Mwzz6zarG1N1piQGLsYtEOGZ51ZS3nKtq89aPcphzGc+Flj3rYzbveZWZt4dZ3Y9CHHa+w5M2spwwzh1O9lzZcELhI4FgHN2mORXE8czVrN2vWo9cIz1aztZ4A1a/sZCzORgAQkIAEJSEAChxJ45JFHujPzWlNxbGYt5TBWmT3KKwze97733Zi0GLJ57yvbmSWLMYu5mtcdUJ8ZuByrpigmMPVi+FaTtM2NWbjvfe97bxm2ZWmTY2099mMm19m7bCeXvNaBfpEnORGPuq1Zy6saOJe6lKE+fR9q+5zH/HGxQ69a61cCmrWVxnVsa9Zq1l6H0lfQS83afgZJs7afsTATCUhAAhKQgAQkcCiBz3/+892Zea2RiAEZk7I9xz7mK2YlHwxKzNaUw7TNOcphelZzlRmsvJs25bOmHkYn7RKT/Zyra4xYzucYsd/85jff7rftpRxrYua9uHXd1k8OmLY5B5PXv/71t+2knzlPfEzsat7Wts+17ftqD71ird8S0KxtiVz+vmatZu3lq3wlPdSs7WegNGv7GQszkYAEJCABCUhAAocSWMOrELaZtecyHmkXsxdTdMzMPVduMbDP1f5Yu1/+8pcPlaz1JXAHAc3aO3BcxY5mrWbtVQh9DZ3UrO1nlDRr+xkLM5GABCQgAQlIQALHIPDYY4/dztAcM9nOeRxDlFml58xhqm1ye/nLX377A2VTZZc4h3HMbNzeDOTPfe5zx5CrMSRwBwHN2jtwXMWOZq1m7VUIfQ2d1KztZ5Q0a/sZCzORgAQkIAEJSEACxyCwhtm1S5ich7SBYduLOcprIHrJpTJ1Vu0xrlZjtAQ0a1sil7+vWatZe/kqX0kPNWv7GSjN2n7GwkwkIAEJSEACEpDAsQis4d211fhz++FuZxoPjY2zao91pRqnJaBZ2xK5/H3NWs3ay1f5SnqoWdvPQGnW9jMWZiIBCUhAAhKQgASOReAb3/jGBkNtyGjz2LqM0R7H67nnnjuWVI0jgTsIaNbegeMqdjRrNWuvQuhr6KRmbT+jpFnbz1iYiQQkIAEJSEACEjgmAV+HoCl7CqP3qaeeOqZMjSWBOwho1t6B4yp2NGs1a69C6GvopGZtP6OkWdvPWJiJBK6BwJNPPrl56KGHVtnVe++9d5V5m7QEJHDdBJ5++mln1z6saXss01aj9rrvJ0v0XrN2Ccp9taFZq1nblyKvOBvN2n4GX7O2n7EwEwlcOgGM2pe+9KWbe+6556arX/3qVzd82uX+++/f3H333TdlT2GQEv9Nb3rTHW2T29RCnuT+nve8Z6rYSc5ty22XRod471K/x7KM5bF0wo/4EK/H5Zg6oH/HjtcjM3P6JgEMtmOZdca5XuP3iSee+Kao3JLAiQho1p4IbMdhNWs1azuW53Wlplnbz3hr1vYzFmYigUsngNlZjTAM2bvuuusO0/TRRx+9OfaKV7zixhg9xSxcDFfajVn1wAMP3OxvM/ySG2bvUgvmIbluy21OPhi1xHrd6143p/hqytCnqqtDEicO8Xpb3vGOd9zkhQaPsURXS2r5GHkb4zACzrC9XpP1GAa7M2oPu/6sPZ+AZu18VpdSUrNWs/ZStLz6fmjW9jOEmrX9jIWZSOCSCWCQYtbGIKWvGEaYUHWJKVXL1fPH2G7NWtrCpKtttmXSLsdf+MIX3mEw59wp1kO5zWknZlxrdsM3M5vnxDlGGcxPuJ1quQazlnFsNTqXZ2ap1/KYvvvGq3HcXh+BZ5991h8d85UIO82yfuSRRzYY/S4SWIqAZu1SpPtpR7NWs7YfNV55Jpq1/QhAs7afsTATCVwygXZW7Vhfl5jZOGbE1pzGymR26vvf//5avLvtMbP2HIlq1p6D+jfbHDJrv3nWrWsk8Nxzz234c/ZjzLY0xmXP1n3sscc26MVFAksS0KxdknYfbWnWatb2oUSz2GjW9iMCzdp+xsJMJHCpBPKagfZPuDE8MZJYMEHZZtYq5h7b2/5cn1mnlMEI5rUJQzMFKcNs0pRhu529S160x5+EZ5vyY3lQls+2hT6l7ZjVdfYu+RKHclk4z7GYwZ/+9Kdv9is7ymMmE5MP5fOahHBM/nCpubJdZ7mSAzkyc5Nz1KPO0J/HkxPn0mb4p+30IWviEhOOqVP70bY5NH5TfU07xKduFuqgCz5sjy1hnT7DhTjEq8tQDnUcKTtUZojLtj7nmoB/HTtiwTLtRqeUi8YoT/7pc+pwTfGpYz+kK/pBvKoDmCRemHCe2EN6SBnX6yDALFvMOA3XyzZc9xlf7jHPPPPMOoRslhdHQLP24oZ0a4c0azVrt4rEAssQ0KxdhvOcVjRr51CyjAQkcAgBDCTMonapxljMLgwnzDJMohiWbT32Ma2ISXn+rJ/y2a/lMeI4jqFFmcSnjRhfGGjsY0BxjHIYUhyjXpsH+5xrTazaLnFomw/58cl+6v1/7N1PzG1Xeud1j3uCh5nZg0RIjJwxJPGAAUkPyqMMEMhOUAvRErEHMEkG16N4wMBWWkwQJVtIFiKJsAeJEkauxiV1qQ0yyFIblVRlnKYqqSiRS1DdKlHAi35v5blZd3uf9Z5z73nXWe9Zny2d7HP2+vOs9X0eu+Kvl/etuIlRV/Wpte2dkM0esqdHjx7dzlt7yrqKY0Rl1hjG2U9d9ax+v/DCC7dztYyyhvTL+urKHHlWwi/zVr92/uqfe9a+HbfdV+ZLv/DJGjJne+X33l6Tq7q2e6rctWK4+ta98rO378zXXlvetaZ2/uqTXGYvbU5qrojQYpg+6Vt7rpqovyaqX9VGcSx+VTu197TX2Ow/V/rkea0337OGXHt1VTEqJzVf9lLry9jEzJx5njG1j+yl7XcbyP95EAQibXPS9pNPPiFuF35FQl53EHlP0j6Iv2yvepFk7VWnd3dzZC1Zu1sYHo4nQNaOZ34oIll7iIznCCBwLgKRPyWQ2jlLBt31rG2v7xFFEUatHCqBtRVSEVPtlbVEOG3FVysAS1xVn3Z8nRSuOG1bfa+9tePzPXEzd10RXXkW8VcCrV1vPStxmn7pvxXIEWUt4+24ipexWVtdkbXh2K6zOLYx0ief9qp+7X7a9vq+3XOeRyZ/4xvfqC6395Lgtdeav11HOm732u6puLcMnwjydz+qX8WqPiVZ63dxbHOdmmvXUHndW2fmq6vHsMYeWte2HotNydyKUfXU7it1sc1d7av61R7a2sic2fc2f/md+dq/9ra5q/W4PzwCEXU//OEPbz7//PPbvy9F4D3NyUxj5j6tm7xGzifP3//+928F7c9+9rOHV7BWfJUEyNqrTGt3U2QtWdstEI3jCJC141jfFYmsvYuQdgQQeFYCEYKtSKz5SkzV79z3nrXt+V5iaU8SRiSVwErMSLXtdUh8HStrS5S1/bcxEjdCcntF3rUsIrwivko+b2XZVqqlf/aYuVvBuo2zHVftGdvG2MtNxSi+td/M2V69PLT9ErPmap9vv1ec4lrz37XX2lOJyu06t3HyO7xbkVp9tvWXXB3qV7VVvNL3UE5qbyVlK17uYZP2XNv41e+Ymk3fYlZ/DeRZ1nWXrC3Z2p4WrtjbGtnLZ+2vcldj6x7pm7zUZy9O9XVHAAEEEFibAFm7Xv7JWrJ2vaqfdMdk7TyJIWvnyYWVIHCtBCJ7WkFY+9wTU3vPqn/dSwxFlkVCtZ8Sd+kbydaK0Rp/jPja9qmxuVf8Q2KqhNne+urZ3nzZx1b2RW5lTyXzMi6vP8izfLK/iLljxmVsyye/tyKu1pV+YZBrbw15XvusfjV2e2/nqrYIzozLntPeflqux+w1Y8O17pn7riv992T6tv5q3rbG8r2eV5y71lmnsds81tj2vo1fbdt67NVgOGSeuo6RtYfiZo5wyn7ryvzbnPfWk3GZv2WY10C4EEAAAQQQ2CNA1u5Rue5nZC1Ze90V/oB2R9bOkyyydp5cWAkC10ogQvAYMZb996RR8SkxlL51Uq+9lxBL3L1TkceIr22fip17xW+lYtteEjN7btdV39v/pD7j8jwCLJ/ticNqqz1VnMRIW0mwjG3Xc2hc+mVMXZeStVlDBGAkZ/ZS+9nuI+ustkN7zZjaV+57gr72W/fEbjnU8zzLHHWlX+YLz71P9ct9b511krbysc19Oz7ft/GrfVuPvRosFjV2Bllba3FHAAEEEEDgLgJk7V2Erq+drCVrr6+qH+iOyNp5EkfWzpMLK0HgWglEmO5J0z0xtfdsyyVSLEJqe7pv2297IrDajxFf2z41NvcSZVuB2vYpydc+2/ueveTEYfad+5ZTSb6Klf753p4ezfeMy/i6tuPq+VbkHSNra78lHmuuY/OwzVXWu11H5qw4JZ0P7bVOaNY6Mlf9y4Cc2Mzv7Vqrb923vOr5tv4O9av+uR9aZyRp6iDXoXcNpy25Kkm/jX87+O9elZB9JVauLavqV3HavzaOkbX1GoTMu73CO3PUlXW08+f5ofXUGHcEEEAAAQSOJUDWHkvqevqRtWTt9VTzA98JWTtPAsnaeXJhJQhcK4EIqJJW7R73xNTes3ZMfS8RVvKqnrevBChh2Yq7iMLIp7vEV0/Wltjaxq415F77KAlXbRnbjis2eVbCqxVhtYeSaBW7fte84dGK3hq3PcmZfSdmXcfI2vRN/jJ/K4lrLe16a972npjtO1RL1rYCMP2LWcnamv+uvW73FHGbZ9tx7Zoqv22ftjaqb/WrNdXz/C62h9aZdbQCPd+3DDNH1pp85SoGFafutY6qnax7y7Ud3+4rnNt1pF/VR/XL3pPjkt4Vt/ZW68vzxN3mvNaz5VTzuCOAAAIIIHAsAbL2WFLX04+sJWuvp5of+E7I2nkSSNbOkwsrQeBaCZQYKtFU+1/PkYAAACAASURBVNwTU3vPqn97jwSNXIqEigiMPNoTuJFjkUuRUOmX3xmXZ7WePdFUEi1ztqIxa8hcmad3Ze6sLXGyp1pffpf4Ki7t+zsTK31K8lafVqodmjevFKir9lR86nmtp34fK2trHTVfGBTHrbirueueMekbDrWPV1999Xaf4ZvnuWdt+ZTwa+XplmG71+2ealzi5vveVX1qbLjXOvOsrvSrGqo1ZO/pU2vYztXmuvpkvjYn6ZOY4dLWUmK08Wsd6Z/n25rNs6ynjfn666/XsNt71VTmLraVz8pHOtap5Kwn89U+c2+vxEx7e9Xeav62zXcEEEAAAQROIUDWnkLrOvqStWTtdVTyFeyCrJ0niWTtPLmwEgSulUBkVqTUVvBEGEUgtdfes7a9/R5xlfERfRFMkVIls6pfYud5+uQTeRaxlHFpy1XztOIqzzMu87ZrrL1knXddmbdi1zxtjPBo5858mT/PSuDWWkveVp+0Zz8RjJFp7by1ruqTfnVl7nbtEXutUGz71cnRepZxFTPzJOaeuKv+dc/aMy4M2nXW+vI8a6g8tOvLs+p3aK/bPSVuYu49rzXlXvESPwwTJ3vOuO1Ve6++7T7SN3m7a53bmGGyZZ84e/FrXVWzLfv0L77b+Wpt6ZO1Z425Mj7P2rrK8/wOi9rn3nwZt62NYrnlchvM/0EAAQQQQOAEAmTtCbCupCtZS9ZeSSk//G2QtfPkkKydJxdWgsA1E4iYjLAt2fRQ9xqZFmkYObXStZe3EoatXF2JySX3WuydZL1kFsRGAAEEELgPAmTtfVCde06ylqydu0IXWh1ZO0+yydp5cmElCFwzgci+SM6cNH2oVwRt9lCnEx/qPp5m3TlNmROXJalzAjMsIuDr2dPMa8zTESBrn46bUQgggAAC8xMga+fP0blXSNaSteeuKfM9JQGy9inB3cMwsvYeoJoSAQR2CUTwRe49xNOAJZu37wPd3egVPiw5m9ce1Ce59J+9XybZZO1luIuKAAIIIHD/BMja+2c8WwSylqydrSaXXQ9ZO0/qydp5cmElCKxAIKcwt++7fCj7XvFE7TY3kYR57UHue69G2Pb3+34IhL0c3A9bsyKAAAIIXJYAWXtZ/peITtaStZeoOzF3CJC1O1Au9IisvRB4YRFAAAEEEEAAAQQQQAABBJ4gQNY+gWOJH2QtWbtEoT+ETZK182SJrJ0nF1aCAAIIIIAAAggggAACCKxMgKxdL/tkLVm7XtVPumOydp7EkLXz5MJKEEAAAQQQQAABBBBAAIGVCZC162WfrCVr16v6SXdM1s6TGLJ2nlxYCQIIIHAOAsf+4VN5f3D+sLDeH/j22muv3fY5x7ouNUft880337zUEh7HPTY3jwf4ggACCCCAwGIEyNrFEn5zc0PWkrXrVf2kOyZr50kMWTtPLqwEAQQQOAeBY4VgSUyy9jD1Tz/99Cafc13H5uZc8cyDAAIIIIDAQyNA1j60jD37eslasvbZq8gMZyFA1p4F41kmIWvPgtEkCCCAwDQEjhWCZO3dKXvhhRduXn755bs7Htnj2NwcOZ1uCCCAAAIIXB0BsvbqUnrnhshasvbOItFhDAGydgznY6KQtcdQ0gcBBBB4dgKRo/n0rq+++uq2T+5Pe/WEYLuGU2XtsWtrYzztHnrjjpm/7VP73HsNwl17ukvWtnEOrbnt08vNofGeI4AAAgggsBIBsnalbP98r2QtWbte1U+6Y7J2nsSQtfPkwkoQQOA6CeQ1A88///ztu1/zjtgXX3zxZisOI/RygjPt9cn7YvO8rkOiL3NlTPXd67edP2t44403bscd8xqEd95554k9ZG1boZy4mbfWn+8ffPBBLX/3vidDs9bMUYzqd9bbMtqbP2va9qn37tZ8WciWR+K99NJLjxkW09pLu56Mz6sRtnHa+fdiHMt8F5SHCCCAAAIILEKArF0k0c02yVqytikHXy9JgKy9JP0nY5O1T/LwCwEEEDgngRKnr7zyyk2+R/KVPGxFZkRePukTkfjuu+/eytE8Kylac23laonFjMu11y/xIxwfPXr0eP7MnWfb+dr911ojMmv9mWMrL0uotvusmBl36DpF1rbrz5y1/vadsrXevX22MjVj88k8Le8I2Fx5lrasr/ZefHPP2Hqe+CW+273W+rKW9ElO61mP+SFWniOAAAIIILACAbJ2hSw/uUeylqx9siL8uhgBsvZi6L8WmKz9GhIPEEAAgbMRiPyLoNteraSMxIuIzL29Iv7yPKdac9Xvrei7S9ZGFGaeiMz2OjRf26fkZ4nKasu+clq4RHLts36nX76nT0TmoavlUH0SK+stuVq/D62/5r+rX82XdWWuVpYndgnXdg976zvEJHst2VtsI2rb68MPP7zd2zaHbR/fEUAAAQQQWJkAWbte9slasna9qp90x2TtPIkha+fJhZUggMD1EYh0zAnT7RWBmk+utEf07V15XuNLAG5F312yNrI368j49iq5uZ2v7VNisn2W7zVn7SHzR1RmzvaT06f5HLr2ZGitq+Tq9nc7V8bX/LWmQ/us+drxWX+kbUR5nQROvLr21lenatt95nubx8pJ8an5DuWw2t0RQAABBBBYnQBZu14FkLVk7XpVP+mOydp5EkPWzpMLK0EAgesikBOa7QnRQ7urU6l77a0sPCT6SgyWZNz227ZXnPTP+p5G1tZp4MSqeTLX3mfvZHGtod1fPav5Sq5uf1e/3Ft2d+2z5su4rLteSZB7zZP1J15de+vb22P7LGMPrWWbm4rjjgACCCCAAAI/J0DWrlcJZC1Zu17VT7pjsnaexJC18+TCShBA4PoIROLVf6Z/aHc5kXlIaO79p/VbuboVg1shWCdOWwmZtZQE3c7XrvPQydpW1paUTt/Mufdp52y/78nQWlfJ1e3vdnwk6/Zkbfq313Z8fteJ5faVB1uOmWNvfTU28+x9Mm5vrjzf5qZdp+8IIIAAAgggcHND1q5XBWQtWbte1U+6Y7J2nsSQtfPkwkoQQOD6COzJvuwyArVk5CGxV5KxZO8h0bcdv+1XvxOzvfKf6EcmP42sLYlbsrOVym2Mu77v8al9F5/t75qznm9fE3FonzVfvTd2+87aLcfE2VtfBHH227tKZm9jVC56zHvzakMAAQQQQODaCZC1157hr++PrCVrv14VnlyEAFl7Eey7QcnaXSweIoAAAmchUAKwFYgl7F5//fXbGJGOJTtLfuYeKRiZmvZceZbfeV5X2uo/569+NX8rBNMnn+qTueodrW2/mrfuJWVLdOZ5Sd52HbXPtl9iZHy795q37iU+23XVH/RVc6Ut+27Xn/EVM2K0rr19bvdQ6y8JnrFhlrEt7zzP+vK8vUrE1vrSlr1mvtprfien7ZqPZd7G8h0BBBBAAIHVCJC1q2X85oasJWvXq/pJd0zWzpMYsnaeXFgJAghcJ4GSj/WHbZVwjbyrKwIwcq+kbX1vRWT6Pnr06FYolgjMXJm3lYx7sjaCMmPSLwIx32vcXbK2YtW95ijBWnuofWb+zF39t/2qf+611pqzXVfJ0FbWpl8J3nwv4V1z9vZZ86Xvq6+++jWOmTdzZo66SghnXa3crTxkr7We9GnH5lRt5sunmB8jyCu2OwIIIIAAAisSIGvXyzpZS9auV/WT7pisnScxZO08ubASBBC4XgKRkhF/+eT73hUp+fbbb9/2yb2VuW3/SMB2royL1K3+uef3VpK289d/nr/Xr42VtbZ9E7e3tnaf7ZraObffs67aT43JvcRn2iM806ftewzHdu01X8UvjtlP5s1nj0eeJXbNVePbtRxi0vbJeg/lpuZ0RwABBBBAYHUCZO16FUDWkrXrVf2kOyZr50kMWTtPLqwEAQQQQODrBCI8S9Z+vdUTBBBAAAEEELgmAmTtNWXzuL2QtWTtcZWi170TIGvvHfHRAcjao1HpiAACCCBwAQJk7QWgC4kAAggggMCFCJC1FwJ/wbBkLVl7wfITuiVA1rY0LvudrL0sf9ERQAABBPoEyNo+H60IIIAAAghcEwGy9pqyedxeyFqy9rhK0eveCZC194746ABk7dGodEQAAQQQQAABBBBAAAEEELhHAmTtPcKddGqylqydtDTXWxZZO0/Oydp5cmElCCCAAAIIIIAAAggggMDKBMja9bJP1pK161X9pDsma+dJDFk7Ty6sBAEEEEAAAQQQQAABBBBYmQBZu172yVqydr2qn3THZO08iSFr58mFlSCAAAIIIIAAAggggAACKxMga9fLPllL1q5X9ZPumKydJzFk7Ty5sBIEEEAAAQQQQAABBBBAYGUCZO162Sdrydr1qn7SHZO18ySGrJ0nF1aCAAIIIIAAAggggAACCKxMgKxdL/tkLVm7XtVPumOydp7EkLXz5MJKEEAAAQQQQAABBBBAAIGVCZC162WfrCVr16v6SXdM1s6TGLJ2nlxYCQIIIIAAAggggAACCCCwMgGydr3sk7Vk7XpVP+mOydp5EkPWzpMLK0EAAQQQQAABBBBAAAEEViZA1q6XfbKWrF2v6ifdMVk7T2LI2nlyYSUIIIAAAggggAACCCCAwMoEyNr1sk/WkrXrVf2kOyZr50kMWTtPLqwEAQQQQAABBBBAAAEEEFiZAFm7XvbJWrJ2vaqfdMdk7TyJIWvnyYWVIIAAAggggAACCCCAAAIrEyBr18s+WUvWrlf1k+6YrJ0nMWTtPLmwEgQQQAABBBBAAAEEEEBgZQJk7XrZJ2vJ2vWqftIdk7XzJIasnScXVoIAAggggAACCCCAAAIIrEyArF0v+2QtWbte1U+6Y7J2nsSQtfPkwkoQQAABBBBAAAEEEEAAgZUJkLXrZZ+sJWvXq/pJd0zWzpMYsnaeXFgJAggggAACCCCAAAIIILAyAbJ2veyTtWTtelU/6Y7J2nkSQ9bOkwsrQQABBBBAAAEEEEAAAQRWJkDWrpd9spasXa/qJ90xWTtPYsjaeXJhJQgggAACCCCAAAIIIIDAygTI2vWyT9aStetV/aQ7JmvnSQxZO08urAQBBBBAAAEEEEAAAQQQWJkAWbte9slasna9qp90x2TtPIkha+fJhZUggAACCCCAAAIIIIAAAisTIGvXyz5ZS9auV/WT7pisnScxZO08ubASBBBAAAEEEEAAAQQQQGBlAmTtetkna8na9ap+0h2TtfMkhqydJxdWggACCCCAAAIIIIAAAgisTICsXS/7ZC1Zu17VT7pjsnaexJC18+TCShBAAAEEEEAAAQQQQACBlQmQtetln6wla9er+kl3TNbOkxiydp5cWAkCCCCAAAIIIIAAAgggsDIBsna97JO1ZO16VT/pjsnaeRJD1s6TCytBAAEEEEAAAQQQQAABBFYmQNaul32ylqxdr+on3TFZO09iyNp5cmElCCCAAAIIIIAAAggggMDKBMja9bJP1pK161X9pDsma+dJDFk7Ty6sBAEEEEAAAQQQQAABBBBYmQBZu172yVqydr2qn3THZO08iSFr58mFlSCAAAIIIIAAAggggAACKxMga9fLPllL1q5X9ZPumKydJzFk7Ty5sBIEEEAAAQQQQAABBBBAYGUCZO162Sdrydr1qn7SHZO18ySGrJ0nF1aCAAIIIIAAAggggAACCKxMgKxdL/tkLVm7XtVPumOydp7EkLXz5MJKEEAAAQQQQAABBBBAAIGVCZC162WfrCVr16v6SXdM1s6TGLJ2nlxYCQIIIIAAAggggAACCCCwMgGydr3sk7Vk7XpVP+mOydp5EkPWzpMLK0EAAQQQQAABBBBAAAEEViZA1q6XfbKWrF2v6ifdMVk7T2LI2nlyYSUIIIAAAggggAACCCCAwMoEyNr1sk/WkrXrVf2kOyZr50kMWTtPLqwEAQQQQAABBBBAAAEEEFiZAFm7XvbJWrJ2vaqfdMdk7TyJIWvnyYWVIIAAAggggAACCCCAAAIrEyBr18s+WUvWrlf1k+6YrJ0nMWTtPLmwEgQQQAABBBBAAAEEEEBgZQJk7XrZJ2vJ2vWqftIdk7XzJIasnScXVoIAAggggAACCCCAAAIIrEyArF0v+2QtWbte1U+6Y7J2nsSQtfPkwkoQQAABBBBAAAEEEEAAgZUJkLXrZZ+sJWvXq/pJd0zWzpMYsnaeXFgJAggggAACCCCAAAIIILAyAbJ2veyTtWTtelU/6Y7J2nkSQ9bOkwsrQQABBBBAAAEEEEAAAQRWJkDWrpd9spasXa/qJ90xWTtPYsjaeXJhJQgggAACCCCAAAIIIIDAygTI2vWyT9aStetV/aQ7JmvnSQxZO08urAQBBBBAAAEEEEAAAQQQWJkAWbte9slasna9qp90x2TtPIkha+fJhZUggAACCCCAAAIIIIAAAisTIGvXyz5ZS9auV/WT7pisnScxZO08ubASBBBAAAEEEEAAAQQQQGBlAmTtetkna8na9ap+0h2TtfMkhqydJxdWggACCCCAAAIIIIAAAgisTICsXS/7ZC1Zu17VT7pjsnaexJC18+TCShBAAAEEEEAAAQQQQACBlQmQtetln6wla9er+kl3TNbOkxiydp5cWAkCCCCAAAIIIIAAAgggsDIBsna97JO1ZO16VT/pjsnaeRJD1s6TCytBAAEEEEAAAQQQQAABBFYmQNaul32ylqxdr+on3TFZO09iyNp5cmElCCCAAAIIIIAAAggggMDKBMja9bJP1pK161X9pDsma+dJDFk7Ty6sBAEEEEAAAQQQQAABBBBYmQBZu172yVqydr2qn3THZO08iSFr58mFlSCAAAIIIIAAAggggAACKxMga9fLPllL1q5X9ZPumKydJzFk7Ty5sBIEEEAAAQQQQAABBBBAYGUCZO162Sdrydr1qn7SHZO18ySGrJ0nF1aCAAIIIIAAAggggAACCKxMgKxdL/tkLVm7XtVPumOydp7EkLXz5MJKEEAAAQQQQAABBBBAAIGVCZC162WfrCVr16v6SXdM1s6TGLJ2nlxYCQIIIIAAAggggAACCCCwMgGydr3sk7Vk7XpVP+mOydp5EkPWzpMLK0EAAQQQQAABBBBAAAEEViZA1q6XfbKWrF2v6ifdMVk7T2LI2nlyYSUIIIAAAggggAACCCCAwMoEyNr1sk/WkrXrVf2kOyZr50kMWTtPLqwEAQQQQAABBBBAAAEEEFiZAFm7XvbJWrJ2vaqfdMdk7TyJIWvnyYWVIIAAAggggAACCCCAAAIrEyBr18s+WUvWrlf1k+6YrJ0nMWTtPLmwEgQQQAABBBBAAAEEEEBgZQJk7XrZJ2vJ2vWqftIdk7XzJIasnScXVoIAAggggAACCCCAAAIIrEyArF0v+2QtWbte1U+6Y7J2nsSQtfPkwkoQQAABBBBAAAEEEEAAgZUJkLXrZZ+sJWvXq/pJd0zWzpMYsnaeXFgJAggggAACCCCAAAIIILAyAbJ2veyTtWTtelU/6Y7J2nkSQ9bOkwsrQQABBBBAAAEEEEAAAQRWJkDWrpd9spasXa/qJ90xWTtPYsjaeXJhJQgggAACCCCAAAIIIIDAygTI2vWyT9aStetV/aQ7JmvnSQxZO08urAQBBBBAAAEEEEAAAQQQWJkAWbte9slasna9qp90x2TtPIkha+fJhZUggAACCCCAAAIIIIAAAisTIGvXyz5ZS9auV/WT7pisnScxZO08ubASBBBAAAEEEEAAAQQQQGBlAmTtetkna8na9ap+0h2TtfMkhqydJxdWggACCCCAAAIIIIAAAgisTICsXS/7ZC1Zu17VT7pjsnaexJC18+TCShBAAAEEEEAAAQQQQACBlQmQtetln6wla9er+kl3TNbOkxiydp5cWAkCCCCAAAIIIIAAAgggsDIBsna97JO1ZO16VT/pjsnaeRJD1s6TCytBAAEEEEAAAQQQQAABBFYmQNaul32ylqxdr+on3TFZO09iyNp5cmElCCCAAAIIIIAAAggggMDKBMja9bJP1pK161X9pDsma+dJDFk7Ty6sBAEEEEAAAQQQQAABBBBYmQBZu172yVqydr2qn3THZO08iSFr58mFlSCAAAIIIIAAAggggAACKxMga9fLPllL1q5X9ZPumKydJzFk7Ty5sBIEEEAAAQQQQAABBBBAYGUCZO162Sdrydr1qn7SHZO18ySGrJ0nF1aCAAIIIIAAAggggAACCKxMgKxdL/tkLVm7XtVPumOydp7EkLXz5MJKEEAAAQQQQAABBBBAAIGVCZC162WfrCVr16v6SXdM1s6TGLJ2nlxYCQIIIIAAAggggAACCCCwMgGydr3sk7Vk7XpVP+mOydp5EkPWzpMLK0EAAQQQQAABBBBAAAEEViZA1q6XfbKWrF2v6ifdMVk7T2LI2nlyYSUIIIAAAggggAACCCCAwMoEyNr1sk/WkrXrVf2kOyZr50kMWTtPLqwEAQQQQAABBBBAAAEEEFiZAFm7XvbJWrJ2vaqfdMdk7TyJIWvnyYWVIIAAAggggAACCCCAAAIrEyBr18s+WUvWrlf1k+6YrJ0nMWTtPLmwEgQQQAABBBBAAAEEEEBgZQJk7XrZJ2vJ2vWqftIdk7XzJIasnScXVoIAAggggAACCCCAAAIIrEyArF0v+2QtWbte1U+6Y7J2nsSQtfPkwkoQQAABBBBAAAEEEEAAgZUJkLXrZZ+sJWvXq/pJd0zWzpMYsnaeXFgJAggggAACCCCAAAIIILAyAbJ2veyTtWTtelU/6Y7J2nkSQ9bOkwsrQQABBBBAAAEEEEAAAQRWJkDWrpd9spasXa/qJ90xWTtPYsjaeXJhJQgggAACCCCAAAIIIIDAygTI2vWyT9aStetV/aQ7JmvnSQxZO08urAQBBBBAAAEEEEAAAQQQWJkAWbte9slasna9qp90x2TtPIkpWfsf/+l/dpPvPhioATWgBtSAGlADakANqAE1oAbUwCVqIP9c+h9++I9vfv/bb8/zD83PuJL/71/+y5v/++23bz/PONVVDidrydqrLOyHuCmydp6s5X+A8z+GPhioATWgBtSAGlADakANqAE1oAbUwAw1QNbO4wzueyVkLVl73zVm/iMJkLVHghrQ7X/+4f968z9++c98MFADakANqAE1oAbUgBpQA2pADaiBKWrgf/rh/zLgn4bHhHCyts+ZrCVr+xWidRgBsnYYaoEQQAABBBBAAAEEEEAAAQQQQOBCBMjaPniylqztV4jWYQTI2mGoBUIAAQQQQAABBBBAAAEEEEAAgQsRIGv74MlasrZfIVqHESBrh6EWCAEEEEAAAQQQQAABBBBAAAEELkSArO2DJ2vJ2n6FaB1GgKwdhlogBBBAAAEEEEAAAQQQQAABBBC4EAGytg+erCVr+xWidRgBsnYYaoEQQAABBBBAAAEEEEAAAQQQQOBCBMjaPniylqztV4jWYQTI2mGoBUIAAQQQQAABBBBAAAEEEEAAgQsRIGv74MlasrZfIVqHESBrh6EWCAEEEEAAAQQQQAABBBBAAAEELkSArO2DJ2vJ2n6FaB1GgKwdhlogBBBAAAEEEEAAAQQQQAABBBC4EAGytg+erCVr+xWidRgBsnYYaoEQQAABBBBAAAEEEEAAAQQQQOBCBMjaPniylqztV4jWYQTI2mGoBUIAAQQQQAABBBBAAAEEEEAAgQsRIGv74MlasrZfIVqHESBrh6EWCAEEEEAAAQQQQAABBBBAAAEELkSArO2DJ2vJ2n6FaB1GgKwdhlogBBBAAAEEEEAAAQQQQAABBBC4EAGytg+erCVr+xWidRgBsnYYaoEQQAABBBBAAAEEEEAAAQQQQOBCBMjaPniylqztV4jWYQTI2mGoBUIAAQQQQAABBBBAAAEEEEAAgQsRIGv74MlasrZfIVqHESBrh6EWCAEEEEAAAQQQQAABBBBAAAEELkSArO2DJ2vJ2n6FaB1GgKwdhlogBBBAAAEEEEAAAQQQQAABBBC4EAGytg+erCVr+xWidRgBsnYYaoEQQAABBBBAAAEEEEAAAQQQQOBCBMjaPniylqztV4jWYQTI2mGoBUIAAQQQQAABBBBAAAEEEEAAgQsRIGv74MlasrZfIVqHESBrh6EWCAEEEEAAAQQQQAABBBBAAAEELkSArO2DJ2vJ2n6FaB1GgKwdhlogBBBAAAEEEEAAAQQQQAABBBC4EAGytg+erCVr+xWidRgBsnYYaoEQQAABBBBAAAEEEEAAAQQQQOBCBMjaPniylqztV4jWYQTI2mGoBUIAAQQQQAABBBBAAAEEEEAAgQsRIGv74MlasrZfIVqHESBrh6EWCAEEEEAAAQQQQAABBBBAAAEELkSArO2DJ2vJ2n6FaB1GgKwdhlogBBBAAAEEEEAAAQQQQAABBBC4EAGytg+erCVr+xWidRgBsnYYaoEQQAABBBBAAAEEEEAAAQQQQOBCBMjaPniylqztV4jWYQTI2mGoBUIAAQQQQAABBBBAAAEEEEAAgQsRIGv74MlasrZfIVqHESBrh6EWCAEEEEAAAQQQQAABBBBAAAEELkSArO2DJ2vJ2n6FaB1GgKwdhlogBBBAAAEEEEAAAQQQQAABBBC4EAGytg+erCVr+xWidRgBsnYYaoEQQAABBBBAAAEEEEAAAQQQQOBCBMjaPniylqztV4jWYQTI2mGoBUIAAQQQQAABBBBAAAEEEEAAgQsRIGv74MlasrZfIVqHESBrh6EWCAEEEEAAAQQQQAABBBBAAAEELkSArO2DJ2vJ2n6FaB1GgKwdhlogBBBAAAEEEEAAAQQQQAABBBC4EAGytg+erCVr+xWidRgBsnYYaoEQQAABBBBAAAEEEEAAAQQQQOBCBMjaPniylqztV4jWYQTI2mGoBUIAAQQQQAABBBBAAAEEEEAAgQsRIGv74MlasrZfIVqHESBrh6EWCAEEEEAAAQQQQAABBBBAAAEELkSArO2DJ2vJ2n6FaB1GgKwdcL3ppwAAIABJREFUhlogBBBAAAEEEEAAAQQQQAABBBC4EAGytg+erCVr+xWidRgBsnYYaoEQQAABBBBAAAEEEEAAAQQQQOBCBMjaPniylqztV4jWYQTI2mGoBUIAAQQQQAABBBBAAAEEEEAAgQsRIGv74MlasrZfIVqHESBrh6EWCAEEEEAAAQQQQAABBBBAAAEELkSArO2DJ2vJ2n6FaB1GgKwdhlogBBBAAAEEEEAAAQQQQAABBBC4EAGytg+erCVr+xWidRgBsnYYaoEQQAABBBBAAAEEEEAAAQQQQOBCBMjaPniylqztV4jWYQTI2mGoBUIAAQQQQAABBBBAAAEEEEAAgQsRIGv74MlasrZfIVqHESBrh6EWCAEEEEAAAQQQQAABBBBAAAEELkSArO2DJ2vJ2n6FaB1GgKwdhlogBBBAAAEEEEAAAQQQQAABBBC4EAGytg+erCVr+xWidRgBsnYYaoEQQAABBBBAAAEEEEAAAQQQQOBCBMjaPniylqztV4jWYQTI2mGoBUIAAQQQQAABBBBAAAEEEEAAgQsRIGv74MlasrZfIVqHESBrh6EWCAEEEEAAAQQQQAABBBBAAAEELkSArO2DJ2vJ2n6FaB1GgKwdhlogBBBAAAEEEEAAAQQQQAABBBC4EAGytg+erCVr+xWidRgBsnYYaoEQQAABBBBAAAEEEEAAAQQQQOBCBMjaPniylqztV4jWYQTI2mGoBUIAAQQQQAABBBBAAAEEEEAAgQsRIGv74MlasrZfIVqHESBrh6EWCAEEEEAAAQQQQAABBBBAAAEELkSArO2DJ2vJ2n6FaB1GgKwdhlogBBBAAAEEEEAAAQQQQAABBBC4EAGytg+erCVr+xWidRgBsnYYaoEQQAABBBBAAAEEEEAAAQQQQOBCBMjaPniylqztV4jWYQTI2mGoBUIAAQQQQAABBBBAAAEEEEAAgQsRIGv74MlasrZfIVqHESBrh6EWCAEEEEAAAQQQQAABBBBAAAEELkSArO2DJ2vJ2n6FaB1GgKwdhlogBBBAAAEEEEAAAQQQQAABBBC4EAGytg+erCVr+xWidRgBsvbm5q/+6q9u/uRP/sQHAzWgBtSAGlADakANqAE1oAbUgBp4cDXwySefDHMIDzkQWdvPHllL1vYrROswAmTtzc2XX35589Zbb/lgoAbUgBpQA2pADagBNaAG1IAaUAMPrgbef//9YQ7hIQcia/vZI2vJ2n6FaB1GgKx9UtY6YeuEsRpQA2pADagBNaAG1IAaUANqQA08hBr45je/eSuWydrjFApZ2+dE1pK1/QrROowAWfukrB0GXiAEEEAAAQQQQAABBBBAAAEEnoHAxx9/TNaewI+s7cMia8nafoVoHUaArCVrhxWbQAgggAACCCCAAAIIIIAAAmcjQNaehpKs7fMia8nafoVoHUaArCVrhxWbQAgggAACCCCAAAIIIIAAAmcjQNaehpKs7fMia8nafoVoHUaArCVrhxWbQAgggAACCCCAAAIIIIAAAmcjQNaehpKs7fMia8nafoVoHUaArCVrhxWbQAgggAACCCCAAAIIIIAAAmcjQNaehpKs7fMia8nafoVoHUaArCVrhxWbQAgggAACCCCAAAIIIIAAAmcjQNaehpKs7fMia8nafoVoHUaArCVrhxWbQAgggAACCCCAAAIIIIAAAmcjQNaehpKs7fMia8nafoVoHUaArCVrhxWbQAgggAACCCCAAAIIIIAAAmcjQNaehpKs7fMia8nafoVoHUaArCVrhxWbQAgggAACCCCAAAIIIIAAAmcjQNaehpKs7fMia8nafoVoHUaArCVrhxWbQAgggAACCCCAAAIIIIAAAmcjQNaehpKs7fMia8nafoVoHUaArCVrhxWbQAgggAACCCCAAAIIIIAAAmcjQNaehpKs7fMia8nafoVoHUaArCVrhxWbQAgggAACCCCAAAIIIIAAAmcjQNaehpKs7fMia8nafoVoHUaArCVrhxWbQAgggAACCCCAAAIIIIAAAmcjQNaehpKs7fMia8nafoVoHUaArCVrhxWbQAgggAACCCCAAAIIIIAAAmcjQNaehpKs7fMia8nafoVoHUaArCVrhxWbQAgggAACCCCAAAIIIIAAAmcjQNaehpKs7fMia8nafoVoHUaArCVrhxWbQAgggAACCCCAAAIIIIAAAmcjQNaehpKs7fMia8nafoVoHUaArCVrhxWbQAgggAACCCCAAAIIIIAAAmcjQNaehpKs7fMia8nafoVoHUaArCVrhxWbQAgggAACCCCAAAIIIIAAAmcjQNaehpKs7fMia8nafoVoHUaArCVrhxWbQAgggAACCCCAAAIIIIAAAmcjQNaehpKs7fMia8nafoVoHUaArCVrhxWbQAgggAACCCCAAAIIIIAAAmcjQNaehpKs7fMia8nafoVoHUaArCVrhxWbQAgggAACCCCAAAIIIIAAAmcjQNaehpKs7fMia8nafoVoHUaArCVrhxWbQAgggAACCCCAAAIIIIAAAmcjQNaehpKs7fMia8nafoVoHUaArCVrhxWbQAgggAACCCCAAAIIIIAAAmcjQNaehpKs7fMia8nafoVoHUaArCVrhxWbQAgggAACCCCAAAIIIIAAAmcjQNaehpKs7fMia8nafoVoHUaArCVrhxWbQAgggAACCCCAAAIIIIAAAmcjQNaehpKs7fMia8nafoVoHUaArCVrhxWbQAgggAACCCCAAAIIIIAAAmcjQNaehpKs7fMia8nafoVoHUaArCVrhxWbQAgggAACCCCAAAIIIIAAAmcjQNaehpKs7fMia8nafoVoHUaArCVrhxWbQAgggMCCBL766qubjz766OaLL75YcPc/3/Jzzz13k8977733BIM333zz9vmLL774xPNr+HHNe7uG/NgDAgggcC0EyNrTMknW9nmRtWRtv0K0DiNA1pK1w4pNIAQQQOCBEIhgLcH4xhtvHL3qSMeMe/nllx+PeeWVV26fvfTSS4+fPeQvkc7FJkLymKv6P4usfffddx/HrfmOvUeWj77I2tHExUMAAQTWJEDWnpZ3srbPi6wla/sVonUYAbKWrB1WbAIhgAACD4hAhGtk4PPPP3/Uqj/88MPHMjFisa6a51pOj7bS9Fg2JVXJ2qoKdwQQQAABBM5DgKw9jSNZ2+dF1pK1/QrROowAWUvWDis2gRBAAIEHROCdd955LF+POZn52muvPe6fk7l15SRqTll++umn9ehB33NCuORr7sewqf7PImsPQUv8mn+mV004WXsoY54jgAACCJyTAFl7Gk2yts+LrCVr+xWidRgBspasHVZsAiGAAAIPiECEa06ORgTe9SqEtm+k7bVeEc4lRuv1Du0rHw7tu8aQtYcIeY4AAggggMDTESBrT+NG1vZ5kbVkbb9CtA4jQNaStcOKTSAEEEDggRGo07KRtu1p2e022lcDbE+aZlxOfPbGZ770yTz5bOeoeDVX7wRp2p6lvWLt3YtHBG17ovWuvc0ma7PeDz744JZ17seees647PuuPIXdXSdr21we4pd1tbEO9dvLlWcIIIAAAmsQIGtPyzNZ2+dF1pK1/QrROowAWUvWDis2gRBAAIEHRqAVkocEarZUp0z33kvbCs697Ues1nttS2rmnrnyKob2irirPnvirl3vXe09odvGbL/XH6CWdeSqk8cRk72r1nzpk7VhUvmoNdU9e+tJ2+yx9ltjcs+47b7Coidrw75Y5r7NRQRytbexEv8u1r08aEMAAQQQuD4CZO1pOSVr+7zIWrK2XyFahxEga8naYcUmEAIIIPAACZSgi+TbuyLaSqjt9Sk5uPe6gIyt+XNP33xaUdcK28jGirUnjytW+vQEYt47e+q1J4pLSO7trZ2/1rxdU43Pfp/2agX1Vnq2c6atuIZ11pz4Ee1tDvbmyGswag8ZF84ZV/OlLYK1vQ7trV1Hxm/jtZwP1cRdr+Vo1+E7AggggMB1EyBrT8svWdvnRdaStf0K0TqMAFlL1g4rNoEQQACBB0igpFvE2d5p1VaubcVbtlsCdU9oluyLPN3O3QrCti3zRA7uCbuaL+2RidurN3bbd/u7Tg9nP3VlvyUx9+Rx9as+l5S1lYc9QZp9lLBt95f1t3t89OhRben2nrb6A9cyvr2qbhKvrvSvHO2tI/2qfS9/bU30eFc8dwQQQACB6ydA1p6WY7K2z4usJWv7FaJ1GAGylqwdVmwCIYAAAg+QQPuHam1lY7ZTAvTQadWShFtZe5fkzdwlECP+6ioJuI1XJ0xbedhK3owvaXqq6GuF5XZs7X9PHteaK+6WX+2lFZo15th77Tsxss5DV/KQtb799tu7XUqEbtfS5mnLMxN9+OGHj7m28bd7y9g2N23fWlDLecsqfTJHsWxPXNd4dwQQQACB9QiQtaflnKzt8yJrydp+hWgdRoCsJWuHFZtACCCAwAMlUEJyK1xbuRapt3cdkrU1594Jyppnb2wrJ1t5WLIxEq/mbsVqjdueAK1YvXsJy63IzJjEi0DMvO162vlKMG4F5FZotmOO/V77ukvW3jVfrSXztFc7f8uz7bP3veYrZq2oPfRu3FbG9uT3XjzPEEAAAQTWJEDWnpZ3srbPi6wla/sVonUYAbKWrB1WbAIhgAACD5TAISFZErMnCveEazDUqdnI2syz96lXD5TwK3w1tpWf6VPrqPW2wq9kbk8O1/zbe82dvWyvVjC262n7ZV35bNu3QrMdc+z3VqbunVbdzpP1ZkwYZT/1KZmadW6v2n/a0j/7uCtWu7din/HJc+9q+0a6Z52H5G5vHm0IIIAAAmsQIGtPyzNZ2+dF1pK1/QrROowAWUvWDis2gRBAAIEHSiCCrwRp5FlddYK1J0Aj9yLp0re98uzYz1bWltDL3LnqhG+EY/s7a66r1nqXLKz+dW9laP4QrcTafkp0bvdYc9Q+Ly1rk7vKY61p717rrnv2W3ls+ycvkbJp314la9v++Z7c3XXl3bjbcYmVNezFums+7QgggAAC10uArD0tt2RtnxdZS9b2K0TrMAJkLVk7rNgEQgABBB4wgZKdJSQjzUqoRWIeukry1bjqV2PzPH16n63gq/eklsSNhNyKwFpvZGt7+vVU2Vfrr/XedU+s7VVjLilrI6lrHWGzFc8lwNPn0BV2eedtxrfSN3nY1sBW1tYp6cy/5bAXL7Gy5ozL/LX23DO3CwEEEEAAgRAga0+rA7K2z4usJWv7FaJ1GAGylqwdVmwCIYAAAg+YQHvCNEKyBGkJ00NbK9kZwddeJfueRrxt5WsrZitGycJIyFp7nbytPnfdE6fW2crC3ve9/VT/raSsNd7FsLfO2lti9ER0Cc/kY++qtWSeY6/I1Jo3nFpR3c6Xk7K5Kk/p21vrXvy8CqEVvtm3CwEEEEAAAbL2tBoga/u8yFqytl8hWocRIGvJ2mHFJhACCCDwwAmUuIyorf/0/5D8q60ekrUl7rYSt8bdda/xdSJ0KzwjAyMe87z67InUXpz2NOpdcrFihNH2urSsLRZZxyHJ2crVdv05MRsOh8a1srg9XVvztXnJOkrupn5auZuYmSux2nnateR71WB4uxBAAAEEECBrT6sBsrbPi6wla/sVonUYAbKWrB1WbAIhgAACD5xACckStZF/d/3hT4dkbZ3M7QnEyLz027tqfMm7PWn8wgsvPBa2vTh78+dZCeFjhHIrLbdiM7HzudTJ2lbWbtdQey+JmnW2110Mkv/aXytZ92Rt5m05bYVrm9OtyK01Ve1tx1a7OwIIIIDAWgTI2tPyTdb2eZG1ZG2/QrQOI0DWkrXDik0gBBBA4IETaEVbBF17avLQ1g7J2si4EoQRrluJGAlYYm7vRGwrILOWrSDNekoYHrvWdg/t/DntecxV4nj7B66VzNzusdZ3DMdD8ducZM2HrlpbYrX9Mr6EbK2znaM9XbzNQ3JY+c3Ydt7e3to/QKxlkvG1zjBs58uaas7EOjYn7V58RwABBBC4PgJk7Wk5JWv7vMhasrZfIVqHESBrydphxSYQAgggcAUEWrF3jDArmbd3OjUyroRtBFy+p9/22VbaFcY6ORvBt3e1InPv5O3emHpW6866Dp3yrL51L5mY9bRjMkc+rZjMmOqf/T7t1e7xEKfM3UrXrCVrLDGa3yXG871de8a++uqrj0/PZkxylP7t+Hovbe3jrr1VHWWOdt35A8yyhvokzjZW1uNCAAEEEEAgBMja0+qArO3zImvJ2n6FaB1GgKwla4cVm0AIIIDAFRAoCReZ1kq2Q1sr6bknazMmc6RPK/4yd35HAG7FYRunXsvQE7E1b/uf6LdzHPpewrg393Zs9lKSsX19Qz27pKzNWsOg9lVryu+I3Fb6bteZsemzHZs5kteM3V5VJxmzd4VVzRcZ2145VV0yt9aZe/pH5roQQAABBBAoAmRtkTjuTtb2OZG1ZG2/QrQOI0DWkrXDik0gBBBAAIEugUi6iL9jJHB3Io1dAhHgT8u5xiZXPZHeXcCRjZk/cfJRE0dC0w0BBBBYjABZe1rCydo+L7KWrO1XiNZhBMhasnZYsQmEAAIIIIAAAggggAACCCBwNgJk7Wkoydo+L7KWrO1XiNZhBMhasnZYsQmEAAIIIIAAAggggAACCCBwNgJk7Wkoydo+L7KWrO1XiNZhBMhasnZYsQmEAAIIIIAAAggggAACCCBwNgJk7Wkoydo+L7KWrO1XiNZhBMhasnZYsQmEAAIIIIAAAggggAACCCBwNgJk7Wkoydo+L7KWrO1XiNZhBMhasnZYsQmEAAIIIIAAAggggAACCCBwNgJk7Wkoydo+L7KWrO1XiNZhBMhasnZYsQmEAAIIIIAAAggggAACCCBwNgJk7Wkoydo+L7KWrO1XiNZhBMhasnZYsQmEAAIIIIAAAggggAACCCBwNgJk7Wkoydo+L7KWrO1XiNZhBMhasnZYsQmEAAIIIIAAAggggAACCCBwNgJk7Wkoydo+L7KWrO1XiNZhBMhasnZYsQmEAAIIIIAAAggggAACCCBwNgJk7Wkoydo+L7KWrO1XiNZhBMhasnZYsQmEAAIIIIAAAggggAACCCBwNgJk7Wkoydo+L7KWrO1XiNZhBMhasnZYsQmEAAIIIIAAAggggAACCCBwNgJk7Wkoydo+L7KWrO1XiNZhBMhasnZYsQmEAAIIIIAAAggggAACCCBwNgJk7Wkoydo+L7KWrO1XiNZhBMhasnZYsQmEAAIIIIAAAggggAACCCBwNgJk7Wkoydo+L7KWrO1XiNZhBMhasnZYsQmEAAIIIIAAAggggAACCCBwNgJk7Wkoydo+L7KWrO1XiNZhBMhasnZYsQmEAAIIIIAAAggggAACCCBwNgJk7Wkoydo+L7KWrO1XiNZhBMhasnZYsQmEAAIIIIAAAggggAACCCBwNgJk7Wkoydo+L7KWrO1XiNZhBMhasnZYsQmEAAIIIIAAAggggAACCCBwNgJk7Wkoydo+L7KWrO1XiNZhBMhasnZYsQmEAAIIIIAAAggggAACCCBwNgJk7Wkoydo+L7KWrO1XiNZhBMhasnZYsQmEAAIIIIAAAggggAACCCBwNgJk7Wkoydo+L7KWrO1XiNZhBMhasnZYsQmEAAIIIIAAAggggAACCCBwNgJk7Wkoydo+L7KWrO1XiNZhBMhasnZYsQmEAAIIIIAAAggggAACCCBwNgJk7Wkoydo+L7KWrO1XiNZhBMhasnZYsQmEAAIIIIAAAggggAACCCBwNgJk7Wkoydo+L7KWrO1XiNZhBMhasnZYsQmEAAIIIIAAAggggAACCCBwNgJk7Wkoydo+L7KWrO1XiNZhBMhasnZYsQmEAAIIIIAAAggggAACCCBwNgJk7Wkoydo+L7KWrO1XiNZhBMjaeWTt//X//qsbHwzUgBpQA2pADagBNaAG1IAaUANr1MCz/oM/WXsaQbK2z4usJWv7FaJ1GAGydh5Z+9/9n396880f/6EPBmpADagBNaAG1IAaUANqQA2ogQVq4C9/9tfP9M/+ZO1p+MjaPi+ylqztV4jWYQTIWrKWICbI1YAaUANqQA2oATWgBtSAGlAD42uArB2mPm4DkbV93mQtWduvEK3DCJC188na//1n/4fXIXglhBpQA2pADagBNaAG1IAaUANq4EproMQ4WTtMfdwGImv7vMlasrZfIVqHESBr55O1z/o/2MOKRyAEEEAAAQQQQAABBBBAAIGTCZC1JyM7ywCyto+RrCVr+xWidRgBspasHVZsAiGAAAIIIIAAAggggAACCDx+H/GzHtTxztrTioms7fMia8nafoVoHUaArCVrhxWbQAgggAACCCCAAAIIIIAAAmTthWqArO2DJ2vJ2n6FaB1GgKwla4cVm0AIIIAAAggggAACCCCAAAJk7YVqgKztgydrydp+hWgdRoCsJWuHFZtACCCAAAIIIIAAAggggAACZO2FaoCs7YMna8nafoVoHUaArCVrhxWbQAgggAACCCCAAAIIIIAAAmTthWqArO2DJ2vJ2n6FaB1GgKwla4cVm0AIIIAAAggggAACCCCAAAJk7YVqgKztgydrydp+hWgdRoCsJWuHFZtACCCAAAIIIIAAAggggAACZO2FaoCs7YMna8nafoVoHUaArCVrhxWbQAgggAACCCCAwGIEfvazn9389Kc/vfnxj3/ss2Hwk5/8ZLFqsF0E/p7AN3/8h7fC9i9/9td///Apvn388cc3b7311s3777//FKPXG0LW9nNO1pK1/QrROowAWUvWDis2gRBAAAEEEEAAgQUIREL+xV/8xc1nn3128+1vf9vnDgaffvrpzfe///1bqf2QyiMS/oc//OHNd7/73Zvs4ZNPPvHZMAiXzz///JYTOf9kdZO1T/IY9Yus7ZMma8nafoVoHUaArCVrhxWbQAgggAACCCCAwBUTyOlZgvbZ5HT4RRbMfMnz0+c48vZHP/rRzOkdtjaydhjqJwKRtU/g+NoPspas/VpReHAZAmQtWXuZyhMVAQQQQAABBBC4DgJ51UFOhjpF+/QSb8sup1VzcnWmi6Q9X35zCnl1aUvWXuavbrK2z52sJWv7FaJ1GAGylqwdVmwCIYAAAggggAACV0YgQjHiaSsb/X52sReuswjbvNZCTp89p1uG+Zccq15k7WUyT9b2uZO1ZG2/QrQOI0DWkrXDik0gBJ6BwFdffXX7PriPPvro5osvvniGmeYemr1lry4EEEAAgfkJELXnl3dbmfed73zn5tLvOs0p3+26/D5f7vNqhJxOX+0iay+TcbK2z52sJWv7FaJ1GAGylqwdVmwCLUcg4vGDDz545n1njueff/7mueeee/x58803n3neGSd44YUXbl5++eUZl2ZNCCCAAAINAaL2fLLuLvEZYXupE7ZE7Zg8ryhsydrmb6gDv5K1fdhkLVnbrxCtwwiQtWTtsGK750Cvv/76zTvvvPNMUXKi8ZpPbT4TnCMHh2HyEOEYufqs4jHzvfjii7efOlUbeZv/p/5cV2JE/h4zZ/qdQ0AfWjtZe4iM5wgggMBcBLz6YIzEK5Eb3qNPX3r1wdgcR4yvdJG1l8k2WdvnTtaStf0K0TqMAFlL1rbFVtIqpxifVlpmXHsC8tD31157rQ39zN+fRXJFApZcrPXm99MyeObNPNAJUj91Ajb88v1ZZW1yk5w8q4jvIa2afe+993rdbtuylnPXbhv0Weq4ncd3BBBAAIH7I0DijZV4JWxHvt80f5hYxXUfl+8f/vCH9/cX7mQzk7WXSQhZ2+dO1pK1/QrROowAWUvWpthyUnArK59WVEbYvfvuu48/b7/99q1se+WVVx4/S3sk3Dmvp5Vc2XsE3EsvvXS7vqwr66vTnE/L4Zx7eyhzJfePHj16/M7Vp81J7TfsKz+RtZWLxMn33Ouq31V/21Oylddt3WVcnpUQrhg1b90rZvqlliteteeeZ6mdrLk3z6G1ZI49ZhW73W/FPdS2t77qW2Pr3ltP9cnYu/ZWfd0RQACBayaQ/xyfvBsn77asR70Owcnpy+Q4r7wYfYL6Un+/ImsvQ56s7XMna8nafoVoHUaArCVrU2wRtflExrzxxhu34uqQbDq1ODNPBNd9v2N0T3LdtdasraTsVoTVusPD9XQEniYnbaTtv0BIHUUsllxtT8KmLf2Tz3yv06+V4zyrT/rkea6ssZ7XvdratWS+aq97xU/tRODW87pvaz4CuU4eV592LbWe7KOurCVj8i8TtjWaPmnPXNuTx5k3Y9qr/tquebKe4tWuZyu6s49qr/t2b20c3xFAAIFrJuAdppeReCVtR/yn8j/60Y8I+W9fLs9ffvnlNf8t5PHeyNrHKIZ+IWv7uMlasrZfIVqHESBrydptsZWY2RNW277H/C6ZdEjuRLxFdJVcihTbxo5cyvjIp/SLzCpRVmvYE4ORU+lbcqr61j1yOvIpJyH3royNKGuviKyssbfetCd25s0cteaK0+6lTmm2Mbbfa56tRNv2m+33Xk5OXeOemN17VhIx7y5Oe9VQ1Uz9zn37eoY8y/htTe2tNf2S3/YqCZq4de09Sx3kU/WYvG7X0jLLumpMrb/mb+/ZY+qsrtRJ8WjHpU/bbzt3+m7XU3+N5MR0rqx9b28V2x0BBBC4ZgI58VfS8D7u+XvufcybOf/oj/7o5s///M/vbf77WvfevPd98tKp2suJ2uR7ldO1ZO1l/teCrO1zJ2vJ2n6FaB1GgKwla7fFNlLWRlZFKkUg5XUJiR1Z1AqtrC9CM88jiUp0Zlx7mrCVXBkToZY++QefQ1dJp5Jn23553squSLBaX9aRz1Z4ZY6sJbHTlhj55HueZV2Raxmb7zXfoTVkvvTN2JK923XO+nubk6dZ556Y3XsWPqmT7VXM2+epiVa4Jsfp97SyNuvZ5qaEac1ZMVIL7ZXaJDZQAAAgAElEQVQabp8Vs/Tfq612bH3P+NRR1VB+p8byrP4aSVv22P4Oh+2/AKi/bmruqr32r4PMlX7bPdcYdwQQQOBaCTzrictf+ZVfufnlX/7lx58I1FZGpi2/f+M3fuP2nr9Pt4I1v9Pnl37pl24/+f7bv/3bT8zRztd+z5zbeG37Q/r+gx/84N5KzLtqLytqqw6Th2u/yNrLZJis7XMna8nafoVoHUaArCVrt8W2J2e2fU75XZIq826vCJ9IpfaKTIpUKhFU41uhlf4RUe3Yklxpqz1EAPeuyL3EOvYqeVZSLOOyvqylPbGYtaRvK7hKMOZ5O77Wmvbe1c7V6zdTW5uTp11XcSvpmXn2niWPrYCteMlLtWVcy776VI21Mapte6+5ts/zO/OnfpPT1Gv6tnOWQM0603fvCrP0S52kro7Je/GoOTO+1lB1WX22cjY88g//6Z9PxmbdddW4rCd72Y6vfu4IIIDACgSe9RUIJWNLSOX+Z3/2Zzf/5J/8k1uRWu35+3KeR7D+zu/8zhPCNmPS/9d//dcfS9qaI89r7jx76623HgvaVta2/ar/Q7rf56sQ8p/gPyQW17rW733ve1f/txSy9jIpJmv73MlasrZfIVqHESBrydptsUXYRNYcI4m2Y/d+lwjLvMdcJYdKckUmZT13vS6gxGCtv/6z7V7MEnm9PtVW66qTifU898i3rLFEYK2l7ZPv6bOVzjVv7Xc75iH/PsThlD3t8dl7FrZ7sjaxUguRjelT/dr6rho9Jgc1vt1DxpdcTZ1mHfUvAto50y9ttZbI2Pxu1xJmiZG23PfqrY1d39M/tVV7iVQtTqnLtCVue9W/GMnzrKNdW9svc9VfK1lT+rf7avv6jgACCFwzgfz98FnkWGRsTrfmE5mauXLaNqdjf/M3f/P21GyeVb9f/dVfvW1rT9emfStr0//3fu/3buf63d/93dv5c/o2z37xF3/xVvaWrE2cCOBn2celx+Y1Bfd1ffbZZ0PYJOcR7slH5Pwhpsn1odPTqaGqo0PjM3fitJ/UyKH+7fPUzKXE/n3m+L5q59R5ydpTiZ2nP1nb50jWkrX9CtE6jABZS9Zui61kZyuQtn1O+V3y6JCsjTCq03wRQfVpZVBkWz2PNMqY7fpKcqVfxFWJ095aI6fS/5jrww8/vO0bAba9SnrVmg5JysTaciih1u53O/9D/X2Iwyn72eOz9yxsk8/elfzkH1pSH624rBo9Jgd7ceokbFtzd82Zf+DPye/MV6dfs/Ywy/oyPs/re29facve66+N2lvWk/Gpz7S1fGp923+pcddfE2G/J6LvWp92BBBA4BoItCLrab5Hqka85RNhFgmbZzVXfa97+u3Jsq2szf+2RczW3JHBkbXpV0Iv4i2fyMGK95Dv91VPo95XmxyXuI+wb/PcCtg8T14rVxlT37d1kOft2OqX+7F92/kvKWuz5mu/yNrLZJis7XMna8nafoVoHUaArCVrt8U2UtbWfyoeYRR5FYGUf+CIwNqKs2qLKIqM2vYpWRvZFEHVCrDtHut3xc/ce1dexZD15Kp1RVZtL7J2S+Tnvy8ta7/1rW/d1sE2Z9u8l7jc1tzervZk7d6z1HNbo6ml1OS21rZytGWWvqnl1HsrgvfWVfUZcdxK2XyvfxlSrxbJ+OrfPsvzErEVI+Pb+fI8a9nbc41xRwABBK6RwDn+cLGSsCXR/viP//iJ1xlUe92PkbUlfCPjSthm/ki3nKDNXOlTsrbmrjU81PtPf/rTeymzUTyShxKjqYMI28ROzuvdxvnf6lbWJoc5IVtjc/+FX/iFm9///d+/nSu/M3ZPyG9lbYn7jElb1pLvNX/VTMVvhfEoRveV43spnKeYlKx9CmhnGELW9iGStWRtv0K0DiNA1pK122IbKWsjfCKH2mt7ajLCKs9aWZXvEVARWXW1kqtOLEai9q6KdahfJFmdUiz5ttc3Mit7qTW2a2njp4+TtT9/z2+YheldV+WoFal7z/bkYfKRGkmtlCSt2qm8Jn7a9sbvra39FwGV76rF2k/Wl/kzZ9VLrTn7rrXk3tZY4m1rp8ZFMPeurCXx8smYump8ntd601bPaz1pq7/22771rPaRsfmePvmHyENX+mxrPb9bOZz9V/yaJ+3Za7vWanNHAAEELkkg4uhZJVWJsQiwfCLE8pqCknJpT4y6R5Dt/SfrGRuplr4RfemfOSLpSvDmewRcXqWQ/pFzJXD3ZN6z7m30+PsSeaP2kZyVrE3M+l33ynHuyWnePxwRmzGR8hHx1Sfj0/YHf/AHt+01R7uXtm/qLvVSc2X+/M4cOZlbbSWHc2/nGvX9vnJ8yb+PtLHJ2pbGuO9kbZ81WUvW9itE6zACZC1Zuy22kjMllNr2CJRTJUrmidjZipvMm+fbE7AVv+RciaFWQGVsJO8hWVvtmX87rt1PvkeWZZ7tfitu+5+Jl1hrGdT+Ip3q2gq3er7HoaRZ7Td92/lr7HZ99Xzm+yEO+YeAsLhLQGZve3z2nmW+NgfFJfKvxGn65JN8t9IwfVOH1d6rmarP9E2N5Iqk3cZ49dVXv7bH/EuExK44uWdcSd7MtcesTgJXvNugO/8ne8h87ZVaSsztX2fp075epNYShvlea8r4etaue2++Nm7xrFquv04ituuqv8bavzfUyd6KX33dEUAAgRkIPKukiniNGKtPZFk++Z22ErN1r7bc29j5HXlXz2reCLl6Xs/qd+6RdBmz94eW1VwP5Z6Tzvdxjdp/K1STz/xO/iLv6/2yv/Vbv3X7LPURQZs+1Zb8tgK2bUuf/P9a7V7avnkeAZs6KMGfZ5kzwjafOllb87ZzjfpO1h5X4R9//PHtX/fvv//+cQMW70XW9guArCVr+xWidRgBspas3RZbyag9ORgRFPFzylWSphUyNb4kVARNvkfwlMwqMRXZU3EjjTJPCZ1WpG4lV43L2BJGFbe9Z33pk892/lYsZUwEUtaXvllH1ly/W17btVS8yK4th614LF7ZY10Zk7E9iVh9Z7pnvYekW9p6eal9pM+2796z9GlzUOPrnvb8g0sk7aG4aUufQ+3budp4+b4dn5jb/bf9tvvK/Htjes9rTbkn1jZejW3X2o7J85ZLfu+tK/PW/vZitHPme+bZ9tubd/tsb9x2br8RQACBSxH4zne+84QAGyWtxPn217jfVw2MynEkaCRtTrLm9HNEaQRpRGnynecRrPlE1uaeMWnLuHzyv991wjrSNX3SnhO2JeardtJWfdvXLkTY1vy5p3/myqsVInQzLr/Tr+Yadb8vIX9ftXPqvE7WnkrsPP3J2j5Hspas7VeI1mEEyFqydltsETKRlnvCKnKylYjbsXu/M0/my7x7V04bRopGgGb+yJr0z/O68qxkbvpF6ub/QW2v119//fakYPsssmg7V9te3ytmrSPztyK4+uW+7Zt1bVntrSVj9zjUfJFWuTJX4rf7D7twT18XAggggAACCFyGQP7/ilGiSpyvC9pisv2XgeeshlE5jvysU7IlWbO/nICOsI0oLSkbcZq2OvkaeZq2krt1ajpj6sRssap7+md8/Y6YTZzMVc/zPeNL2uZ5/v/tjKlnNf6+75Hm136RtZfJMFnb507WkrX9CtE6jABZS9YOKzaBEEAAAQQQQACBB0zge9/73mPZdd+yyvyHZe13v/vde6uizI39Yfaj2Hz22Wf3luNZJiZrL5MJsrbPnawla/sVonUYAbKWrB1WbAIhgAACCCCAAAIPmMCPf/xjIu/blxd5f/u3f3tvVfSjH/1IjifI8Q9+8IN7y/EsE5O1l8kEWdvnTtaStf0K0TqMAFlL1g4rNoEQQAABBBBAAIEHTmDUO01HnWB8aHE++eSTe62gvCdVji8v5K/9DxdLEZO19/qX8sHJydqDaG4byFqytl8hWocRIGvJ2mHFJhACCCCAAAIIIPDACXz55ZdOXl7w5GX43/fldReXlbWff/75fad4ivnJ2sukgaztcydrydp+hWgdRoCsJWuHFZtACCCAAAIIIIDAAyfg5OXlRF5O1Y44cZkYD+3E8TWt9yc/+ckD/7vEccsna4/jdO5eZG2fKFlL1vYrROswAmQtWTus2ARCAAEEEEAAAQSugMDf/M3fkHkXOF2b98mOupygvoyUv88/PG5U7Rwbh6w9ltR5+5G1fZ5kLVnbrxCtwwiQtWTtsGITCAEEEEAAAQQQuBIC/lP5sTJvtMTLCeqc5L2mE6uz72XUyelZ/hZE1l4mE2RtnztZS9b2K0TrMAJkLVk7rNgEQgABBBBAAAEEroRAZN6nn35K5g04YRvO4T36yusQ/GFjY6R8OK/y+oOqY7K2SIy9k7V93mQtWduvEK3DCJC1ZO2wYhMIAQQQQAABBBC4IgKE7f2LvEuJ2irTCETC9v7zPPIVF5XbS9/J2stkgKztcydrydp+hWgdRoCsJWuHFZtACCCAAAIIIIDAFRLwSoT7kXl59cElTtRuSzQnbL0S4X5yvOKJ2qovsrZIjL2TtX3eZC1Z268QrcMIkLVk7bBiEwgBBBBAAAEEELhSAjkZSOidR+hF4OUPcZvpirCNPJ79va8PaX2fffbZTbiuepG1l8k8WdvnTtaStf0K0TqMAFlL1g4rNoEQQAABBBBAAIErJ0DaPr2wjaT98ssvpzhNe6hMI5G9q/jpcxyZHEn74x//+BDiZZ6TtZdJNVnb507WkrX9CtE6jABZS9YOKzaBEEAAAQQQQACBRQhERkU8Rkw5cbsv98Ll888/v/n+97//4ORd8puTtnK7n9vtCd+I+IeY5/v82xVZe590D89N1h5mkxaylqztV4jWYQTIWrJ2WLEJhAACCCCAAAIIIIDAlRHIe3Ujb3PqNierff6eQbis/KqDXqmTtT0699dG1vbZkrVkbb9CtA4jQNaStcOKTSAEEEAAAQQQQAABBBBAAIEbsvYyRUDW9rmTtWRtv0K0DiNA1pK1w4pNIAQQQAABBBBAAAEEEEAAAbL2QjVA1vbBk7Vkbb9CtA4jQNaStcOKTSAEEEAAAQQQQAABBBBAAAGy9kI1QNb2wZO1ZG2/QrQOI0DWkrXDik0gBBBAAAEEEEAAAQQQQAABsvZCNUDW9sGTtWRtv0K0DiNA1pK1w4pNIAQQQAABBBBAAAEEEEAAAbL2QjVA1vbBk7Vkbb9CtA4jQNaStcOKTSAEEEAAAQQQQAABBBBAAAGy9kI1QNb2wZO1ZG2/QrQOI0DWkrXDik0gBBBAAAEEEEAAAQQQQAABsvZCNUDW9sGTtWRtv0K0DiNA1pK1w4pNIAQQQAABBBBAAAEEEEAAAbL2QjVA1vbBk7Vkbb9CtA4jQNaStcOKTSAEEEAAAQQQQAABBBBAAAGy9kI1QNb2wZO1ZG2/QrQOI0DWzidr//QnH93803/9z30weBA18Od/+dHNf/+//enUa33ttddu3vqv/4up1+iveX/PUwNqQA2oATWgBtTAOjXwzR//4a2w/cuf/fUz/bP/xx9/fPPWW2/dvP/++880zyqDydp+pslasrZfIVqHESBr55O19T/c7j//f2BwmJPDf/4nb978m//Ov3Xz3HPP3X7+wb/xD27+3f/kNx6fEpgpb1njv/3vvzzl2mbiZC1z/rUmL/KiBtSAGlADauB6a4CsHaY+bgORtX3eZC1Z268QrcMIkLXzyNp/9q8/vfmn/+qf+2AwfQ38N//iD28F7UsvvXTzzh/+lzf/1f/w7s1/9J/+o9tn//Aff+Ok9f+3/+KD23G/9Xv/6KRxp/y1Eln77/0H//De5j9lLfr6e5waUANqQA2oATWgBtRA1cDf/j9fPdM/+ztZexo+srbPi6wla/sVonUYAbJ2Hlk7LOkCIfCMBPJageeff/7miy++eGKml19++fb5Ew/v+JE5IlPffPPNO3o+fXPmz5pdCCCAAAIIIIAAAghcEwGy9rRskrV9XmQtWduvEK3DCJC1ZO2wYhPoaghEfL7++utf20+Ea8ToV18dd0LgjTfeuMnp3Ix58cUXbyJ7P/3008fzfvTRRzevvPLKbVv6Je5WECdW4qa95si49trK2ozJvPnsrfVb3/rW7Vq286T/O++8005989577932befJerKXWk/6bK/s8669bcf4jQACCCCAAAIIIIBAS4CsbWnc/Z2s7TMia8nafoVoHUaArCVrhxWbQFdPoATlsRt99913byJsI1MzNpKzZGza6vnbb799K2pzmjdStr3yO88zT8ZHkGZcK1q3sjbSd9unnTPiNe2Zr67I1TzL/O2VdedTV7ueWnfGtZI3e6y9JEbWk9+Zu5W+Nac7AggggAACCCCAAAJ7BMjaPSqHn5G1h9mkhawla/sVonUYAbKWrB1WbAJdNYGSq7mfch16DUJOnf7ar/3aE1NFbEZ81unbCNmtCI3sjPjM+LrSJ0I0V4nau9a5lbCRrZk3c5UI3krdrCvCdTt3nfqt9ZSgLjGd5x9++OHt3HuncGucOwIIIIAAAggggAACLQGytqVx93eyts+IrCVr+xWidRgBspasHVZsAl0tgUjHSMpWkB672UOydm98ydmSpTU28rO9IlFbEVqytmRvTrzedaVv5GyddI28TZw8S1uu7XoOzRlB3J7ILVm7FbNZc8U7NJfnCCCAAAIIIIAAAggUAbK2SBx3J2v7nMhasrZfIVqHESBrydphxSbQVRKIYIyIzOdpRGMJ1xKgLaQ8y6nUyNb2U7I2fR89enTbFokaoRoB2ora9MnYOhXbCtg21vZ7K2JrjXkW0VqvPcj3VsJmjvQtOduuue0XTvmd9tzT/4MPPtguwW8EEEAAAQQQQAABBLoEyNounq81krVfQ/LEA7KWrH2iIPy4HAGylqy9XPWJ/NAJlHSMcNwK0mP3ViJ0K2vr9GlkbF4vkH71qoVW1iZOteVkb2RsPq38LGma9nyPHD3myjxZR+KWbC2Jm71H2rZzZR3pF8Gc+PmdT+LW+DZuK39L3D6N8G7n9B0BBBBAAAEEEEBgHQJk7Wm5Jmv7vMhasrZfIVqHESBrydphxSbQ1RGod7FGSD7tlbERla2sjbDck6olSkvWZmx9r/h5FsmatdWVueoVDXUSt/0Dv6rf9h4Rm3m2UjbzZ72Zt5XCmTPP6p26NV/maWVt1rztUyL6mHXVvO4IIIAAAggggAACaxMga0/LP1nb50XWkrX9CtE6jABZS9YOKzaBropABGSk5bOI2gApWZsTrHUdkrV12rYEacnRrbCNXN3K2vYEbNqz9q0wrfh1L4EaAdvGyDoyPs/bk7B768n+ImpbWfvCCy88fpVCxcpaMl8rraut7onVxsvz7e882+Zkb1zN6Y4AAggggAACCCDwcAmQtafljqzt8yJrydp+hWgdRoCsJWuHFZtAV0Mgf0BXxGKEaCTo9rP9g7Pu2njEZ2RmRGVJ0QjVxMiJ2MjR+p1nNX8kZInQ9Mn46pcTtHVlTCtrW4G6JztrXNoyNutrr6wxzxOrvTJv7SXrKalbYrf6Fr/ac9ad7+m3Fa01Jvfaaz1L36yjTg3nec1dQjvPkqfM3dtrzemOAAIIIIAAAggg8HAIkLWn5Yqs7fMia8nafoVoHUaArCVrhxWbQFdDoKRoZOXeJ8LwlCtiMUIxMrJkbcRiZGc9j3yNnEy8nHitK88iYqvftj398my7psTJ81Zq1pztPXO34rfaDo3NeuodtbWWxM73tNWV+NUv+85e2/bq197TpxWzYZR5271lP9tY23HtnL4jgAACCCCAAAIIPFwCZO1puSNr+7zIWrK2XyFahxEga8naYcUmEAIIIIAAAggggAACCCCAwNkIkLWnoSRr+7zIWrK2XyFahxEga8naYcUmEAIIIIAAAggggAACCCCAwNkIkLWnoSRr+7zIWrK2XyFahxEga8naYcUmEAIIIIAAAggggAACCCCAwNkIkLWnoSRr+7zIWrK2XyFahxEga8naYcUmEAIIIIAAAggggAACCCCAwNkIkLWnoSRr+7zIWrK2XyFahxEga8naYcUmEAIIIIAAAggggAACCCCAwNkIkLWnoSRr+7zIWrK2XyFahxEga8naYcUmEAIIIIAAAggggAACCCCAwNkIkLWnoSRr+7zIWrK2XyFahxEga8naYcUmEAIIIIAAAggggAACCCCAwNkIkLWnoSRr+7zIWrK2XyFahxEga8naYcUmEAIIIIAAAggggAACCCCAwNkIkLWnoSRr+7zIWrK2XyFahxEga8naYcUmEAIIIIAAAggggAACCCCAwNkIkLWnoSRr+7zIWrK2XyFahxEga8naYcUmEAIIIIAAAggggAACCCCAwNkIkLWnoSRr+7zIWrK2XyFahxEga8naYcUmEAIIIIAAAggggAACCCCAwNkIkLWnoSRr+7zIWrK2XyFahxEga8naYcUmEAIIIIAAAggggAACCCCAwNkIkLWnoSRr+7zIWrK2XyFahxEga8naYcUmEAIIIIAAAggggAACCCCAwNkIkLWnoSRr+7zIWrK2XyFahxEga8naYcUmEAIIIIAAAggggAACCCCAwNkIkLWnoSRr+7zIWrK2XyFahxEga8naYcUmEAIIIIAAAggggAACCCCAwNkIkLWnoSRr+7zIWrK2XyFahxEga8naYcUmEAIIIIAAAggggAACCCCAwNkIkLWnoSRr+7zIWrK2XyFahxEga8naYcUmEAIIIIAAAggggAACCCCAwNkIkLWnoSRr+7zIWrK2XyFahxEga8naYcUmEAIIIIAAAggggAACCCCAwNkIkLWnoSRr+7zIWrK2XyFahxEga8naYcUmEAIIIIAAAggggAACCCCAwNkIkLWnoSRr+7zIWrK2XyFahxEga8naYcUmEAIIIIAAAggggAACCCCAwNkIkLWnoSRr+7zIWrK2XyFahxEga8naYcUmEAIIIIAAAggggAACCCCAwNkIkLWnoSRr+7zIWrK2XyFahxEga8naYcUmEAIIIIAAAggggAACCCCAwNkIkLWnoSRr+7zIWrK2XyFahxEga8naYcUmEAIIIIAAAggggAACCCCAwNkIkLWnoSRr+7zIWrK2XyFahxEga8naYcUmEAIIIIAAAggggAACCCCAwNkIkLWnoSRr+7zIWrK2XyFahxEga8naYcUmEAIIIIAAAggggAACCCCAwNkIkLWnoSRr+7zIWrK2XyFahxEga8naYcUmEAIIIIAAAggggAACCCCAwNkIkLWnoSRr+7zIWrK2XyFahxEga8naYcUmEAIIIIAAAggggAACCCCAwNkIkLWnoSRr+7zIWrK2XyFahxEga8naYcUmEAIIIIAAAggggAACCCCAwNkIkLWnoSRr+7zIWrK2XyFahxEga8naYcUmEAIIIIAAAggggAACCCCAwNkIkLWnoSRr+7zIWrK2XyFahxEga8naYcUm0FIEvvrqq5svvvji9vOQNv7OO+/cvPzyyw9pydaKAAIIIIAAAgggsCgBsva0xJO1fV5kLVnbrxCtwwiQtWTtsGITaBkCb7755s3zzz9/89xzz91+XnzxxZsPPvjgQez/tddeu13zg1isRSKAAAIIIIAAAggsTYCsPS39ZG2fF1lL1vYrROswAmQtWTus2ARagkBEbSTt66+/fnuq9qOPPro9qZpn+f6sV069Rv7e10XW3hdZ8yKAAAIIIIAAAgicmwBZexpRsrbPi6wla/sVonUYAbKWrB1WbAItQSBS9pVXXnlir3klQp6/8cYbTzx/mh9k7dNQMwYBBBBAAAEEEEDgGgmQtadllazt8yJrydp+hWgdRoCsJWuHFZtAV08gUjanZ/Ou2u0VWZtTq097vffee7cndPN6hXwibXOKt67EzPw5dZtP2vdevVDvpE2fl1566Yk5MtfeydoaszdfxkROp0971Zj2WdaYdbUnjN99993bZ7WexN/yy++I7nZv4eFCAAEEEEAAAQQQWJsAWXta/snaPi+ylqztV4jWYQTIWrJ2WLEJtCyBSM7I2ojJp70iOCNnIywja/O95GlkZonMt99++yaf/E7MVozWKxoiRLOWErMRqHXVs/pdYx49elSPvnbP+MRrr4jgbfwI3DwrGVtz13qy7uwtY9ur9pw1HNpb2993BBBAAAEEEEAAgTUIkLWn5Zms7fMia8nafoVoHUaArCVrhxWbQEsRiEiNjMyJ0AjIvMP2HNeeGC2BWRI0cfZevRAJ2orZ9Cs5W2Prd9pKrvZEbduv5sg9Ujaf9tUPOYHbitis5Rvf+EameHyVwP30009vn0U2Z5725G72Fqbb1008nsQXBBBAAAEEEEAAgSUIkLWnpZms7fMia8nafoVoHUaArCVrhxWbQEsRiJytE6F1EvYcAPZk7aF5IzkjX+vK2KylRGg9b+8la+s08Kuvvto2734vOVuvJohYzd4jXtsTt4ndytu9yXLiN+uuE8FZa0nfksF74zxDAAEEEEAAAQQQWI8AWXtazsnaPi+ylqztV4jWYQTIWrJ2WLEJtCyBnEzdng59WhiHZG3katoSp/20sjayM/I07bmnraRoradkbcRq+tWrFqr90P2FF154LIazjpo7c0S4lnRt4+WEbAndds353vYrfnmeuSN8idtDmfAcAQQQQAABBBBYhwBZe1quydo+L7KWrO1XiNZhBMhasnZYsQm0NIHIzIjGZ70yR3taNfPVadSc5o0UjcjMJ3KzlbUVOyI0wrPeK9uedi1Zm7Z8Im2PEaOZo/q2sjX7jpDNadu0t1deY5BneY1DrblevdDK2oxJe71nt4TzsSK5jek7AggggAACCCCAwPUQIGtPyyVZ2+dF1pK1/QrROowAWUvWDis2ga6eQE6KRqbW6wDaDUd83peszbxbEZrYrazN2iJAt+I1kjX9InlzlaxN//TNvMesO3NnnjopW3vP/BkfMdu+YzbzV//qm3uJ55K1WQUdEuwAACAASURBVEN9r36nrKvGuCOAAAIIIIAAAghcHwGy9rSckrV9XmQtWduvEK3DCJC1ZO2wYhPo6glEQO7JzcjFVpwGRPrmc+oV8bk9WVsnVNv56oRqnaxN23YNiV39SoiWrK11lTxtT99WW3vP/Nn7NkZJ3LRlrroOMcleMketJ/K3/V3jwyACvHclRntljS2jtG37HHrWzuM7AggggAACCCCAwBwEyNrT8kDW9nmRtWRtv0K0DiNA1pK1w4pNoCUI5D/pj1yMTIxorNcD5HcrBiNd069OtB4Lp+RlpGad4K0/DCwxIlszd+RoPu1p1nr3a9ozT4nZVnrWs3Y9dfq2BGrb1n6vPW1fT1ASt91/xlX/rDFxa83hUnuLXM2+0pY+WXeNa+Vvu458L07tWuq1DiVss57EahmVvK7423n9RgABBBBAAAEEEJiHAFl7Wi7I2j4vspas7VeI1mEEyFqydlixCbQMgQjYiMVIxXwiSUsQFoRI3UjCrcCs9kP3zFNzZ466Ii4rXtqzhgjL7YnYtl/ib9eW9oxvr4q5navtk+8Ro9uxeZ45E2fvyh5q3ekTHpmjlax5ltjVL+13ieO0b/lm/lbMZl+Zs+UYbttxe+v2DAEEEEAAAQQQQODyBMja03JA1vZ5kbVkbb9CtA4jQNaStcOKTSAEEEAAAQQQQAABBBBAAIGzESBrT0NJ1vZ5kbVkbb9CtA4jQNaStcOKTSAEEEAAAQQQQAABBBBAAIGzESBrT0NJ1vZ5kbVkbb9CtA4jQNaStcOKTSAEEEAAAQQQQAABBBBAAIGzESBrT0NJ1vZ5kbVkbb9CtA4jQNaStcOKTSAEEEAAAQQQQAABBBBAAIGzESBrT0NJ1vZ5kbVkbb9CtA4jQNaStcOKTSAEEEAAAQQQQAABBBBAAIGzESBrT0NJ1vZ5kbVkbb9CtA4jQNaStcOKTSAEEEAAAQQQQAABBBBAAIGzESBrT0NJ1vZ5kbVkbb9CtA4jQNaStcOKTSAEEEAAAQQQQAABBBBAAIGzESBrT0NJ1vZ5kbVkbb9CtA4jQNaStcOKTSAEEEAAAQQQQAABBBBAAIGzESBrT0NJ1vZ5kbVkbb9CtA4jQNaStcOKTSAEEEAAAQQQQAABBBBAAIGzESBrT0NJ1vZ5kbVkbb9CtA4jQNaStcOKTSAEEEAAAQQQQAABBBBAAIGzESBrT0NJ1vZ5kbVkbb9CtA4jQNaStcOKTSAEEEAAAQQQQAABBBBAAIGzESBrT0NJ1vZ5kbVkbb9CtA4jQNaStcOKTSAEEEAAAQQQQAABBBBAAIGzESBrT0NJ1vZ5kbVkbb9CtA4jQNaStcOKTSAEEEAAAQQQQAABBBBAAIGzESBrT0NJ1vZ5kbVkbb9CtA4jQNaStcOKTSAEEEAAAQQQQAABBBBAAIGzESBrT0NJ1vZ5kbVkbb9CtA4jQNaStcOKTSAEEEAAAQQQQAABBBBAAIGzESBrT0NJ1vZ5kbVkbb9CtA4jQNaStcOKTSAEEEAAAQQQQAABBBBAAIGzESBrT0NJ1vZ5kbVkbb9CtA4jQNaStcOKTSAEEEAAAQQQQAABBBBAAIGzESBrT0NJ1vZ5kbVkbb9CtA4jQNaStcOKTSAEEEAAAQQQQAABBBBAAIGzESBrT0NJ1vZ5kbVkbb9CtA4jQNaStcOKTSAEEEAAAQQQQAABBBBAAIGzESBrT0NJ1vZ5kbVkbb9CtA4jQNaStcOKTSAEEEAAAQQQQAABBBBAAIGzESBrT0NJ1vZ5kbVkbb9CtA4jQNaStcOKTSAEEEAAAQQQQAABBBBAAIGzESBrT0NJ1vZ5kbVkbb9CtA4jQNaStcOKTSAEEEAAAQQQQAABBBBAAIGzESBrT0NJ1vZ5kbVkbb9CtA4jQNaStcOKTSAEEEAAAQQQQAABBBBAAIGzESBrT0NJ1vZ5kbVkbb9CtA4jQNaStcOKTSAEHgCBd9999+a11157ACu1RAQQQAABBBBAAIHVCZC1p1UAWdvnRdaStf0K0TqMAFlL1g4rNoGWJPDFF1/cPPfcczcvv/zyg9h/RG3W60IAAQQQQAABBBBAYHYCZO1pGSJr+7zIWrK2XyFahxEga8naYcUm0JIEXnzxxbPK2kjfzHlfF1l7X2TNiwACCCCAAAIIIHBuAmTtaUTJ2j4vspas7VeI1mEEyFqydlixCbQcgTfffPNWrEaunutkLVm7XBnZMAIIIIAAAggggMABAmTtATAHHpO1B8D83WOylqztV4jWYQTIWrJ2WLEJtBSBev1B3gEbwfqssva99967neP555+/ySfzRQbXlXhvvPHGE3L4o48+qubH93feeed2bATySy+99MQc6bR3srbGfPDBB4/nab+88sorN+nTXjWmfZY1Zt3tuvI9z2o9iZ9+7fXVV199bW+H1tKO8x0BBBBAAAEEEEDgugmQtafll6zt8yJrydp+hWgdRoCsJWuHFZtASxFoT9NGRubzLFekZp3UjazN9xKWkZuJl8/bb799+8n3vHu2FaMZk2cRovUHieV3ZGtdW1lbYx49elRdvnYv2do2RARv40fg5lnJ2Jq7XU+J6Hau7CXPs4bsb29vbX/fEUAAAQQQQAABBNYgQNaelmeyts+LrCVr+xWidRgBspasHVZsAi1DYCslzyFrC96eGC2BWRI0fXMaNWI0p23rikDdSuOSszW2fmdM7aMnatt+iZkrcyX2Nn6kcNZQV9byjW98o37e3kvgfvrpp7e/I5szT9ZSV+JE3raSudrcEUAAAQQQQAABBNYhQNaelmuyts+LrCVr+xWidRgBspasHVZsAi1BIKKyToHWhu9b1lac7T2SM/K1rqwjaysxW8/be8nanNrN+FdffbVt3v1ecjavasgVsZrTrxGvudeV2K08ruftPSd+E7dOBEfa5nfG9dbdzuE7AggggAACCCCAwBoEyNrT8kzW9nmRtWRtv0K0DiNA1pK1w4pNoCUI5LRnKyiz6RGyNnI1cSI2208rayM+6xUCOeGatpKilZyStRGrrTSt9kP3F1544bEYzjpq7swRyVrStY2XE7IldNs1b+PmZG+1Z+7IYOL2UCY8RwABBBBAAAEE1iFA1p6Wa7K2z4usJWv7FaJ1GAGylqwdVmwCXT2BOhVasjLCMp8I0sjPfK/Tp08LI3NvZXDFff3112+laERmPhGcibm9IkzrDyNLn/a0a/rnWWRurfsYMZo56tRuxpeUjcSNkI1gTXt7RWznWV7jUGtOv3Z89U97vWe31lXv7K0+7ggggAACCCCAAAJrESBrT8s3WdvnRdaStf0K0TqMAFlL1g4rNoGunkBkYmTq9hMhmU+eR0w+y7Una/NsK0ITI9KzZG1OsUagbsVrJGv61TtiS9amf/rWuu9ac+bOPHVStvpn/qwvYrZ9x2zmr/7VN/cSzyV7s4b6Xv1OWVeNcUcAAQQQQAABBBC4PgJk7Wk5JWv7vMhasrZfIVqHESBrydphxSbQsgQiK/Npr8jKfE69Ms/2ZG2dUG3nywneraxtf1fc7UnWkrXVHrmcce3p22pr74kdsbuNURI3bRGxdUW4bvumLXvJ8xK0kb/t7xofBu0fVlbP23titNce822f9N971s7jOwIIIIAAAggggMAcBMja0/JA1vZ5kbVkbb9CtA4jQNaStcOKTaBlCezJ2jyLhKwTrcfCKXkZqVqvVKg/DCwCM8///3buIFeS6oqiqGdPkx4zYAL0GBB92rhRVhinFf7GB190dTIiciEhf/Oq6v1ccUDWjjLHr33E0ePP8+9mff27X4+/dvw6r391wTl6fo21x/f1+t23r4D6v77X12f6+q8neEXcrxH09eOP7+e49/U9Hy6vz3YE1uNzvT7b8X2/ft45/n79nl5O5+/l+JzHHa+ofXw/x11no9fv7H3d//XX9d8JECBAgAABAgSuIyDWzp6FWJu9xFqxNi/EaU1ArBVra2Nz0ccKHL979Qil5z+O37F6RMKvAfP8Y/7o6yM0HmHzCI/nf6XCERmPiHn89eP8iMCvIHv+dc4/7rj/+L5e8fL4ccf58fPPf7zu/LPfXXuE0a8/9/Vr/tHPPX7d4zO8vu/jezk8jl/jHFmPv3b8/NePO77vPwvHx/lX3+PXOP7a64/j/uPXPDsebl9/3uvH+08CBAgQIECAAIFrCYi1s+ch1mYvsVaszQtxWhMQa8Xa2thcRIAAAQIECBAgQIAAAQJrAmLtjFKszV5irVibF+K0JiDWirW1sbmIAAECBAgQIECAAAECBNYExNoZpVibvcRasTYvxGlNQKwVa2tjcxEBAgQIECBAgAABAgQIrAmItTNKsTZ7ibVibV6I05qAWCvW1sbmIgIECBAgQIAAAQIECBBYExBrZ5RibfYSa8XavBCnNQGxVqytjc1FBAgQIECAAAECBAgQILAmINbOKMXa7CXWirV5IU5rAmKtWFsbm4sIECBAgAABAgQIECBAYE1ArJ1RirXZS6wVa/NCnNYExFqxtjY2FxEgQIAAAQIECBAgQIDAmoBYO6MUa7OXWCvW5oU4rQmItWJtbWwuIkCAAAECBAgQIECAAIE1AbF2RinWZi+xVqzNC3FaExBrxdra2FxEgAABAgQIECBAgAABAmsCYu2MUqzNXmKtWJsX4rQmINaKtbWxuYgAAQIECBAgQIAAAQIE1gTE2hmlWJu9xFqxNi/EaU1ArBVra2NzEQECBAgQIECAAAECBAisCYi1M0qxNnuJtWJtXojTmoBYK9bWxuYiAgQIECBAgAABAgQIEFgTEGtnlGJt9hJrxdq8EKc1AbFWrK2NzUUECBAgQIAAAQIECBAgsCYg1s4oxdrsJdaKtXkhTmsCYq1YWxubiwgQIECAAAECBAgQIEBgTUCsnVGKtdlLrBVr80Kc1gTEWrG2NjYXESBAgAABAgQIECBAgMCagFg7oxRrs5dYK9bmhTitCYi1Ym1tbC4iQIAAAQIECBAgQIAAgTUBsXZGKdZmL7FWrM0LcVoTEGvF2trYXESAAAECBAgQIECAAAECawJi7YxSrM1eYq1YmxfitCYg1oq1tbG5iAABAgQIECBAgAABAgTWBMTaGaVYm73EWrE2L8RpTUCsFWtrY3MRAQIECBAgQIAAAQIECKwJiLUzSrE2e4m1Ym1eiNOagFgr1tbG5iICBAgQIECAAAECBAgQWBMQa2eUYm32EmvF2rwQpzUBsVasrY3NRQQIECBAgAABAgQIECCwJiDWzijF2uwl1oq1eSFOawJirVhbG5uLCBAgQIAAAQIECBAgQGBNQKydUYq12UusFWvzQpzWBMRasbY2NhcRIECAAAECBAgQIECAwJqAWDujFGuzl1gr1uaFOK0JiLVibW1sLiJAgAABAgQIECBAgACBNQGxdkYp1mYvsVaszQtxWhMQa8Xa2thcRIAAAQIECBAgQIAAAQJrAmLtjFKszV5irVibF+K0JiDWirW1sbmIAAECBAgQIECAAAECBNYExNoZpVibvcRasTYvxGlNQKwVa2tjcxEBAgQIECBAgAABAgQIrAmItTNKsTZ7ibVibV6I05qAWCvW1sbmIgIECBAgQIAAAQIECBBYExBrZ5RibfYSa8XavBCnNQGxVqytjc1FBAgQIECAAAECBAgQILAmINbOKMXa7CXWirV5IU5rAmKtWFsbm4sIECBAgAABAgQIECBAYE1ArJ1RirXZS6wVa/NCnNYExFqxtjY2FxEgQIAAAQIECBAgQIDAmoBYO6MUa7OXWCvW5oU4rQmItWJtbWwuIkCAAAECBAgQIECAAIE1AbF2RinWZi+xVqzNC3FaExBrxdra2FxEgAABAgQIECBAgAABAmsCYu2MUqzNXmKtWJsX4rQmINaKtbWxuYgAAQIECBAgQIAAAQIE1gTE2hmlWJu9xFqxNi/EaU1ArBVra2NzEQECBAgQIECAAAECBAisCYi1M0qxNnuJtWJtXojTmoBYK9bWxuYiAgQIECBAgAABAgQIEFgTEGtnlGJt9hJrxdq8EKc1AbFWrK2NzUUECBAgQIAAAQIECBAgsCYg1s4oxdrsJdaKtXkhTmsCYq1YWxubiwgQIECAAAECBAgQIEBgTUCsnVGKtdlLrBVr80Kc1gTEWrG2NjYXESBAgAABAgQIECBAgMCagFg7oxRrs5dYK9bmhTitCYi1Ym1tbC4iQIAAAQIECBAgQIAAgTUBsXZGKdZmL7FWrM0LcVoTEGvF2trYXESAAAECBAgQIECAAAECawJi7YxSrM1eYq1YmxfitCYg1oq1tbG5iAABAgQIECBAgAABAgTWBMTaGaVYm73EWrE2L8RpTUCsFWtrY3MRAQIECBAgQIAAAQIECKwJiLUzSrE2e4m1Ym1eiNOagFgr1tbG5iICBAgQIECAAAECBAgQWBMQa2eUYm32EmvF2rwQpzUBsVasrY3NRQQIECBAgAABAgQIECCwJiDWzijF2uwl1oq1eSFOawJirVhbG5uLCBAgQIAAAQIECBAgQGBNQKydUYq12UusFWvzQpzWBMRasbY2NhcRIECAAAECBAgQIECAwJqAWDujFGuzl1gr1uaFOK0JiLVibW1sLiJAgAABAgQIECBAgACBNQGxdkYp1mYvsVaszQtxWhMQa8Xa2thcRIAAAQIECBAgQIAAAQJrAmLtjFKszV5irVibF+K0JiDWirW1sbmIAAECBAgQIECAAAECBNYExNoZpVibvcRasTYvxGlNQKwVa2tjcxEBAgQIECBAgAABAgQIrAmItTNKsTZ7ibVibV6I05qAWCvW1sbmIgIECBAgQIAAAQIECBBYExBrZ5RibfYSa8XavBCnNQGxVqytjc1FBAgQIECAAAECBAgQILAmINbOKMXa7CXWirV5IU5rAmKtWFsbm4sIECBAgAABAgQIECBAYE1ArJ1RirXZS6wVa/NCnNYExFqxtjY2FxEgQIAAAQIECBAgQIDAmoBYO6MUa7OXWCvW5oU4rQmItWJtbWwuIkCAAAECBAgQIECAAIE1AbF2RinWZi+xVqzNC3FaExBrxdra2FxEgAABAgQIECBAgAABAmsCYu2MUqzNXmKtWJsX4rQmINaKtbWxuYgAAQIECBAgQIAAAQIE1gTE2hmlWJu9xFqxNi/EaU1ArBVra2NzEQECBAgQIECAAAECBAisCYi1M0qxNnuJtWJtXojTmoBYK9bWxuYiAgQIECBAgAABAgQIEFgTEGtnlGJt9hJrxdq8EKc1AbFWrK2NzUUECBAgQIAAAQIECBAgsCYg1s4oxdrsJdaKtXkhTmsCYq1YWxubiwgQIECAAAECBAgQIEBgTUCsnVGKtdlLrBVr80Kc1gTEWrG2NjYXESBAgAABAgQIECBAgMCagFg7oxRrs5dYK9bmhTitCYi1Ym1tbC4iQIAAAQIECBAgQIAAgTUBsXZGKdZmL7FWrM0LcVoTEGvF2trYXESAAAECBAgQIECAAAECawJi7YxSrM1eYq1YmxfitCYg1oq1tbG5iAABAgQIECBAgAABAgTWBMTaGaVYm73EWrE2L8RpTUCsFWtrY3MRAQIECBAgQIAAAQIECKwJiLUzSrE2e4m1Ym1eiNOagFgr1tbG5iICBAgQIECAAAECBAgQWBMQa2eUYm32EmvF2rwQpzUBsVasrY3NRQQIECBAgAABAgQIECCwJiDWzijF2uwl1oq1eSFOawJirVhbG5uLCBAgQIAAAQIECBAgQGBNQKydUYq12UusFWvzQpzWBMRasbY2NhcRIECAAAECBAgQIECAwJqAWDujFGuzl1gr1uaFOK0JiLVibW1sLiJAgAABAgQIECBAgACBNQGxdkYp1mYvsVaszQtxWhMQa8Xa2thcRIAAAQIECBAgQIAAAQJrAmLtjFKszV5irVibF+K0JiDWirW1sbmIAAECBAgQIECAAAECBNYExNoZpVibvcRasTYvxGlNQKwVa2tjcxEBAgQIECBAgAABAgQIrAmItTNKsTZ7ibVibV6I05qAWCvW1sbmIgIECBAgQIAAAQIECBBYExBrZ5RibfYSa8XavBCnNQGxVqytjc1FBAgQIECAAAECBAgQILAmINbOKMXa7CXWirV5IU5rAmKtWFsbm4sIECBAgAABAgQIECBAYE1ArJ1RirXZS6wVa/NCnNYExFqxtjY2FxEgQIAAAQIECBAgQIDAmoBYO6MUa7OXWCvW5oU4rQmItWJtbWwuIkCAAAECBAgQIECAAIE1AbF2RinWZi+xVqzNC3FaExBrxdra2FxEgAABAgQIECBAgAABAmsCYu2MUqzNXmKtWJsX4rQmINaKtbWxuYgAAQIECBAgQIAAAQIE1gTE2hmlWJu9xFqxNi/EaU1ArBVra2NzEQECBAgQIECAAAECBAisCYi1M0qxNnuJtWJtXojTmoBYK9bWxuYiAgQIECBAgAABAgQIEFgTEGtnlGJt9hJrxdq8EKc1AbFWrK2NzUUECBAgQIAAAQIECBAgsCYg1s4oxdrsJdaKtXkhTmsCYq1YWxubiwgQIECAAAECBAgQIEBgTUCsnVGKtdlLrBVr80Kc1gTEWrG2NjYXESBAgAABAgQIECBAgMCagFg7oxRrs5dYK9bmhTitCYi1Ym1tbC4iQIAAAQIECBAgQIAAgTUBsXZGKdZmL7FWrM0LcVoTEGvF2trYXESAAAECBAgQIECAAAECawJi7YxSrM1eYq1YmxfitCYg1oq1tbG5iAABAgQIECBAgAABAgTWBMTaGaVYm73EWrE2L8RpTUCsFWtrY3MRAQIECBAgQIAAAQIECKwJiLUzSrE2e4m1Ym1eiNOagFgr1tbG5iICBAgQIECAAAECBAgQWBMQa2eUYm32EmvF2rwQpzUBsVasrY3NRQQIECBAgAABAgQIECCwJiDWzijF2uwl1oq1eSFOawJirVhbG5uLCBAgQIAAAQIECBAgQGBNQKydUYq12UusFWvzQpzWBMRasbY2NhcRIECAAAECBAgQIECAwJqAWDujFGuzl1gr1uaFOK0JiLVibW1sLiJAgAABAgQIECBAgACBNQGxdkYp1mYvsVaszQtxWhMQa8Xa2thcRIAAAQIECBAgQIAAAQJrAmLtjFKszV5irVibF+K0JiDWirW1sbmIAAECBAgQIECAAAECBNYExNoZpVibvcRasTYvxGlNQKwVa2tjcxEBAgQIECBAgAABAgQIrAmItTNKsTZ7ibVibV6I05qAWCvW1sbmIgIECBAgQIAAAQIECBBYExBrZ5RibfYSa8XavBCnNQGxVqytjc1FBAgQIECAAAECBAgQILAmINbOKMXa7CXWirV5IU5rAmKtWFsbm4sIECBAgAABAgQIECBAYE1ArJ1RirXZS6wVa/NCnNYExFqxtjY2FxEgQIAAAQIECBAgQIDAmoBYO6MUa7OXWCvW5oU4rQmItWJtbWwuIkCAAAECBAgQIECAAIE1AbF2RinWZi+xVqzNC3FaExBrxdra2FxEgAABAgQIECBAgAABAmsCYu2MUqzNXmKtWJsX4rQmINaKtbWxuYgAAQIECBAgQIAAAQIE1gTE2hmlWJu9xFqxNi/EaU1ArBVra2NzEQECBAgQIECAAAECBAisCYi1M0qxNnuJtWJtXojTmoBYK9bWxuYiAgQIECBAgAABAgQIEFgTEGtnlGJt9hJrxdq8EKc1AbFWrK2NzUUECBAgQIAAAQIECBAgsCYg1s4oxdrsJdaKtXkhTmsCYq1YWxubiwgQIECAAAECBAgQIEBgTUCsnVGKtdlLrBVr80Kc1gTEWrG2NjYXESBAgAABAgQIECBAgMCagFg7oxRrs5dYK9bmhTitCYi1Ym1tbC4iQIAAAQIECBAgQIAAgTUBsXZGKdZmL7FWrM0LcVoTEGvF2trYXESAAAECBAgQIECAAAECawJi7YxSrM1eYq1YmxfitCYg1oq1tbG5iAABAgQIECBAgAABAgTWBMTaGaVYm73EWrE2L8RpTUCsFWtrY3MRAQIECBAgQIAAAQIECKwJiLUzSrE2e4m1Ym1eiNOagFgr1tbG5iICBAgQIECAAAECBAgQWBMQa2eUYm32EmvF2rwQpzUBsVasrY3NRQQIECBAgAABAgQIECCwJiDWzijF2uwl1oq1eSFOawJirVhbG5uLCBAgQIAAAQIECBAgQGBNQKydUYq12UusFWvzQpzWBMRasbY2NhcRIECAAAECBAgQIECAwJqAWDujFGuzl1gr1uaFOK0JiLVibW1sLiJAgAABAgQIECBAgACBNQGxdkYp1mYvsVaszQtxWhMQa8Xa2thcRIAAAQIECBAgQIAAAQJrAmLtjFKszV5irVibF+K0JiDWirW1sbmIAAECBAgQIECAAAECBNYExNoZpVibvcRasTYvxGlNQKwVa2tjcxEBAgQIECBAgAABAgQIrAmItTNKsTZ7ibVibV6I05qAWCvW1sbmIgIECBAgQIAAAQIECBBYExBrZ5RibfYSa8XavBCnNQGxVqytjc1FBAgQIECAAAECBAgQILAmINbOKMXa7CXWirV5IU5rAmKtWFsbm4sIECBAgAABAgQIECBAYE1ArJ1RirXZS6wVa/NCnNYExFqxtjY2FxEgQIAAAQIECBAgQIDAmoBYO6MUa7OXWCvW5oU4rQmItWJtbWwuIkCAAAECBAgQIECAAIE1AbF2RinWZi+xVqzNC3FaExBrxdra2FxEgAABAgQIECBAgAABAmsCYu2MUqzNXmKtWJsX4rQmINaKtbWxuYgAAQIECBAgQIAAAQIE1gTE2hmlWJu9xFqxNi/EaU1ArBVra2NzEQECBAgQIECAAAECBAisCYi1M0qxNnuJtWJtXojTmoBYK9bWxuYiAgQIECBAgAABAgQIEFgTEGtnlGJt9hJrxdq8EKc1AbFWrK2NzUUECBAgQIAAAQIECBAg4NnkPAAAD4lJREFUsCYg1s4oxdrsJdaKtXkhTmsCYq1YWxubiwgQIECAAAECBAgQIEBgTUCsnVGKtdlLrBVr80Kc1gTEWrG2NjYXESBAgAABAgQIECBAgMCagFg7oxRrs5dYK9bmhTitCYi1Ym1tbC4iQIAAAQIECBAgQIAAgTUBsXZGKdZmL7FWrM0LcVoTEGvF2trYXESAAAECBAgQIECAAAECawJi7YxSrM1eYq1YmxfitCYg1oq1tbG5iAABAgQIECBAgAABAgTWBMTaGaVYm73EWrE2L8RpTUCsFWtrY3MRAQIECBAgQIAAAQIECKwJiLUzSrE2e4m1Ym1eiNOagFgr1tbG5iICBAgQIECAAAECBAgQWBMQa2eUYm32EmvF2rwQpzUBsVasrY3NRQQIECBAgAABAgQIECCwJiDWzijF2uwl1oq1eSFOawJirVhbG5uLCBAgQIAAAQIECBAgQGBNQKydUYq12UusFWvzQpzWBMRasbY2NhcRIECAAAECBAgQIECAwJqAWDujFGuzl1gr1uaFOK0JiLVibW1sLiJAgAABAgQIECBAgACBNQGxdkYp1mYvsVaszQtxWhMQa8Xa2thcRIAAAQIECBAgQIAAAQJrAmLtjFKszV5irVibF+K0JiDWirW1sbmIAAECBAgQIECAAAECBNYExNoZpVibvcRasTYvxGlNQKwVa2tjcxEBAgQIECBAgAABAgQIrAmItTNKsTZ7ibVibV6I05qAWPufsfa777775k8GNmADNmADNmADNmADNmADNmADd9nAjz/+WGsId75IrM1PT6wVa/NCnNYExFqx9i7/A8T36X8s24AN2IAN2IAN2IAN2IAN2MB/b0Cs/f8SilibncRasTYvxGlNQKz9nfrXX3/95k8GNmADNmADNmADNmADNmADNmADd9xALSLc+CKxNj88sVaszQtxWhMQa2vULiJAgAABAgQIECBAgAABAgTeJCDWZnixVqzNC3FaExBra9QuIkCAAAECBAgQIECAAAECBN4kINZmeLFWrM0LcVoTEGtr1C4iQIAAAQIECBAgQIAAAQIE3iQg1mZ4sVaszQtxWhMQa2vULiJAgAABAgQIECBAgAABAgTeJCDWZnixVqzNC3FaExBra9QuIkCAAAECBAgQIECAAAECBN4kINZmeLFWrM0LcVoTEGtr1C4iQIAAAQIECBAgQIAAAQIE3iQg1mZ4sVaszQtxWhMQa2vULiJAgAABAgQIECBAgAABAgTeJCDWZnixVqzNC3FaExBra9QuIkCAAAECBAgQIECAAAECBN4kINZmeLFWrM0LcVoTEGtr1C4iQIAAAQIECBAgQIAAAQIE3iQg1mZ4sVaszQtxWhMQa2vULiJAgAABAgQIECBAgAABAgTeJCDWZnixVqzNC3FaExBra9QuIkCAAAECBAgQIECAAAECBN4kINZmeLFWrM0LcVoTEGtr1C4iQIAAAQIECBAgQIAAAQIE3iQg1mZ4sVaszQtxWhMQa2vULiJAgAABAgQIECBAgAABAgTeJCDWZnixVqzNC3FaExBra9QuIkCAAAECBAgQIECAAAECBN4kINZmeLFWrM0LcVoTEGtr1C4iQIAAAQIECBAgQIAAAQIE3iQg1mZ4sVaszQtxWhMQa2vULiJAgAABAgQIECBAgAABAgTeJCDWZnixVqzNC3FaExBra9QuIkCAAAECBAgQIECAAAECBN4kINZmeLFWrM0LcVoTEGtr1C4iQIAAAQIECBAgQIAAAQIE3iQg1mZ4sVaszQtxWhMQa2vULiJAgAABAgQIECBAgAABAgTeJCDWZnixVqzNC3FaExBra9QuIkCAAAECBAgQIECAAAECBN4kINZmeLFWrM0LcVoTEGtr1C4iQIAAAQIECBAgQIAAAQIE3iQg1mZ4sVaszQtxWhMQa2vULiJAgAABAgQIECBAgAABAgTeJCDWZnixVqzNC3FaExBra9QuIkCAAAECBAgQIECAAAECBN4kINZmeLFWrM0LcVoTEGtr1C4iQIAAAQIECBAgQIAAAQIE3iQg1mZ4sVaszQtxWhN4xdrffvjh299//tmfDGzABmzABmzABmzABmzABmzABmzABp63gZ9++vbb99//889adLnRRWKtWHujuT77W/13rP3XP7Be/+Dyn7//A5wDBxuwARuwARuwARuwARuwARuwARt41gaeXXr+2qcTa8Xav7YcP2td4Pi/AfgdtX5HsQ3YgA3YgA3YgA3YgA3YgA3YgA3YwKdsYD2uPOAXFGvF2gfM2EcgQIAAAQIECBAgQIAAAQIECBAgcH8BsVasvf+KfQICBAgQIECAAAECBAgQIECAAAECDxAQa8XaB8zYRyBAgAABAgQIECBAgAABAgQIECBwfwGxVqy9/4p9AgIECBAgQIAAAQIECBAgQIAAAQIPEBBrxdoHzNhHIECAAAECBAgQIECAAAECBAgQIHB/AbFWrL3/in0CAgQIECBAgAABAgQIECBAgAABAg8QEGvF2gfM2EcgQIAAAQIECBAgQIAAAQIECBAgcH8BsVasvf+KfQICBAgQIECAAAECBAgQIECAAAECDxAQa8XaB8zYRyBAgAABAgQIECBAgAABAgQIECBwfwGxVqy9/4p9AgIECBAgQIAAAQIECBAgQIAAAQIPEBBrxdoHzNhHIECAAAECBAgQIECAAAECBAgQIHB/AbFWrL3/in0CAgQIECBAgAABAgQIECBAgAABAg8QEGvF2gfM2EcgQIAAAQIECBAgQIAAAQIECBAgcH8BsVasvf+KfQICBAgQIECAAAECBAgQIECAAAECDxAQa8XaB8zYRyBAgAABAgQIECBAgAABAgQIECBwfwGxVqy9/4p9AgIECBAgQIAAAQIECBAgQIAAAQIPEBBrxdoHzNhHIECAAAECBAgQIECAAAECBAgQIHB/AbFWrL3/in0CAgQIECBAgAABAgQIECBAgAABAg8QEGvF2gfM2EcgQIAAAQIECBAgQIAAAQIECBAgcH8BsVasvf+KfQICBAgQIECAAAECBAgQIECAAAECDxAQa8XaB8zYRyBAgAABAgQIECBAgAABAgQIECBwfwGxVqy9/4p9AgIECBAgQIAAAQIECBAgQIAAAQIPEBBrxdoHzNhHIECAAAECBAgQIECAAAECBAgQIHB/AbFWrL3/in0CAgQIECBAgAABAgQIECBAgAABAg8QEGvF2gfM2EcgQIAAAQIECBAgQIAAAQIECBAgcH8BsVasvf+KfQICBAgQIECAAAECBAgQIECAAAECDxAQa8XaB8zYRyBAgAABAgQIECBAgAABAgQIECBwfwGx9max9hff7zcGvzDw94EN2IAN2IAN2IAN2IAN2IAN2IAN2IANfOgG/iaOiWM2YAM2YAM2YAM2YAM2YAM2YAM2YAM2YAM2YAM28P4NiLUfWun9zff+v/k8A8/ABmzABmzABmzABmzABmzABmzABmzABmzgvAGxVqz12+ptwAZswAZswAZswAZswAZswAZswAZswAZswAYusAGx9gIP4VzPfe1tig3YgA3YgA3YgA3YgA3YgA3YgA3YgA3YgA185gbEWrHWWxMbsAEbsAEbsAEbsAEbsAEbsAEbsAEbsAEbsIELbECsvcBD8KbkM9+UeO6euw3YgA3YgA3YgA3YgA3YgA3YgA3YgA3YwHkDYq1Y662JDdiADdiADdiADdiADdiADdiADdiADdiADdjABTYg1l7gIZzrua+9TbEBG7ABG7ABG7ABG7ABG7ABG7ABG7ABG7CBz9yAWCvWemtiAzZgAzZgAzZgAzZgAzZgAzZgAzZgAzZgAzZwgQ2ItRd4CN6UfOabEs/dc7cBG7ABG7ABG7ABG7ABG7ABG7ABG7ABGzhvQKwVa701sQEbsAEbsAEbsAEbsAEbsAEbsAEbsAEbsAEbuMAGxNoLPIRzPfe1tyk2YAM2YAM2YAM2YAM2YAM2YAM2YAM2YAM28JkbEGvFWm9NbMAGbMAGbMAGbMAGbMAGbMAGbMAGbMAGbMAGLrABsfYCD8Gbks98U+K5e+42YAM2YAM2YAM2YAM2YAM2YAM2YAM2YAPnDYi1Yq23JjZgAzZgAzZgAzZgAzZgAzZgAzZgAzZgAzZgAxfYgFh7gYdwrue+9jbFBmzABmzABmzABmzABmzABmzABmzABmzABj5zA2KtWOutiQ3YgA3YgA3YgA3YgA3YgA3YgA3YgA3YgA3YwAU2INZe4CF4U/KZb0o8d8/dBmzABmzABmzABmzABmzABmzABmzABmzgvAGxVqz11sQGbMAGbMAGbMAGbMAGbMAGbMAGbMAGbMAGbOACGxBrL/AQzvXc196m2IAN2IAN2IAN2IAN2IAN2IAN2IAN2IAN2MBnbkCsFWu9NbEBG7ABG7ABG7ABG7ABG7ABG7ABG7ABG7ABG7jABsTaCzwEb0o+802J5+6524AN2IAN2IAN2IAN2IAN2IAN2IAN2IANnDcg1oq13prYgA3YgA3YgA3YgA3YgA3YgA3YgA3YgA3YgA1cYANi7QUewrme+9rbFBuwARuwARuwARuwARuwARuwARuwARuwARv4zA2ItWKttyY2YAM2YAM2YAM2YAM2YAM2YAM2YAM2YAM2YAMX2IBYe4GH4E3JZ74p8dw9dxuwARuwARuwARuwARuwARuwARuwARuwgfMGxFqx1lsTG7ABG7ABG7ABG7ABG7ABG7ABG7ABG7ABG7CBC2xArL3AQzjXc197m2IDNmADNmADNmADNmADNmADNmADNmADNmADn7kBsVas9dbEBmzABmzABmzABmzABmzABmzABmzABmzABmzgAhsQay/wELwp+cw3JZ67524DNmADNmADNmADNmADNmADNmADNmADNnDegFgr1nprYgM2YAM2YAM2YAM2YAM2YAM2YAM2YAM2YAM2cIENiLUXeAjneu5rb1NswAZswAZswAZswAZswAZswAZswAZswAZs4DM3INaKtd6a2IAN2IAN2IAN2IAN2IAN2IAN2IAN2IAN2IANXGADYu0FHoI3JZ/5psRz99xtwAZswAZswAZswAZswAZswAZswAZswAbOGxBrxVpvTWzABmzABmzABmzABmzABmzABmzABmzABmzABi6wAbH2Ag/hXM997W2KDdiADdiADdiADdiADdiADdiADdiADdiADXzmBsRasdZbExuwARuwARuwARuwARuwARuwARuwARuwARuwgQtsQKy9wEPwpuQz35R47p67DdiADdiADdiADdiADdiADdiADdiADdjAeQP/AGqIk7b5fuKQAAAAAElFTkSuQmCC;" vertex="1" parent="1">
                    <mxGeometry x="30" y="230" width="1387" height="973" as="geometry"/>
                </mxCell>
            </root>
        </mxGraphModel>
    </diagram>
</mxfile>